ISO-10303-21;
HEADER;
/* Generated by software containing ST-Developer
 * from STEP Tools, Inc. (www.steptools.com) 
 */

FILE_DESCRIPTION(
/* description */ (''),
/* implementation_level */ '2;1');

FILE_NAME(
/* name */ 'ap102.step',
/* time_stamp */ '2026-08-03T08:55:47-07:00',
/* author */ (''),
/* organization */ (''),
/* preprocessor_version */ 'ST-DEVELOPER v20.1',
/* originating_system */ 'Autodesk Translation Framework v15.8.0.0',
/* authorisation */ '');

FILE_SCHEMA (('AUTOMOTIVE_DESIGN { 1 0 10303 214 3 1 1 }'));
ENDSEC;

DATA;
#10=MECHANICAL_DESIGN_GEOMETRIC_PRESENTATION_REPRESENTATION('',(#13,#14),
#614);
#11=SHAPE_REPRESENTATION_RELATIONSHIP('SRR','None',#621,#12);
#12=ADVANCED_BREP_SHAPE_REPRESENTATION('',(#15,#16),#613);
#13=STYLED_ITEM('',(#630),#15);
#14=STYLED_ITEM('',(#630),#16);
#15=MANIFOLD_SOLID_BREP('102x96 Front',#353);
#16=MANIFOLD_SOLID_BREP('102x96 Back',#354);
#17=CIRCLE('',#370,4.00000000000001);
#18=CIRCLE('',#371,4.00000000000001);
#19=CIRCLE('',#374,3.99999999999998);
#20=CIRCLE('',#375,3.99999999999998);
#21=CIRCLE('',#378,3.99999999999999);
#22=CIRCLE('',#379,3.99999999999999);
#23=CIRCLE('',#382,3.99999999999998);
#24=CIRCLE('',#383,3.99999999999998);
#25=CIRCLE('',#388,3.99999999999999);
#26=CIRCLE('',#389,3.99999999999999);
#27=CIRCLE('',#392,3.99999999999998);
#28=CIRCLE('',#393,3.99999999999998);
#29=CIRCLE('',#396,4.00000000000001);
#30=CIRCLE('',#397,4.00000000000001);
#31=CIRCLE('',#400,3.99999999999998);
#32=CIRCLE('',#401,3.99999999999998);
#33=CYLINDRICAL_SURFACE('',#369,4.00000000000001);
#34=CYLINDRICAL_SURFACE('',#373,3.99999999999998);
#35=CYLINDRICAL_SURFACE('',#377,3.99999999999999);
#36=CYLINDRICAL_SURFACE('',#381,3.99999999999998);
#37=CYLINDRICAL_SURFACE('',#387,3.99999999999999);
#38=CYLINDRICAL_SURFACE('',#391,3.99999999999998);
#39=CYLINDRICAL_SURFACE('',#395,4.00000000000001);
#40=CYLINDRICAL_SURFACE('',#399,3.99999999999998);
#41=FACE_OUTER_BOUND('',#61,.T.);
#42=FACE_OUTER_BOUND('',#62,.T.);
#43=FACE_OUTER_BOUND('',#63,.T.);
#44=FACE_OUTER_BOUND('',#64,.T.);
#45=FACE_OUTER_BOUND('',#65,.T.);
#46=FACE_OUTER_BOUND('',#66,.T.);
#47=FACE_OUTER_BOUND('',#67,.T.);
#48=FACE_OUTER_BOUND('',#68,.T.);
#49=FACE_OUTER_BOUND('',#69,.T.);
#50=FACE_OUTER_BOUND('',#70,.T.);
#51=FACE_OUTER_BOUND('',#71,.T.);
#52=FACE_OUTER_BOUND('',#72,.T.);
#53=FACE_OUTER_BOUND('',#73,.T.);
#54=FACE_OUTER_BOUND('',#74,.T.);
#55=FACE_OUTER_BOUND('',#75,.T.);
#56=FACE_OUTER_BOUND('',#76,.T.);
#57=FACE_OUTER_BOUND('',#77,.T.);
#58=FACE_OUTER_BOUND('',#78,.T.);
#59=FACE_OUTER_BOUND('',#79,.T.);
#60=FACE_OUTER_BOUND('',#80,.T.);
#61=EDGE_LOOP('',(#225,#226,#227,#228));
#62=EDGE_LOOP('',(#229,#230,#231,#232));
#63=EDGE_LOOP('',(#233,#234,#235,#236));
#64=EDGE_LOOP('',(#237,#238,#239,#240));
#65=EDGE_LOOP('',(#241,#242,#243,#244));
#66=EDGE_LOOP('',(#245,#246,#247,#248));
#67=EDGE_LOOP('',(#249,#250,#251,#252));
#68=EDGE_LOOP('',(#253,#254,#255,#256));
#69=EDGE_LOOP('',(#257,#258,#259,#260,#261,#262,#263,#264));
#70=EDGE_LOOP('',(#265,#266,#267,#268,#269,#270,#271,#272));
#71=EDGE_LOOP('',(#273,#274,#275,#276));
#72=EDGE_LOOP('',(#277,#278,#279,#280));
#73=EDGE_LOOP('',(#281,#282,#283,#284));
#74=EDGE_LOOP('',(#285,#286,#287,#288));
#75=EDGE_LOOP('',(#289,#290,#291,#292));
#76=EDGE_LOOP('',(#293,#294,#295,#296));
#77=EDGE_LOOP('',(#297,#298,#299,#300));
#78=EDGE_LOOP('',(#301,#302,#303,#304));
#79=EDGE_LOOP('',(#305,#306,#307,#308,#309,#310,#311,#312));
#80=EDGE_LOOP('',(#313,#314,#315,#316,#317,#318,#319,#320));
#81=LINE('',#514,#113);
#82=LINE('',#516,#114);
#83=LINE('',#518,#115);
#84=LINE('',#519,#116);
#85=LINE('',#525,#117);
#86=LINE('',#528,#118);
#87=LINE('',#530,#119);
#88=LINE('',#531,#120);
#89=LINE('',#537,#121);
#90=LINE('',#540,#122);
#91=LINE('',#542,#123);
#92=LINE('',#543,#124);
#93=LINE('',#549,#125);
#94=LINE('',#552,#126);
#95=LINE('',#554,#127);
#96=LINE('',#555,#128);
#97=LINE('',#564,#129);
#98=LINE('',#566,#130);
#99=LINE('',#568,#131);
#100=LINE('',#569,#132);
#101=LINE('',#575,#133);
#102=LINE('',#578,#134);
#103=LINE('',#580,#135);
#104=LINE('',#581,#136);
#105=LINE('',#587,#137);
#106=LINE('',#590,#138);
#107=LINE('',#592,#139);
#108=LINE('',#593,#140);
#109=LINE('',#599,#141);
#110=LINE('',#602,#142);
#111=LINE('',#604,#143);
#112=LINE('',#605,#144);
#113=VECTOR('',#408,10.);
#114=VECTOR('',#409,10.);
#115=VECTOR('',#410,10.);
#116=VECTOR('',#411,10.);
#117=VECTOR('',#418,10.);
#118=VECTOR('',#421,10.);
#119=VECTOR('',#422,10.);
#120=VECTOR('',#423,10.);
#121=VECTOR('',#430,10.);
#122=VECTOR('',#433,10.);
#123=VECTOR('',#434,10.);
#124=VECTOR('',#435,10.);
#125=VECTOR('',#442,10.);
#126=VECTOR('',#445,10.);
#127=VECTOR('',#446,10.);
#128=VECTOR('',#447,10.);
#129=VECTOR('',#460,10.);
#130=VECTOR('',#461,10.);
#131=VECTOR('',#462,10.);
#132=VECTOR('',#463,10.);
#133=VECTOR('',#470,10.);
#134=VECTOR('',#473,10.);
#135=VECTOR('',#474,10.);
#136=VECTOR('',#475,10.);
#137=VECTOR('',#482,10.);
#138=VECTOR('',#485,10.);
#139=VECTOR('',#486,10.);
#140=VECTOR('',#487,10.);
#141=VECTOR('',#494,10.);
#142=VECTOR('',#497,10.);
#143=VECTOR('',#498,10.);
#144=VECTOR('',#499,10.);
#145=VERTEX_POINT('',#512);
#146=VERTEX_POINT('',#513);
#147=VERTEX_POINT('',#515);
#148=VERTEX_POINT('',#517);
#149=VERTEX_POINT('',#521);
#150=VERTEX_POINT('',#523);
#151=VERTEX_POINT('',#527);
#152=VERTEX_POINT('',#529);
#153=VERTEX_POINT('',#533);
#154=VERTEX_POINT('',#535);
#155=VERTEX_POINT('',#539);
#156=VERTEX_POINT('',#541);
#157=VERTEX_POINT('',#545);
#158=VERTEX_POINT('',#547);
#159=VERTEX_POINT('',#551);
#160=VERTEX_POINT('',#553);
#161=VERTEX_POINT('',#562);
#162=VERTEX_POINT('',#563);
#163=VERTEX_POINT('',#565);
#164=VERTEX_POINT('',#567);
#165=VERTEX_POINT('',#571);
#166=VERTEX_POINT('',#573);
#167=VERTEX_POINT('',#577);
#168=VERTEX_POINT('',#579);
#169=VERTEX_POINT('',#583);
#170=VERTEX_POINT('',#585);
#171=VERTEX_POINT('',#589);
#172=VERTEX_POINT('',#591);
#173=VERTEX_POINT('',#595);
#174=VERTEX_POINT('',#597);
#175=VERTEX_POINT('',#601);
#176=VERTEX_POINT('',#603);
#177=EDGE_CURVE('',#145,#146,#81,.T.);
#178=EDGE_CURVE('',#146,#147,#82,.T.);
#179=EDGE_CURVE('',#148,#147,#83,.T.);
#180=EDGE_CURVE('',#145,#148,#84,.T.);
#181=EDGE_CURVE('',#145,#149,#17,.T.);
#182=EDGE_CURVE('',#150,#148,#18,.T.);
#183=EDGE_CURVE('',#149,#150,#85,.T.);
#184=EDGE_CURVE('',#151,#149,#86,.T.);
#185=EDGE_CURVE('',#152,#150,#87,.T.);
#186=EDGE_CURVE('',#151,#152,#88,.T.);
#187=EDGE_CURVE('',#151,#153,#19,.T.);
#188=EDGE_CURVE('',#154,#152,#20,.T.);
#189=EDGE_CURVE('',#153,#154,#89,.T.);
#190=EDGE_CURVE('',#155,#153,#90,.T.);
#191=EDGE_CURVE('',#156,#154,#91,.T.);
#192=EDGE_CURVE('',#155,#156,#92,.T.);
#193=EDGE_CURVE('',#155,#157,#21,.T.);
#194=EDGE_CURVE('',#158,#156,#22,.T.);
#195=EDGE_CURVE('',#157,#158,#93,.T.);
#196=EDGE_CURVE('',#159,#157,#94,.T.);
#197=EDGE_CURVE('',#160,#158,#95,.T.);
#198=EDGE_CURVE('',#159,#160,#96,.T.);
#199=EDGE_CURVE('',#159,#146,#23,.T.);
#200=EDGE_CURVE('',#147,#160,#24,.T.);
#201=EDGE_CURVE('',#161,#162,#97,.T.);
#202=EDGE_CURVE('',#161,#163,#98,.T.);
#203=EDGE_CURVE('',#164,#163,#99,.T.);
#204=EDGE_CURVE('',#162,#164,#100,.T.);
#205=EDGE_CURVE('',#165,#162,#25,.T.);
#206=EDGE_CURVE('',#166,#164,#26,.T.);
#207=EDGE_CURVE('',#165,#166,#101,.T.);
#208=EDGE_CURVE('',#165,#167,#102,.T.);
#209=EDGE_CURVE('',#168,#166,#103,.T.);
#210=EDGE_CURVE('',#167,#168,#104,.T.);
#211=EDGE_CURVE('',#169,#167,#27,.T.);
#212=EDGE_CURVE('',#170,#168,#28,.T.);
#213=EDGE_CURVE('',#169,#170,#105,.T.);
#214=EDGE_CURVE('',#169,#171,#106,.T.);
#215=EDGE_CURVE('',#172,#170,#107,.T.);
#216=EDGE_CURVE('',#171,#172,#108,.T.);
#217=EDGE_CURVE('',#173,#171,#29,.T.);
#218=EDGE_CURVE('',#174,#172,#30,.T.);
#219=EDGE_CURVE('',#173,#174,#109,.T.);
#220=EDGE_CURVE('',#173,#175,#110,.T.);
#221=EDGE_CURVE('',#176,#174,#111,.T.);
#222=EDGE_CURVE('',#175,#176,#112,.T.);
#223=EDGE_CURVE('',#161,#175,#31,.T.);
#224=EDGE_CURVE('',#163,#176,#32,.T.);
#225=ORIENTED_EDGE('',*,*,#177,.T.);
#226=ORIENTED_EDGE('',*,*,#178,.T.);
#227=ORIENTED_EDGE('',*,*,#179,.F.);
#228=ORIENTED_EDGE('',*,*,#180,.F.);
#229=ORIENTED_EDGE('',*,*,#181,.F.);
#230=ORIENTED_EDGE('',*,*,#180,.T.);
#231=ORIENTED_EDGE('',*,*,#182,.F.);
#232=ORIENTED_EDGE('',*,*,#183,.F.);
#233=ORIENTED_EDGE('',*,*,#184,.T.);
#234=ORIENTED_EDGE('',*,*,#183,.T.);
#235=ORIENTED_EDGE('',*,*,#185,.F.);
#236=ORIENTED_EDGE('',*,*,#186,.F.);
#237=ORIENTED_EDGE('',*,*,#187,.F.);
#238=ORIENTED_EDGE('',*,*,#186,.T.);
#239=ORIENTED_EDGE('',*,*,#188,.F.);
#240=ORIENTED_EDGE('',*,*,#189,.F.);
#241=ORIENTED_EDGE('',*,*,#190,.T.);
#242=ORIENTED_EDGE('',*,*,#189,.T.);
#243=ORIENTED_EDGE('',*,*,#191,.F.);
#244=ORIENTED_EDGE('',*,*,#192,.F.);
#245=ORIENTED_EDGE('',*,*,#193,.F.);
#246=ORIENTED_EDGE('',*,*,#192,.T.);
#247=ORIENTED_EDGE('',*,*,#194,.F.);
#248=ORIENTED_EDGE('',*,*,#195,.F.);
#249=ORIENTED_EDGE('',*,*,#196,.T.);
#250=ORIENTED_EDGE('',*,*,#195,.T.);
#251=ORIENTED_EDGE('',*,*,#197,.F.);
#252=ORIENTED_EDGE('',*,*,#198,.F.);
#253=ORIENTED_EDGE('',*,*,#199,.F.);
#254=ORIENTED_EDGE('',*,*,#198,.T.);
#255=ORIENTED_EDGE('',*,*,#200,.F.);
#256=ORIENTED_EDGE('',*,*,#178,.F.);
#257=ORIENTED_EDGE('',*,*,#199,.T.);
#258=ORIENTED_EDGE('',*,*,#177,.F.);
#259=ORIENTED_EDGE('',*,*,#181,.T.);
#260=ORIENTED_EDGE('',*,*,#184,.F.);
#261=ORIENTED_EDGE('',*,*,#187,.T.);
#262=ORIENTED_EDGE('',*,*,#190,.F.);
#263=ORIENTED_EDGE('',*,*,#193,.T.);
#264=ORIENTED_EDGE('',*,*,#196,.F.);
#265=ORIENTED_EDGE('',*,*,#200,.T.);
#266=ORIENTED_EDGE('',*,*,#197,.T.);
#267=ORIENTED_EDGE('',*,*,#194,.T.);
#268=ORIENTED_EDGE('',*,*,#191,.T.);
#269=ORIENTED_EDGE('',*,*,#188,.T.);
#270=ORIENTED_EDGE('',*,*,#185,.T.);
#271=ORIENTED_EDGE('',*,*,#182,.T.);
#272=ORIENTED_EDGE('',*,*,#179,.T.);
#273=ORIENTED_EDGE('',*,*,#201,.F.);
#274=ORIENTED_EDGE('',*,*,#202,.T.);
#275=ORIENTED_EDGE('',*,*,#203,.F.);
#276=ORIENTED_EDGE('',*,*,#204,.F.);
#277=ORIENTED_EDGE('',*,*,#205,.T.);
#278=ORIENTED_EDGE('',*,*,#204,.T.);
#279=ORIENTED_EDGE('',*,*,#206,.F.);
#280=ORIENTED_EDGE('',*,*,#207,.F.);
#281=ORIENTED_EDGE('',*,*,#208,.F.);
#282=ORIENTED_EDGE('',*,*,#207,.T.);
#283=ORIENTED_EDGE('',*,*,#209,.F.);
#284=ORIENTED_EDGE('',*,*,#210,.F.);
#285=ORIENTED_EDGE('',*,*,#211,.T.);
#286=ORIENTED_EDGE('',*,*,#210,.T.);
#287=ORIENTED_EDGE('',*,*,#212,.F.);
#288=ORIENTED_EDGE('',*,*,#213,.F.);
#289=ORIENTED_EDGE('',*,*,#214,.F.);
#290=ORIENTED_EDGE('',*,*,#213,.T.);
#291=ORIENTED_EDGE('',*,*,#215,.F.);
#292=ORIENTED_EDGE('',*,*,#216,.F.);
#293=ORIENTED_EDGE('',*,*,#217,.T.);
#294=ORIENTED_EDGE('',*,*,#216,.T.);
#295=ORIENTED_EDGE('',*,*,#218,.F.);
#296=ORIENTED_EDGE('',*,*,#219,.F.);
#297=ORIENTED_EDGE('',*,*,#220,.F.);
#298=ORIENTED_EDGE('',*,*,#219,.T.);
#299=ORIENTED_EDGE('',*,*,#221,.F.);
#300=ORIENTED_EDGE('',*,*,#222,.F.);
#301=ORIENTED_EDGE('',*,*,#223,.T.);
#302=ORIENTED_EDGE('',*,*,#222,.T.);
#303=ORIENTED_EDGE('',*,*,#224,.F.);
#304=ORIENTED_EDGE('',*,*,#202,.F.);
#305=ORIENTED_EDGE('',*,*,#224,.T.);
#306=ORIENTED_EDGE('',*,*,#221,.T.);
#307=ORIENTED_EDGE('',*,*,#218,.T.);
#308=ORIENTED_EDGE('',*,*,#215,.T.);
#309=ORIENTED_EDGE('',*,*,#212,.T.);
#310=ORIENTED_EDGE('',*,*,#209,.T.);
#311=ORIENTED_EDGE('',*,*,#206,.T.);
#312=ORIENTED_EDGE('',*,*,#203,.T.);
#313=ORIENTED_EDGE('',*,*,#223,.F.);
#314=ORIENTED_EDGE('',*,*,#201,.T.);
#315=ORIENTED_EDGE('',*,*,#205,.F.);
#316=ORIENTED_EDGE('',*,*,#208,.T.);
#317=ORIENTED_EDGE('',*,*,#211,.F.);
#318=ORIENTED_EDGE('',*,*,#214,.T.);
#319=ORIENTED_EDGE('',*,*,#217,.F.);
#320=ORIENTED_EDGE('',*,*,#220,.T.);
#321=PLANE('',#368);
#322=PLANE('',#372);
#323=PLANE('',#376);
#324=PLANE('',#380);
#325=PLANE('',#384);
#326=PLANE('',#385);
#327=PLANE('',#386);
#328=PLANE('',#390);
#329=PLANE('',#394);
#330=PLANE('',#398);
#331=PLANE('',#402);
#332=PLANE('',#403);
#333=ADVANCED_FACE('',(#41),#321,.T.);
#334=ADVANCED_FACE('',(#42),#33,.T.);
#335=ADVANCED_FACE('',(#43),#322,.T.);
#336=ADVANCED_FACE('',(#44),#34,.T.);
#337=ADVANCED_FACE('',(#45),#323,.T.);
#338=ADVANCED_FACE('',(#46),#35,.T.);
#339=ADVANCED_FACE('',(#47),#324,.T.);
#340=ADVANCED_FACE('',(#48),#36,.T.);
#341=ADVANCED_FACE('',(#49),#325,.T.);
#342=ADVANCED_FACE('',(#50),#326,.F.);
#343=ADVANCED_FACE('',(#51),#327,.T.);
#344=ADVANCED_FACE('',(#52),#37,.T.);
#345=ADVANCED_FACE('',(#53),#328,.T.);
#346=ADVANCED_FACE('',(#54),#38,.T.);
#347=ADVANCED_FACE('',(#55),#329,.T.);
#348=ADVANCED_FACE('',(#56),#39,.T.);
#349=ADVANCED_FACE('',(#57),#330,.T.);
#350=ADVANCED_FACE('',(#58),#40,.T.);
#351=ADVANCED_FACE('',(#59),#331,.T.);
#352=ADVANCED_FACE('',(#60),#332,.F.);
#353=CLOSED_SHELL('',(#333,#334,#335,#336,#337,#338,#339,#340,#341,#342));
#354=CLOSED_SHELL('',(#343,#344,#345,#346,#347,#348,#349,#350,#351,#352));
#355=DERIVED_UNIT_ELEMENT(#357,1.);
#356=DERIVED_UNIT_ELEMENT(#616,-3.);
#357=(
MASS_UNIT()
NAMED_UNIT(*)
SI_UNIT(.KILO.,.GRAM.)
);
#358=DERIVED_UNIT((#355,#356));
#359=MEASURE_REPRESENTATION_ITEM('density measure',
POSITIVE_RATIO_MEASURE(7850.),#358);
#360=PROPERTY_DEFINITION_REPRESENTATION(#365,#362);
#361=PROPERTY_DEFINITION_REPRESENTATION(#366,#363);
#362=REPRESENTATION('material name',(#364),#613);
#363=REPRESENTATION('density',(#359),#613);
#364=DESCRIPTIVE_REPRESENTATION_ITEM('Steel','Steel');
#365=PROPERTY_DEFINITION('material property','material name',#623);
#366=PROPERTY_DEFINITION('material property','density of part',#623);
#367=AXIS2_PLACEMENT_3D('',#510,#404,#405);
#368=AXIS2_PLACEMENT_3D('',#511,#406,#407);
#369=AXIS2_PLACEMENT_3D('',#520,#412,#413);
#370=AXIS2_PLACEMENT_3D('',#522,#414,#415);
#371=AXIS2_PLACEMENT_3D('',#524,#416,#417);
#372=AXIS2_PLACEMENT_3D('',#526,#419,#420);
#373=AXIS2_PLACEMENT_3D('',#532,#424,#425);
#374=AXIS2_PLACEMENT_3D('',#534,#426,#427);
#375=AXIS2_PLACEMENT_3D('',#536,#428,#429);
#376=AXIS2_PLACEMENT_3D('',#538,#431,#432);
#377=AXIS2_PLACEMENT_3D('',#544,#436,#437);
#378=AXIS2_PLACEMENT_3D('',#546,#438,#439);
#379=AXIS2_PLACEMENT_3D('',#548,#440,#441);
#380=AXIS2_PLACEMENT_3D('',#550,#443,#444);
#381=AXIS2_PLACEMENT_3D('',#556,#448,#449);
#382=AXIS2_PLACEMENT_3D('',#557,#450,#451);
#383=AXIS2_PLACEMENT_3D('',#558,#452,#453);
#384=AXIS2_PLACEMENT_3D('',#559,#454,#455);
#385=AXIS2_PLACEMENT_3D('',#560,#456,#457);
#386=AXIS2_PLACEMENT_3D('',#561,#458,#459);
#387=AXIS2_PLACEMENT_3D('',#570,#464,#465);
#388=AXIS2_PLACEMENT_3D('',#572,#466,#467);
#389=AXIS2_PLACEMENT_3D('',#574,#468,#469);
#390=AXIS2_PLACEMENT_3D('',#576,#471,#472);
#391=AXIS2_PLACEMENT_3D('',#582,#476,#477);
#392=AXIS2_PLACEMENT_3D('',#584,#478,#479);
#393=AXIS2_PLACEMENT_3D('',#586,#480,#481);
#394=AXIS2_PLACEMENT_3D('',#588,#483,#484);
#395=AXIS2_PLACEMENT_3D('',#594,#488,#489);
#396=AXIS2_PLACEMENT_3D('',#596,#490,#491);
#397=AXIS2_PLACEMENT_3D('',#598,#492,#493);
#398=AXIS2_PLACEMENT_3D('',#600,#495,#496);
#399=AXIS2_PLACEMENT_3D('',#606,#500,#501);
#400=AXIS2_PLACEMENT_3D('',#607,#502,#503);
#401=AXIS2_PLACEMENT_3D('',#608,#504,#505);
#402=AXIS2_PLACEMENT_3D('',#609,#506,#507);
#403=AXIS2_PLACEMENT_3D('',#610,#508,#509);
#404=DIRECTION('axis',(0.,0.,1.));
#405=DIRECTION('refdir',(1.,0.,0.));
#406=DIRECTION('center_axis',(-1.,0.,0.));
#407=DIRECTION('ref_axis',(0.,0.,-1.));
#408=DIRECTION('',(0.,0.,-1.));
#409=DIRECTION('',(0.,-1.,0.));
#410=DIRECTION('',(0.,0.,-1.));
#411=DIRECTION('',(0.,-1.,0.));
#412=DIRECTION('center_axis',(0.,-1.,0.));
#413=DIRECTION('ref_axis',(-1.,0.,0.));
#414=DIRECTION('center_axis',(0.,1.,0.));
#415=DIRECTION('ref_axis',(-1.,0.,0.));
#416=DIRECTION('center_axis',(0.,-1.,0.));
#417=DIRECTION('ref_axis',(-1.,0.,0.));
#418=DIRECTION('',(0.,-1.,0.));
#419=DIRECTION('center_axis',(9.44870659255453E-17,0.,1.));
#420=DIRECTION('ref_axis',(-1.,0.,9.44870659255453E-17));
#421=DIRECTION('',(-1.,0.,9.44870659255453E-17));
#422=DIRECTION('',(-1.,0.,9.44870659255453E-17));
#423=DIRECTION('',(0.,-1.,0.));
#424=DIRECTION('center_axis',(0.,-1.,0.));
#425=DIRECTION('ref_axis',(-6.66133814775098E-15,0.,1.));
#426=DIRECTION('center_axis',(0.,1.,0.));
#427=DIRECTION('ref_axis',(-6.66133814775098E-15,0.,1.));
#428=DIRECTION('center_axis',(0.,-1.,0.));
#429=DIRECTION('ref_axis',(-6.66133814775098E-15,0.,1.));
#430=DIRECTION('',(0.,-1.,0.));
#431=DIRECTION('center_axis',(1.,0.,0.));
#432=DIRECTION('ref_axis',(0.,0.,1.));
#433=DIRECTION('',(0.,0.,1.));
#434=DIRECTION('',(0.,0.,1.));
#435=DIRECTION('',(0.,-1.,0.));
#436=DIRECTION('center_axis',(0.,-1.,0.));
#437=DIRECTION('ref_axis',(1.,0.,2.22044604925032E-15));
#438=DIRECTION('center_axis',(0.,1.,0.));
#439=DIRECTION('ref_axis',(1.,0.,2.22044604925032E-15));
#440=DIRECTION('center_axis',(0.,-1.,0.));
#441=DIRECTION('ref_axis',(1.,0.,2.22044604925032E-15));
#442=DIRECTION('',(0.,-1.,0.));
#443=DIRECTION('center_axis',(0.,0.,-1.));
#444=DIRECTION('ref_axis',(1.,0.,0.));
#445=DIRECTION('',(1.,0.,0.));
#446=DIRECTION('',(1.,0.,0.));
#447=DIRECTION('',(0.,-1.,0.));
#448=DIRECTION('center_axis',(0.,-1.,0.));
#449=DIRECTION('ref_axis',(4.44089209850065E-15,0.,-1.));
#450=DIRECTION('center_axis',(0.,1.,0.));
#451=DIRECTION('ref_axis',(4.44089209850065E-15,0.,-1.));
#452=DIRECTION('center_axis',(0.,-1.,0.));
#453=DIRECTION('ref_axis',(4.44089209850065E-15,0.,-1.));
#454=DIRECTION('center_axis',(0.,1.,0.));
#455=DIRECTION('ref_axis',(1.,0.,0.));
#456=DIRECTION('center_axis',(0.,1.,0.));
#457=DIRECTION('ref_axis',(1.,0.,0.));
#458=DIRECTION('center_axis',(0.,0.,-1.));
#459=DIRECTION('ref_axis',(-1.,0.,0.));
#460=DIRECTION('',(1.,0.,0.));
#461=DIRECTION('',(0.,1.,0.));
#462=DIRECTION('',(-1.,0.,0.));
#463=DIRECTION('',(0.,1.,0.));
#464=DIRECTION('center_axis',(0.,1.,0.));
#465=DIRECTION('ref_axis',(1.,0.,2.22044604925032E-15));
#466=DIRECTION('center_axis',(0.,1.,0.));
#467=DIRECTION('ref_axis',(1.,0.,2.22044604925032E-15));
#468=DIRECTION('center_axis',(0.,1.,0.));
#469=DIRECTION('ref_axis',(1.,0.,2.22044604925032E-15));
#470=DIRECTION('',(0.,1.,0.));
#471=DIRECTION('center_axis',(1.,0.,0.));
#472=DIRECTION('ref_axis',(0.,0.,-1.));
#473=DIRECTION('',(0.,0.,1.));
#474=DIRECTION('',(0.,0.,-1.));
#475=DIRECTION('',(0.,1.,0.));
#476=DIRECTION('center_axis',(0.,1.,0.));
#477=DIRECTION('ref_axis',(-6.66133814775098E-15,0.,1.));
#478=DIRECTION('center_axis',(0.,1.,0.));
#479=DIRECTION('ref_axis',(-6.66133814775098E-15,0.,1.));
#480=DIRECTION('center_axis',(0.,1.,0.));
#481=DIRECTION('ref_axis',(-6.66133814775098E-15,0.,1.));
#482=DIRECTION('',(0.,1.,0.));
#483=DIRECTION('center_axis',(9.44870659255453E-17,0.,1.));
#484=DIRECTION('ref_axis',(1.,0.,-9.44870659255453E-17));
#485=DIRECTION('',(-1.,0.,9.44870659255453E-17));
#486=DIRECTION('',(1.,0.,-9.44870659255453E-17));
#487=DIRECTION('',(0.,1.,0.));
#488=DIRECTION('center_axis',(0.,1.,0.));
#489=DIRECTION('ref_axis',(-1.,0.,0.));
#490=DIRECTION('center_axis',(0.,1.,0.));
#491=DIRECTION('ref_axis',(-1.,0.,0.));
#492=DIRECTION('center_axis',(0.,1.,0.));
#493=DIRECTION('ref_axis',(-1.,0.,0.));
#494=DIRECTION('',(0.,1.,0.));
#495=DIRECTION('center_axis',(-1.,0.,0.));
#496=DIRECTION('ref_axis',(0.,0.,1.));
#497=DIRECTION('',(0.,0.,-1.));
#498=DIRECTION('',(0.,0.,1.));
#499=DIRECTION('',(0.,1.,0.));
#500=DIRECTION('center_axis',(0.,1.,0.));
#501=DIRECTION('ref_axis',(4.44089209850065E-15,0.,-1.));
#502=DIRECTION('center_axis',(0.,1.,0.));
#503=DIRECTION('ref_axis',(4.44089209850065E-15,0.,-1.));
#504=DIRECTION('center_axis',(0.,1.,0.));
#505=DIRECTION('ref_axis',(4.44089209850065E-15,0.,-1.));
#506=DIRECTION('center_axis',(0.,1.,0.));
#507=DIRECTION('ref_axis',(1.,0.,0.));
#508=DIRECTION('center_axis',(0.,1.,0.));
#509=DIRECTION('ref_axis',(1.,0.,0.));
#510=CARTESIAN_POINT('',(0.,0.,0.));
#511=CARTESIAN_POINT('Origin',(-51.,0.,41.));
#512=CARTESIAN_POINT('',(-51.,0.,41.));
#513=CARTESIAN_POINT('',(-51.,0.,-47.));
#514=CARTESIAN_POINT('',(-51.,0.,41.));
#515=CARTESIAN_POINT('',(-51.,-3.2,-47.));
#516=CARTESIAN_POINT('',(-51.,0.,-47.));
#517=CARTESIAN_POINT('',(-51.,-3.2,41.));
#518=CARTESIAN_POINT('',(-51.,-3.2,41.));
#519=CARTESIAN_POINT('',(-51.,0.,41.));
#520=CARTESIAN_POINT('Origin',(-47.,0.,41.));
#521=CARTESIAN_POINT('',(-47.,0.,45.));
#522=CARTESIAN_POINT('Origin',(-47.,0.,41.));
#523=CARTESIAN_POINT('',(-47.,-3.2,45.));
#524=CARTESIAN_POINT('Origin',(-47.,-3.2,41.));
#525=CARTESIAN_POINT('',(-47.,0.,45.));
#526=CARTESIAN_POINT('Origin',(47.,0.,45.));
#527=CARTESIAN_POINT('',(47.,0.,45.));
#528=CARTESIAN_POINT('',(47.,0.,45.));
#529=CARTESIAN_POINT('',(47.,-3.2,45.));
#530=CARTESIAN_POINT('',(47.,-3.2,45.));
#531=CARTESIAN_POINT('',(47.,0.,45.));
#532=CARTESIAN_POINT('Origin',(47.,0.,41.));
#533=CARTESIAN_POINT('',(51.,0.,41.));
#534=CARTESIAN_POINT('Origin',(47.,0.,41.));
#535=CARTESIAN_POINT('',(51.,-3.2,41.));
#536=CARTESIAN_POINT('Origin',(47.,-3.2,41.));
#537=CARTESIAN_POINT('',(51.,0.,41.));
#538=CARTESIAN_POINT('Origin',(51.,0.,-47.));
#539=CARTESIAN_POINT('',(51.,0.,-47.));
#540=CARTESIAN_POINT('',(51.,0.,-47.));
#541=CARTESIAN_POINT('',(51.,-3.2,-47.));
#542=CARTESIAN_POINT('',(51.,-3.2,-47.));
#543=CARTESIAN_POINT('',(51.,0.,-47.));
#544=CARTESIAN_POINT('Origin',(47.,0.,-47.));
#545=CARTESIAN_POINT('',(47.,0.,-51.));
#546=CARTESIAN_POINT('Origin',(47.,0.,-47.));
#547=CARTESIAN_POINT('',(47.,-3.2,-51.));
#548=CARTESIAN_POINT('Origin',(47.,-3.2,-47.));
#549=CARTESIAN_POINT('',(47.,0.,-51.));
#550=CARTESIAN_POINT('Origin',(-47.,0.,-51.));
#551=CARTESIAN_POINT('',(-47.,0.,-51.));
#552=CARTESIAN_POINT('',(-47.,0.,-51.));
#553=CARTESIAN_POINT('',(-47.,-3.2,-51.));
#554=CARTESIAN_POINT('',(-47.,-3.2,-51.));
#555=CARTESIAN_POINT('',(-47.,0.,-51.));
#556=CARTESIAN_POINT('Origin',(-47.,0.,-47.));
#557=CARTESIAN_POINT('Origin',(-47.,0.,-47.));
#558=CARTESIAN_POINT('Origin',(-47.,-3.2,-47.));
#559=CARTESIAN_POINT('Origin',(0.,0.,-3.));
#560=CARTESIAN_POINT('Origin',(0.,-3.2,-3.));
#561=CARTESIAN_POINT('Origin',(47.,0.,-51.));
#562=CARTESIAN_POINT('',(-47.,0.,-51.));
#563=CARTESIAN_POINT('',(47.,0.,-51.));
#564=CARTESIAN_POINT('',(-47.,0.,-51.));
#565=CARTESIAN_POINT('',(-47.,3.2,-51.));
#566=CARTESIAN_POINT('',(-47.,0.,-51.));
#567=CARTESIAN_POINT('',(47.,3.2,-51.));
#568=CARTESIAN_POINT('',(-47.,3.2,-51.));
#569=CARTESIAN_POINT('',(47.,0.,-51.));
#570=CARTESIAN_POINT('Origin',(47.,0.,-47.));
#571=CARTESIAN_POINT('',(51.,0.,-47.));
#572=CARTESIAN_POINT('Origin',(47.,0.,-47.));
#573=CARTESIAN_POINT('',(51.,3.2,-47.));
#574=CARTESIAN_POINT('Origin',(47.,3.2,-47.));
#575=CARTESIAN_POINT('',(51.,0.,-47.));
#576=CARTESIAN_POINT('Origin',(51.,0.,41.));
#577=CARTESIAN_POINT('',(51.,0.,41.));
#578=CARTESIAN_POINT('',(51.,0.,-47.));
#579=CARTESIAN_POINT('',(51.,3.2,41.));
#580=CARTESIAN_POINT('',(51.,3.2,-47.));
#581=CARTESIAN_POINT('',(51.,0.,41.));
#582=CARTESIAN_POINT('Origin',(47.,0.,41.));
#583=CARTESIAN_POINT('',(47.,0.,45.));
#584=CARTESIAN_POINT('Origin',(47.,0.,41.));
#585=CARTESIAN_POINT('',(47.,3.2,45.));
#586=CARTESIAN_POINT('Origin',(47.,3.2,41.));
#587=CARTESIAN_POINT('',(47.,0.,45.));
#588=CARTESIAN_POINT('Origin',(-47.,0.,45.));
#589=CARTESIAN_POINT('',(-47.,0.,45.));
#590=CARTESIAN_POINT('',(47.,0.,45.));
#591=CARTESIAN_POINT('',(-47.,3.2,45.));
#592=CARTESIAN_POINT('',(47.,3.2,45.));
#593=CARTESIAN_POINT('',(-47.,0.,45.));
#594=CARTESIAN_POINT('Origin',(-47.,0.,41.));
#595=CARTESIAN_POINT('',(-51.,0.,41.));
#596=CARTESIAN_POINT('Origin',(-47.,0.,41.));
#597=CARTESIAN_POINT('',(-51.,3.2,41.));
#598=CARTESIAN_POINT('Origin',(-47.,3.2,41.));
#599=CARTESIAN_POINT('',(-51.,0.,41.));
#600=CARTESIAN_POINT('Origin',(-51.,0.,-47.));
#601=CARTESIAN_POINT('',(-51.,0.,-47.));
#602=CARTESIAN_POINT('',(-51.,0.,41.));
#603=CARTESIAN_POINT('',(-51.,3.2,-47.));
#604=CARTESIAN_POINT('',(-51.,3.2,41.));
#605=CARTESIAN_POINT('',(-51.,0.,-47.));
#606=CARTESIAN_POINT('Origin',(-47.,0.,-47.));
#607=CARTESIAN_POINT('Origin',(-47.,0.,-47.));
#608=CARTESIAN_POINT('Origin',(-47.,3.2,-47.));
#609=CARTESIAN_POINT('Origin',(0.,3.2,-3.));
#610=CARTESIAN_POINT('Origin',(0.,0.,-3.));
#611=UNCERTAINTY_MEASURE_WITH_UNIT(LENGTH_MEASURE(0.01),#615,
'DISTANCE_ACCURACY_VALUE',
'Maximum model space distance between geometric entities at asserted c
onnectivities');
#612=UNCERTAINTY_MEASURE_WITH_UNIT(LENGTH_MEASURE(0.01),#615,
'DISTANCE_ACCURACY_VALUE',
'Maximum model space distance between geometric entities at asserted c
onnectivities');
#613=(
GEOMETRIC_REPRESENTATION_CONTEXT(3)
GLOBAL_UNCERTAINTY_ASSIGNED_CONTEXT((#611))
GLOBAL_UNIT_ASSIGNED_CONTEXT((#615,#617,#618))
REPRESENTATION_CONTEXT('','3D')
);
#614=(
GEOMETRIC_REPRESENTATION_CONTEXT(3)
GLOBAL_UNCERTAINTY_ASSIGNED_CONTEXT((#612))
GLOBAL_UNIT_ASSIGNED_CONTEXT((#615,#617,#618))
REPRESENTATION_CONTEXT('','3D')
);
#615=(
LENGTH_UNIT()
NAMED_UNIT(*)
SI_UNIT(.MILLI.,.METRE.)
);
#616=(
LENGTH_UNIT()
NAMED_UNIT(*)
SI_UNIT($,.METRE.)
);
#617=(
NAMED_UNIT(*)
PLANE_ANGLE_UNIT()
SI_UNIT($,.RADIAN.)
);
#618=(
NAMED_UNIT(*)
SI_UNIT($,.STERADIAN.)
SOLID_ANGLE_UNIT()
);
#619=SHAPE_DEFINITION_REPRESENTATION(#620,#621);
#620=PRODUCT_DEFINITION_SHAPE('',$,#623);
#621=SHAPE_REPRESENTATION('',(#367),#613);
#622=PRODUCT_DEFINITION_CONTEXT('part definition',#627,'design');
#623=PRODUCT_DEFINITION('2026-07-20-17-26-26-967',
'AP102 Solid for 3D Printing',#624,#622);
#624=PRODUCT_DEFINITION_FORMATION('',$,#629);
#625=PRODUCT_RELATED_PRODUCT_CATEGORY('AP102 Solid for 3D Printing',
'AP102 Solid for 3D Printing',(#629));
#626=APPLICATION_PROTOCOL_DEFINITION('international standard',
'automotive_design',2009,#627);
#627=APPLICATION_CONTEXT(
'Core Data for Automotive Mechanical Design Process');
#628=PRODUCT_CONTEXT('part definition',#627,'mechanical');
#629=PRODUCT('2026-07-20-17-26-26-967','AP102 Solid for 3D Printing',$,
(#628));
#630=PRESENTATION_STYLE_ASSIGNMENT((#631));
#631=SURFACE_STYLE_USAGE(.BOTH.,#632);
#632=SURFACE_SIDE_STYLE('',(#633));
#633=SURFACE_STYLE_FILL_AREA(#634);
#634=FILL_AREA_STYLE('Steel - Satin',(#635));
#635=FILL_AREA_STYLE_COLOUR('Steel - Satin',#636);
#636=COLOUR_RGB('Steel - Satin',0.627450980392157,0.627450980392157,0.627450980392157);
ENDSEC;
END-ISO-10303-21;
