<?xml version="1.0" encoding="UTF-8"?><svg id="Layer_5" xmlns="http://www.w3.org/2000/svg" viewBox="0 0 229.61 121.89"><defs><style>.cls-1{stroke-width:0px;}</style></defs><path class="cls-1" d="M212.6,8.5H14.17C6.38,8.5,0,14.88,0,22.68v85.04c0,7.8,6.38,14.17,14.17,14.17h198.43c7.8,0,14.17-6.38,14.17-14.17V22.68c0-7.8-6.38-14.17-14.17-14.17ZM34.16,61.65c-.72-6.51.42-16.67,1.53-26.55.74-6.62,1.5-13.41,1.77-19.52h24.15c-1.33,8.08-2.09,17.35-2.77,25.71-.63,7.75-1.23,15.14-2.18,20.36h-22.49ZM167.16,47.16c-.46,5.18-.89,10.12-1.2,14.49h-49.32c-1.71-21.15-.09-29.21,1.94-39.28.43-2.15.88-4.36,1.31-6.79h49.42c-.24,9.92-1.25,21.34-2.16,31.57ZM111.63,20.98c-2.04,10.11-3.81,18.92-2.1,40.68h-45.69c.89-5.45,1.46-12.46,2.05-19.78.7-8.63,1.48-18.25,2.88-26.28h43.91c-.35,1.88-.7,3.66-1.05,5.39ZM45.53,97.72c.4-9.3.84-19.65-1.21-28.98h40.54c2.45,15.59,4.42,35.14,3.03,46.06h-42.38c-.48-4.98-.24-10.88.03-17.08ZM92.02,68.74h32.68c-.25,14.52,1.72,32.4,4.13,46.06h-33.82c1.49-13.83-1.45-36.01-2.98-46.06ZM131.79,68.74h43.25v46.06h-39.01c-2.46-13.47-4.51-31.58-4.24-46.06ZM173.06,61.65c.3-4.18.72-8.92,1.15-13.87.92-10.4,1.94-22.01,2.19-32.2h21.91c2.02,15.05,2.05,35.07.07,46.06h-25.32ZM7.09,22.68c0-3.91,3.18-7.09,7.09-7.09h16.19c-.27,5.79-1,12.34-1.71,18.72-1.16,10.28-2.25,20.08-1.6,27.34H7.09V22.68ZM7.09,107.72v-38.98h29.94c2.27,8.69,1.84,18.83,1.42,28.68-.27,6.18-.52,12.09-.07,17.39H14.17c-3.91,0-7.09-3.18-7.09-7.09ZM219.68,107.72c0,3.91-3.18,7.09-7.09,7.09h-30.47v-46.06h37.56v38.98ZM219.68,61.65h-14.12c1.86-11.76,1.83-30.92-.11-46.06h7.14c3.91,0,7.09,3.18,7.09,7.09v38.98Z"/></svg>