ISO-10303-21;
HEADER;
/* Generated by software containing ST-Developer
 * from STEP Tools, Inc. (www.steptools.com) 
 */

FILE_DESCRIPTION(
/* description */ (''),
/* implementation_level */ '2;1');

FILE_NAME(
/* name */ 'modblock-cap.step',
/* time_stamp */ '2026-08-03T08:25:57-07:00',
/* author */ (''),
/* organization */ (''),
/* preprocessor_version */ 'ST-DEVELOPER v20.1',
/* originating_system */ 'Autodesk Translation Framework v15.8.0.0',
/* authorisation */ '');

FILE_SCHEMA (('AUTOMOTIVE_DESIGN { 1 0 10303 214 3 1 1 }'));
ENDSEC;

DATA;
#10=MECHANICAL_DESIGN_GEOMETRIC_PRESENTATION_REPRESENTATION('',(#13),#1038);
#11=SHAPE_REPRESENTATION_RELATIONSHIP('SRR','None',#1044,#12);
#12=ADVANCED_BREP_SHAPE_REPRESENTATION('',(#14),#1037);
#13=STYLED_ITEM('',(#1054),#14);
#14=MANIFOLD_SOLID_BREP('Body1',#630);
#15=CYLINDRICAL_SURFACE('',#645,8.);
#16=CYLINDRICAL_SURFACE('',#649,8.);
#17=CYLINDRICAL_SURFACE('',#653,8.);
#18=CYLINDRICAL_SURFACE('',#657,8.);
#19=CYLINDRICAL_SURFACE('',#663,8.);
#20=CYLINDRICAL_SURFACE('',#670,8.);
#21=CYLINDRICAL_SURFACE('',#672,8.);
#22=CYLINDRICAL_SURFACE('',#674,8.);
#23=CYLINDRICAL_SURFACE('',#675,13.25);
#24=FACE_BOUND('',#88,.T.);
#25=FACE_BOUND('',#98,.T.);
#26=FACE_BOUND('',#102,.T.);
#27=FACE_BOUND('',#115,.T.);
#28=CIRCLE('',#641,8.);
#29=CIRCLE('',#642,8.);
#30=CIRCLE('',#643,8.);
#31=CIRCLE('',#644,8.);
#32=CIRCLE('',#646,8.);
#33=CIRCLE('',#647,8.);
#34=CIRCLE('',#650,8.);
#35=CIRCLE('',#651,8.);
#36=CIRCLE('',#654,8.);
#37=CIRCLE('',#655,8.);
#38=CIRCLE('',#658,8.);
#39=CIRCLE('',#659,8.);
#40=CIRCLE('',#662,13.25);
#41=CIRCLE('',#664,8.);
#42=CIRCLE('',#667,8.);
#43=CIRCLE('',#668,8.);
#44=CIRCLE('',#669,8.);
#45=CIRCLE('',#676,13.25);
#46=FACE_OUTER_BOUND('',#79,.T.);
#47=FACE_OUTER_BOUND('',#80,.T.);
#48=FACE_OUTER_BOUND('',#81,.T.);
#49=FACE_OUTER_BOUND('',#82,.T.);
#50=FACE_OUTER_BOUND('',#83,.T.);
#51=FACE_OUTER_BOUND('',#84,.T.);
#52=FACE_OUTER_BOUND('',#85,.T.);
#53=FACE_OUTER_BOUND('',#86,.T.);
#54=FACE_OUTER_BOUND('',#87,.T.);
#55=FACE_OUTER_BOUND('',#89,.T.);
#56=FACE_OUTER_BOUND('',#90,.T.);
#57=FACE_OUTER_BOUND('',#91,.T.);
#58=FACE_OUTER_BOUND('',#92,.T.);
#59=FACE_OUTER_BOUND('',#93,.T.);
#60=FACE_OUTER_BOUND('',#94,.T.);
#61=FACE_OUTER_BOUND('',#95,.T.);
#62=FACE_OUTER_BOUND('',#96,.T.);
#63=FACE_OUTER_BOUND('',#97,.T.);
#64=FACE_OUTER_BOUND('',#99,.T.);
#65=FACE_OUTER_BOUND('',#100,.T.);
#66=FACE_OUTER_BOUND('',#101,.T.);
#67=FACE_OUTER_BOUND('',#103,.T.);
#68=FACE_OUTER_BOUND('',#104,.T.);
#69=FACE_OUTER_BOUND('',#105,.T.);
#70=FACE_OUTER_BOUND('',#106,.T.);
#71=FACE_OUTER_BOUND('',#107,.T.);
#72=FACE_OUTER_BOUND('',#108,.T.);
#73=FACE_OUTER_BOUND('',#109,.T.);
#74=FACE_OUTER_BOUND('',#110,.T.);
#75=FACE_OUTER_BOUND('',#111,.T.);
#76=FACE_OUTER_BOUND('',#112,.T.);
#77=FACE_OUTER_BOUND('',#113,.T.);
#78=FACE_OUTER_BOUND('',#114,.T.);
#79=EDGE_LOOP('',(#399,#400,#401,#402));
#80=EDGE_LOOP('',(#403,#404,#405,#406));
#81=EDGE_LOOP('',(#407,#408,#409,#410));
#82=EDGE_LOOP('',(#411,#412,#413,#414));
#83=EDGE_LOOP('',(#415,#416,#417,#418));
#84=EDGE_LOOP('',(#419,#420,#421,#422));
#85=EDGE_LOOP('',(#423,#424,#425,#426));
#86=EDGE_LOOP('',(#427,#428,#429,#430));
#87=EDGE_LOOP('',(#431,#432,#433,#434));
#88=EDGE_LOOP('',(#435,#436,#437,#438,#439,#440,#441,#442,#443,#444,#445,
#446,#447,#448,#449,#450));
#89=EDGE_LOOP('',(#451,#452,#453,#454));
#90=EDGE_LOOP('',(#455,#456,#457,#458));
#91=EDGE_LOOP('',(#459,#460,#461,#462));
#92=EDGE_LOOP('',(#463,#464,#465,#466));
#93=EDGE_LOOP('',(#467,#468,#469,#470));
#94=EDGE_LOOP('',(#471,#472,#473,#474));
#95=EDGE_LOOP('',(#475,#476,#477,#478));
#96=EDGE_LOOP('',(#479,#480,#481,#482));
#97=EDGE_LOOP('',(#483,#484,#485,#486,#487,#488,#489,#490));
#98=EDGE_LOOP('',(#491));
#99=EDGE_LOOP('',(#492,#493,#494,#495));
#100=EDGE_LOOP('',(#496,#497,#498,#499,#500,#501,#502,#503));
#101=EDGE_LOOP('',(#504,#505,#506,#507,#508,#509,#510,#511));
#102=EDGE_LOOP('',(#512,#513,#514,#515,#516,#517,#518,#519));
#103=EDGE_LOOP('',(#520,#521,#522,#523));
#104=EDGE_LOOP('',(#524,#525,#526,#527));
#105=EDGE_LOOP('',(#528,#529,#530,#531));
#106=EDGE_LOOP('',(#532,#533,#534,#535,#536,#537,#538,#539));
#107=EDGE_LOOP('',(#540,#541,#542,#543));
#108=EDGE_LOOP('',(#544,#545,#546,#547));
#109=EDGE_LOOP('',(#548,#549,#550,#551));
#110=EDGE_LOOP('',(#552,#553,#554,#555));
#111=EDGE_LOOP('',(#556,#557,#558,#559));
#112=EDGE_LOOP('',(#560,#561,#562,#563));
#113=EDGE_LOOP('',(#564,#565,#566,#567));
#114=EDGE_LOOP('',(#568,#569,#570,#571));
#115=EDGE_LOOP('',(#572));
#116=LINE('',#860,#185);
#117=LINE('',#862,#186);
#118=LINE('',#864,#187);
#119=LINE('',#865,#188);
#120=LINE('',#868,#189);
#121=LINE('',#870,#190);
#122=LINE('',#871,#191);
#123=LINE('',#874,#192);
#124=LINE('',#876,#193);
#125=LINE('',#877,#194);
#126=LINE('',#879,#195);
#127=LINE('',#883,#196);
#128=LINE('',#885,#197);
#129=LINE('',#887,#198);
#130=LINE('',#888,#199);
#131=LINE('',#892,#200);
#132=LINE('',#894,#201);
#133=LINE('',#896,#202);
#134=LINE('',#897,#203);
#135=LINE('',#899,#204);
#136=LINE('',#900,#205);
#137=LINE('',#902,#206);
#138=LINE('',#906,#207);
#139=LINE('',#908,#208);
#140=LINE('',#910,#209);
#141=LINE('',#911,#210);
#142=LINE('',#913,#211);
#143=LINE('',#915,#212);
#144=LINE('',#919,#213);
#145=LINE('',#922,#214);
#146=LINE('',#924,#215);
#147=LINE('',#928,#216);
#148=LINE('',#935,#217);
#149=LINE('',#938,#218);
#150=LINE('',#941,#219);
#151=LINE('',#943,#220);
#152=LINE('',#944,#221);
#153=LINE('',#950,#222);
#154=LINE('',#953,#223);
#155=LINE('',#955,#224);
#156=LINE('',#956,#225);
#157=LINE('',#962,#226);
#158=LINE('',#965,#227);
#159=LINE('',#967,#228);
#160=LINE('',#968,#229);
#161=LINE('',#974,#230);
#162=LINE('',#976,#231);
#163=LINE('',#977,#232);
#164=LINE('',#985,#233);
#165=LINE('',#986,#234);
#166=LINE('',#989,#235);
#167=LINE('',#990,#236);
#168=LINE('',#993,#237);
#169=LINE('',#997,#238);
#170=LINE('',#1001,#239);
#171=LINE('',#1004,#240);
#172=LINE('',#1006,#241);
#173=LINE('',#1008,#242);
#174=LINE('',#1010,#243);
#175=LINE('',#1012,#244);
#176=LINE('',#1016,#245);
#177=LINE('',#1020,#246);
#178=LINE('',#1022,#247);
#179=LINE('',#1023,#248);
#180=LINE('',#1026,#249);
#181=LINE('',#1027,#250);
#182=LINE('',#1030,#251);
#183=LINE('',#1031,#252);
#184=LINE('',#1033,#253);
#185=VECTOR('',#687,10.);
#186=VECTOR('',#688,10.);
#187=VECTOR('',#689,10.);
#188=VECTOR('',#690,10.);
#189=VECTOR('',#693,10.);
#190=VECTOR('',#694,10.);
#191=VECTOR('',#695,10.);
#192=VECTOR('',#698,10.);
#193=VECTOR('',#699,10.);
#194=VECTOR('',#700,10.);
#195=VECTOR('',#703,10.);
#196=VECTOR('',#706,10.);
#197=VECTOR('',#707,10.);
#198=VECTOR('',#708,10.);
#199=VECTOR('',#709,10.);
#200=VECTOR('',#712,10.);
#201=VECTOR('',#713,10.);
#202=VECTOR('',#714,10.);
#203=VECTOR('',#715,10.);
#204=VECTOR('',#718,10.);
#205=VECTOR('',#719,10.);
#206=VECTOR('',#722,10.);
#207=VECTOR('',#725,10.);
#208=VECTOR('',#726,10.);
#209=VECTOR('',#727,10.);
#210=VECTOR('',#728,10.);
#211=VECTOR('',#729,10.);
#212=VECTOR('',#730,10.);
#213=VECTOR('',#733,10.);
#214=VECTOR('',#736,10.);
#215=VECTOR('',#737,10.);
#216=VECTOR('',#740,10.);
#217=VECTOR('',#747,10.);
#218=VECTOR('',#750,10.);
#219=VECTOR('',#753,10.);
#220=VECTOR('',#754,10.);
#221=VECTOR('',#755,10.);
#222=VECTOR('',#760,10.);
#223=VECTOR('',#763,10.);
#224=VECTOR('',#766,10.);
#225=VECTOR('',#767,10.);
#226=VECTOR('',#772,10.);
#227=VECTOR('',#775,10.);
#228=VECTOR('',#778,10.);
#229=VECTOR('',#779,10.);
#230=VECTOR('',#786,10.);
#231=VECTOR('',#789,10.);
#232=VECTOR('',#790,10.);
#233=VECTOR('',#799,10.);
#234=VECTOR('',#800,10.);
#235=VECTOR('',#803,10.);
#236=VECTOR('',#804,10.);
#237=VECTOR('',#807,10.);
#238=VECTOR('',#810,10.);
#239=VECTOR('',#813,10.);
#240=VECTOR('',#818,10.);
#241=VECTOR('',#821,10.);
#242=VECTOR('',#824,10.);
#243=VECTOR('',#827,10.);
#244=VECTOR('',#830,10.);
#245=VECTOR('',#835,13.25);
#246=VECTOR('',#840,10.);
#247=VECTOR('',#841,10.);
#248=VECTOR('',#842,10.);
#249=VECTOR('',#845,10.);
#250=VECTOR('',#846,10.);
#251=VECTOR('',#849,10.);
#252=VECTOR('',#850,10.);
#253=VECTOR('',#853,10.);
#254=VERTEX_POINT('',#858);
#255=VERTEX_POINT('',#859);
#256=VERTEX_POINT('',#861);
#257=VERTEX_POINT('',#863);
#258=VERTEX_POINT('',#867);
#259=VERTEX_POINT('',#869);
#260=VERTEX_POINT('',#873);
#261=VERTEX_POINT('',#875);
#262=VERTEX_POINT('',#881);
#263=VERTEX_POINT('',#882);
#264=VERTEX_POINT('',#884);
#265=VERTEX_POINT('',#886);
#266=VERTEX_POINT('',#890);
#267=VERTEX_POINT('',#891);
#268=VERTEX_POINT('',#893);
#269=VERTEX_POINT('',#895);
#270=VERTEX_POINT('',#904);
#271=VERTEX_POINT('',#905);
#272=VERTEX_POINT('',#907);
#273=VERTEX_POINT('',#909);
#274=VERTEX_POINT('',#912);
#275=VERTEX_POINT('',#914);
#276=VERTEX_POINT('',#916);
#277=VERTEX_POINT('',#918);
#278=VERTEX_POINT('',#920);
#279=VERTEX_POINT('',#923);
#280=VERTEX_POINT('',#925);
#281=VERTEX_POINT('',#927);
#282=VERTEX_POINT('',#931);
#283=VERTEX_POINT('',#932);
#284=VERTEX_POINT('',#934);
#285=VERTEX_POINT('',#936);
#286=VERTEX_POINT('',#940);
#287=VERTEX_POINT('',#942);
#288=VERTEX_POINT('',#946);
#289=VERTEX_POINT('',#947);
#290=VERTEX_POINT('',#949);
#291=VERTEX_POINT('',#951);
#292=VERTEX_POINT('',#958);
#293=VERTEX_POINT('',#959);
#294=VERTEX_POINT('',#961);
#295=VERTEX_POINT('',#963);
#296=VERTEX_POINT('',#970);
#297=VERTEX_POINT('',#972);
#298=VERTEX_POINT('',#979);
#299=VERTEX_POINT('',#982);
#300=VERTEX_POINT('',#983);
#301=VERTEX_POINT('',#988);
#302=VERTEX_POINT('',#992);
#303=VERTEX_POINT('',#994);
#304=VERTEX_POINT('',#996);
#305=VERTEX_POINT('',#998);
#306=VERTEX_POINT('',#1000);
#307=VERTEX_POINT('',#1014);
#308=VERTEX_POINT('',#1019);
#309=VERTEX_POINT('',#1021);
#310=VERTEX_POINT('',#1025);
#311=VERTEX_POINT('',#1029);
#312=EDGE_CURVE('',#254,#255,#116,.T.);
#313=EDGE_CURVE('',#254,#256,#117,.T.);
#314=EDGE_CURVE('',#256,#257,#118,.T.);
#315=EDGE_CURVE('',#255,#257,#119,.T.);
#316=EDGE_CURVE('',#258,#254,#120,.T.);
#317=EDGE_CURVE('',#258,#259,#121,.T.);
#318=EDGE_CURVE('',#259,#256,#122,.T.);
#319=EDGE_CURVE('',#260,#258,#123,.T.);
#320=EDGE_CURVE('',#260,#261,#124,.T.);
#321=EDGE_CURVE('',#261,#259,#125,.T.);
#322=EDGE_CURVE('',#257,#261,#126,.T.);
#323=EDGE_CURVE('',#262,#263,#127,.T.);
#324=EDGE_CURVE('',#262,#264,#128,.T.);
#325=EDGE_CURVE('',#264,#265,#129,.T.);
#326=EDGE_CURVE('',#263,#265,#130,.T.);
#327=EDGE_CURVE('',#266,#267,#131,.T.);
#328=EDGE_CURVE('',#266,#268,#132,.T.);
#329=EDGE_CURVE('',#268,#269,#133,.T.);
#330=EDGE_CURVE('',#267,#269,#134,.T.);
#331=EDGE_CURVE('',#263,#266,#135,.T.);
#332=EDGE_CURVE('',#265,#268,#136,.T.);
#333=EDGE_CURVE('',#269,#264,#137,.T.);
#334=EDGE_CURVE('',#270,#271,#138,.T.);
#335=EDGE_CURVE('',#271,#272,#139,.T.);
#336=EDGE_CURVE('',#272,#273,#140,.T.);
#337=EDGE_CURVE('',#273,#270,#141,.T.);
#338=EDGE_CURVE('',#274,#260,#142,.T.);
#339=EDGE_CURVE('',#255,#275,#143,.T.);
#340=EDGE_CURVE('',#276,#275,#28,.F.);
#341=EDGE_CURVE('',#276,#277,#144,.T.);
#342=EDGE_CURVE('',#278,#277,#29,.F.);
#343=EDGE_CURVE('',#278,#262,#145,.T.);
#344=EDGE_CURVE('',#267,#279,#146,.T.);
#345=EDGE_CURVE('',#280,#279,#30,.F.);
#346=EDGE_CURVE('',#280,#281,#147,.T.);
#347=EDGE_CURVE('',#274,#281,#31,.F.);
#348=EDGE_CURVE('',#282,#283,#32,.T.);
#349=EDGE_CURVE('',#282,#284,#148,.T.);
#350=EDGE_CURVE('',#284,#285,#33,.T.);
#351=EDGE_CURVE('',#285,#283,#149,.T.);
#352=EDGE_CURVE('',#286,#285,#150,.T.);
#353=EDGE_CURVE('',#287,#286,#151,.T.);
#354=EDGE_CURVE('',#287,#283,#152,.T.);
#355=EDGE_CURVE('',#288,#289,#34,.T.);
#356=EDGE_CURVE('',#288,#290,#153,.T.);
#357=EDGE_CURVE('',#290,#291,#35,.T.);
#358=EDGE_CURVE('',#291,#289,#154,.T.);
#359=EDGE_CURVE('',#282,#289,#155,.T.);
#360=EDGE_CURVE('',#284,#291,#156,.T.);
#361=EDGE_CURVE('',#292,#293,#36,.T.);
#362=EDGE_CURVE('',#292,#294,#157,.T.);
#363=EDGE_CURVE('',#294,#295,#37,.T.);
#364=EDGE_CURVE('',#295,#293,#158,.T.);
#365=EDGE_CURVE('',#288,#293,#159,.T.);
#366=EDGE_CURVE('',#290,#295,#160,.T.);
#367=EDGE_CURVE('',#287,#296,#38,.T.);
#368=EDGE_CURVE('',#286,#297,#39,.T.);
#369=EDGE_CURVE('',#297,#296,#161,.T.);
#370=EDGE_CURVE('',#292,#296,#162,.T.);
#371=EDGE_CURVE('',#294,#297,#163,.T.);
#372=EDGE_CURVE('',#298,#298,#40,.T.);
#373=EDGE_CURVE('',#299,#300,#41,.T.);
#374=EDGE_CURVE('',#300,#274,#164,.T.);
#375=EDGE_CURVE('',#281,#299,#165,.T.);
#376=EDGE_CURVE('',#301,#300,#166,.T.);
#377=EDGE_CURVE('',#275,#301,#167,.T.);
#378=EDGE_CURVE('',#299,#302,#168,.T.);
#379=EDGE_CURVE('',#303,#302,#42,.T.);
#380=EDGE_CURVE('',#303,#304,#169,.T.);
#381=EDGE_CURVE('',#305,#304,#43,.T.);
#382=EDGE_CURVE('',#305,#306,#170,.T.);
#383=EDGE_CURVE('',#301,#306,#44,.T.);
#384=EDGE_CURVE('',#306,#276,#171,.T.);
#385=EDGE_CURVE('',#277,#305,#172,.T.);
#386=EDGE_CURVE('',#304,#278,#173,.T.);
#387=EDGE_CURVE('',#279,#303,#174,.T.);
#388=EDGE_CURVE('',#302,#280,#175,.T.);
#389=EDGE_CURVE('',#307,#307,#45,.T.);
#390=EDGE_CURVE('',#307,#298,#176,.T.);
#391=EDGE_CURVE('',#271,#308,#177,.T.);
#392=EDGE_CURVE('',#309,#308,#178,.T.);
#393=EDGE_CURVE('',#272,#309,#179,.T.);
#394=EDGE_CURVE('',#310,#309,#180,.T.);
#395=EDGE_CURVE('',#273,#310,#181,.T.);
#396=EDGE_CURVE('',#311,#310,#182,.T.);
#397=EDGE_CURVE('',#270,#311,#183,.T.);
#398=EDGE_CURVE('',#308,#311,#184,.T.);
#399=ORIENTED_EDGE('',*,*,#312,.F.);
#400=ORIENTED_EDGE('',*,*,#313,.T.);
#401=ORIENTED_EDGE('',*,*,#314,.T.);
#402=ORIENTED_EDGE('',*,*,#315,.F.);
#403=ORIENTED_EDGE('',*,*,#316,.F.);
#404=ORIENTED_EDGE('',*,*,#317,.T.);
#405=ORIENTED_EDGE('',*,*,#318,.T.);
#406=ORIENTED_EDGE('',*,*,#313,.F.);
#407=ORIENTED_EDGE('',*,*,#319,.F.);
#408=ORIENTED_EDGE('',*,*,#320,.T.);
#409=ORIENTED_EDGE('',*,*,#321,.T.);
#410=ORIENTED_EDGE('',*,*,#317,.F.);
#411=ORIENTED_EDGE('',*,*,#322,.F.);
#412=ORIENTED_EDGE('',*,*,#314,.F.);
#413=ORIENTED_EDGE('',*,*,#318,.F.);
#414=ORIENTED_EDGE('',*,*,#321,.F.);
#415=ORIENTED_EDGE('',*,*,#323,.F.);
#416=ORIENTED_EDGE('',*,*,#324,.T.);
#417=ORIENTED_EDGE('',*,*,#325,.T.);
#418=ORIENTED_EDGE('',*,*,#326,.F.);
#419=ORIENTED_EDGE('',*,*,#327,.F.);
#420=ORIENTED_EDGE('',*,*,#328,.T.);
#421=ORIENTED_EDGE('',*,*,#329,.T.);
#422=ORIENTED_EDGE('',*,*,#330,.F.);
#423=ORIENTED_EDGE('',*,*,#331,.F.);
#424=ORIENTED_EDGE('',*,*,#326,.T.);
#425=ORIENTED_EDGE('',*,*,#332,.T.);
#426=ORIENTED_EDGE('',*,*,#328,.F.);
#427=ORIENTED_EDGE('',*,*,#332,.F.);
#428=ORIENTED_EDGE('',*,*,#325,.F.);
#429=ORIENTED_EDGE('',*,*,#333,.F.);
#430=ORIENTED_EDGE('',*,*,#329,.F.);
#431=ORIENTED_EDGE('',*,*,#334,.T.);
#432=ORIENTED_EDGE('',*,*,#335,.T.);
#433=ORIENTED_EDGE('',*,*,#336,.T.);
#434=ORIENTED_EDGE('',*,*,#337,.T.);
#435=ORIENTED_EDGE('',*,*,#338,.T.);
#436=ORIENTED_EDGE('',*,*,#319,.T.);
#437=ORIENTED_EDGE('',*,*,#316,.T.);
#438=ORIENTED_EDGE('',*,*,#312,.T.);
#439=ORIENTED_EDGE('',*,*,#339,.T.);
#440=ORIENTED_EDGE('',*,*,#340,.F.);
#441=ORIENTED_EDGE('',*,*,#341,.T.);
#442=ORIENTED_EDGE('',*,*,#342,.F.);
#443=ORIENTED_EDGE('',*,*,#343,.T.);
#444=ORIENTED_EDGE('',*,*,#323,.T.);
#445=ORIENTED_EDGE('',*,*,#331,.T.);
#446=ORIENTED_EDGE('',*,*,#327,.T.);
#447=ORIENTED_EDGE('',*,*,#344,.T.);
#448=ORIENTED_EDGE('',*,*,#345,.F.);
#449=ORIENTED_EDGE('',*,*,#346,.T.);
#450=ORIENTED_EDGE('',*,*,#347,.F.);
#451=ORIENTED_EDGE('',*,*,#348,.F.);
#452=ORIENTED_EDGE('',*,*,#349,.T.);
#453=ORIENTED_EDGE('',*,*,#350,.T.);
#454=ORIENTED_EDGE('',*,*,#351,.T.);
#455=ORIENTED_EDGE('',*,*,#351,.F.);
#456=ORIENTED_EDGE('',*,*,#352,.F.);
#457=ORIENTED_EDGE('',*,*,#353,.F.);
#458=ORIENTED_EDGE('',*,*,#354,.T.);
#459=ORIENTED_EDGE('',*,*,#355,.F.);
#460=ORIENTED_EDGE('',*,*,#356,.T.);
#461=ORIENTED_EDGE('',*,*,#357,.T.);
#462=ORIENTED_EDGE('',*,*,#358,.T.);
#463=ORIENTED_EDGE('',*,*,#349,.F.);
#464=ORIENTED_EDGE('',*,*,#359,.T.);
#465=ORIENTED_EDGE('',*,*,#358,.F.);
#466=ORIENTED_EDGE('',*,*,#360,.F.);
#467=ORIENTED_EDGE('',*,*,#361,.F.);
#468=ORIENTED_EDGE('',*,*,#362,.T.);
#469=ORIENTED_EDGE('',*,*,#363,.T.);
#470=ORIENTED_EDGE('',*,*,#364,.T.);
#471=ORIENTED_EDGE('',*,*,#356,.F.);
#472=ORIENTED_EDGE('',*,*,#365,.T.);
#473=ORIENTED_EDGE('',*,*,#364,.F.);
#474=ORIENTED_EDGE('',*,*,#366,.F.);
#475=ORIENTED_EDGE('',*,*,#367,.F.);
#476=ORIENTED_EDGE('',*,*,#353,.T.);
#477=ORIENTED_EDGE('',*,*,#368,.T.);
#478=ORIENTED_EDGE('',*,*,#369,.T.);
#479=ORIENTED_EDGE('',*,*,#362,.F.);
#480=ORIENTED_EDGE('',*,*,#370,.T.);
#481=ORIENTED_EDGE('',*,*,#369,.F.);
#482=ORIENTED_EDGE('',*,*,#371,.F.);
#483=ORIENTED_EDGE('',*,*,#348,.T.);
#484=ORIENTED_EDGE('',*,*,#354,.F.);
#485=ORIENTED_EDGE('',*,*,#367,.T.);
#486=ORIENTED_EDGE('',*,*,#370,.F.);
#487=ORIENTED_EDGE('',*,*,#361,.T.);
#488=ORIENTED_EDGE('',*,*,#365,.F.);
#489=ORIENTED_EDGE('',*,*,#355,.T.);
#490=ORIENTED_EDGE('',*,*,#359,.F.);
#491=ORIENTED_EDGE('',*,*,#372,.F.);
#492=ORIENTED_EDGE('',*,*,#373,.T.);
#493=ORIENTED_EDGE('',*,*,#374,.T.);
#494=ORIENTED_EDGE('',*,*,#347,.T.);
#495=ORIENTED_EDGE('',*,*,#375,.T.);
#496=ORIENTED_EDGE('',*,*,#374,.F.);
#497=ORIENTED_EDGE('',*,*,#376,.F.);
#498=ORIENTED_EDGE('',*,*,#377,.F.);
#499=ORIENTED_EDGE('',*,*,#339,.F.);
#500=ORIENTED_EDGE('',*,*,#315,.T.);
#501=ORIENTED_EDGE('',*,*,#322,.T.);
#502=ORIENTED_EDGE('',*,*,#320,.F.);
#503=ORIENTED_EDGE('',*,*,#338,.F.);
#504=ORIENTED_EDGE('',*,*,#373,.F.);
#505=ORIENTED_EDGE('',*,*,#378,.T.);
#506=ORIENTED_EDGE('',*,*,#379,.F.);
#507=ORIENTED_EDGE('',*,*,#380,.T.);
#508=ORIENTED_EDGE('',*,*,#381,.F.);
#509=ORIENTED_EDGE('',*,*,#382,.T.);
#510=ORIENTED_EDGE('',*,*,#383,.F.);
#511=ORIENTED_EDGE('',*,*,#376,.T.);
#512=ORIENTED_EDGE('',*,*,#352,.T.);
#513=ORIENTED_EDGE('',*,*,#350,.F.);
#514=ORIENTED_EDGE('',*,*,#360,.T.);
#515=ORIENTED_EDGE('',*,*,#357,.F.);
#516=ORIENTED_EDGE('',*,*,#366,.T.);
#517=ORIENTED_EDGE('',*,*,#363,.F.);
#518=ORIENTED_EDGE('',*,*,#371,.T.);
#519=ORIENTED_EDGE('',*,*,#368,.F.);
#520=ORIENTED_EDGE('',*,*,#383,.T.);
#521=ORIENTED_EDGE('',*,*,#384,.T.);
#522=ORIENTED_EDGE('',*,*,#340,.T.);
#523=ORIENTED_EDGE('',*,*,#377,.T.);
#524=ORIENTED_EDGE('',*,*,#384,.F.);
#525=ORIENTED_EDGE('',*,*,#382,.F.);
#526=ORIENTED_EDGE('',*,*,#385,.F.);
#527=ORIENTED_EDGE('',*,*,#341,.F.);
#528=ORIENTED_EDGE('',*,*,#381,.T.);
#529=ORIENTED_EDGE('',*,*,#386,.T.);
#530=ORIENTED_EDGE('',*,*,#342,.T.);
#531=ORIENTED_EDGE('',*,*,#385,.T.);
#532=ORIENTED_EDGE('',*,*,#386,.F.);
#533=ORIENTED_EDGE('',*,*,#380,.F.);
#534=ORIENTED_EDGE('',*,*,#387,.F.);
#535=ORIENTED_EDGE('',*,*,#344,.F.);
#536=ORIENTED_EDGE('',*,*,#330,.T.);
#537=ORIENTED_EDGE('',*,*,#333,.T.);
#538=ORIENTED_EDGE('',*,*,#324,.F.);
#539=ORIENTED_EDGE('',*,*,#343,.F.);
#540=ORIENTED_EDGE('',*,*,#379,.T.);
#541=ORIENTED_EDGE('',*,*,#388,.T.);
#542=ORIENTED_EDGE('',*,*,#345,.T.);
#543=ORIENTED_EDGE('',*,*,#387,.T.);
#544=ORIENTED_EDGE('',*,*,#389,.F.);
#545=ORIENTED_EDGE('',*,*,#390,.T.);
#546=ORIENTED_EDGE('',*,*,#372,.T.);
#547=ORIENTED_EDGE('',*,*,#390,.F.);
#548=ORIENTED_EDGE('',*,*,#375,.F.);
#549=ORIENTED_EDGE('',*,*,#346,.F.);
#550=ORIENTED_EDGE('',*,*,#388,.F.);
#551=ORIENTED_EDGE('',*,*,#378,.F.);
#552=ORIENTED_EDGE('',*,*,#335,.F.);
#553=ORIENTED_EDGE('',*,*,#391,.T.);
#554=ORIENTED_EDGE('',*,*,#392,.F.);
#555=ORIENTED_EDGE('',*,*,#393,.F.);
#556=ORIENTED_EDGE('',*,*,#336,.F.);
#557=ORIENTED_EDGE('',*,*,#393,.T.);
#558=ORIENTED_EDGE('',*,*,#394,.F.);
#559=ORIENTED_EDGE('',*,*,#395,.F.);
#560=ORIENTED_EDGE('',*,*,#337,.F.);
#561=ORIENTED_EDGE('',*,*,#395,.T.);
#562=ORIENTED_EDGE('',*,*,#396,.F.);
#563=ORIENTED_EDGE('',*,*,#397,.F.);
#564=ORIENTED_EDGE('',*,*,#334,.F.);
#565=ORIENTED_EDGE('',*,*,#397,.T.);
#566=ORIENTED_EDGE('',*,*,#398,.F.);
#567=ORIENTED_EDGE('',*,*,#391,.F.);
#568=ORIENTED_EDGE('',*,*,#398,.T.);
#569=ORIENTED_EDGE('',*,*,#396,.T.);
#570=ORIENTED_EDGE('',*,*,#394,.T.);
#571=ORIENTED_EDGE('',*,*,#392,.T.);
#572=ORIENTED_EDGE('',*,*,#389,.T.);
#573=PLANE('',#632);
#574=PLANE('',#633);
#575=PLANE('',#634);
#576=PLANE('',#635);
#577=PLANE('',#636);
#578=PLANE('',#637);
#579=PLANE('',#638);
#580=PLANE('',#639);
#581=PLANE('',#640);
#582=PLANE('',#648);
#583=PLANE('',#652);
#584=PLANE('',#656);
#585=PLANE('',#660);
#586=PLANE('',#661);
#587=PLANE('',#665);
#588=PLANE('',#666);
#589=PLANE('',#671);
#590=PLANE('',#673);
#591=PLANE('',#677);
#592=PLANE('',#678);
#593=PLANE('',#679);
#594=PLANE('',#680);
#595=PLANE('',#681);
#596=PLANE('',#682);
#597=ADVANCED_FACE('',(#46),#573,.F.);
#598=ADVANCED_FACE('',(#47),#574,.F.);
#599=ADVANCED_FACE('',(#48),#575,.F.);
#600=ADVANCED_FACE('',(#49),#576,.F.);
#601=ADVANCED_FACE('',(#50),#577,.F.);
#602=ADVANCED_FACE('',(#51),#578,.F.);
#603=ADVANCED_FACE('',(#52),#579,.F.);
#604=ADVANCED_FACE('',(#53),#580,.F.);
#605=ADVANCED_FACE('',(#54,#24),#581,.F.);
#606=ADVANCED_FACE('',(#55),#15,.F.);
#607=ADVANCED_FACE('',(#56),#582,.F.);
#608=ADVANCED_FACE('',(#57),#16,.F.);
#609=ADVANCED_FACE('',(#58),#583,.F.);
#610=ADVANCED_FACE('',(#59),#17,.F.);
#611=ADVANCED_FACE('',(#60),#584,.F.);
#612=ADVANCED_FACE('',(#61),#18,.F.);
#613=ADVANCED_FACE('',(#62),#585,.F.);
#614=ADVANCED_FACE('',(#63,#25),#586,.T.);
#615=ADVANCED_FACE('',(#64),#19,.T.);
#616=ADVANCED_FACE('',(#65),#587,.T.);
#617=ADVANCED_FACE('',(#66,#26),#588,.T.);
#618=ADVANCED_FACE('',(#67),#20,.T.);
#619=ADVANCED_FACE('',(#68),#589,.T.);
#620=ADVANCED_FACE('',(#69),#21,.T.);
#621=ADVANCED_FACE('',(#70),#590,.T.);
#622=ADVANCED_FACE('',(#71),#22,.T.);
#623=ADVANCED_FACE('',(#72),#23,.F.);
#624=ADVANCED_FACE('',(#73),#591,.T.);
#625=ADVANCED_FACE('',(#74),#592,.T.);
#626=ADVANCED_FACE('',(#75),#593,.T.);
#627=ADVANCED_FACE('',(#76),#594,.T.);
#628=ADVANCED_FACE('',(#77),#595,.T.);
#629=ADVANCED_FACE('',(#78,#27),#596,.T.);
#630=CLOSED_SHELL('',(#597,#598,#599,#600,#601,#602,#603,#604,#605,#606,
#607,#608,#609,#610,#611,#612,#613,#614,#615,#616,#617,#618,#619,#620,#621,
#622,#623,#624,#625,#626,#627,#628,#629));
#631=AXIS2_PLACEMENT_3D('',#856,#683,#684);
#632=AXIS2_PLACEMENT_3D('',#857,#685,#686);
#633=AXIS2_PLACEMENT_3D('',#866,#691,#692);
#634=AXIS2_PLACEMENT_3D('',#872,#696,#697);
#635=AXIS2_PLACEMENT_3D('',#878,#701,#702);
#636=AXIS2_PLACEMENT_3D('',#880,#704,#705);
#637=AXIS2_PLACEMENT_3D('',#889,#710,#711);
#638=AXIS2_PLACEMENT_3D('',#898,#716,#717);
#639=AXIS2_PLACEMENT_3D('',#901,#720,#721);
#640=AXIS2_PLACEMENT_3D('',#903,#723,#724);
#641=AXIS2_PLACEMENT_3D('',#917,#731,#732);
#642=AXIS2_PLACEMENT_3D('',#921,#734,#735);
#643=AXIS2_PLACEMENT_3D('',#926,#738,#739);
#644=AXIS2_PLACEMENT_3D('',#929,#741,#742);
#645=AXIS2_PLACEMENT_3D('',#930,#743,#744);
#646=AXIS2_PLACEMENT_3D('',#933,#745,#746);
#647=AXIS2_PLACEMENT_3D('',#937,#748,#749);
#648=AXIS2_PLACEMENT_3D('',#939,#751,#752);
#649=AXIS2_PLACEMENT_3D('',#945,#756,#757);
#650=AXIS2_PLACEMENT_3D('',#948,#758,#759);
#651=AXIS2_PLACEMENT_3D('',#952,#761,#762);
#652=AXIS2_PLACEMENT_3D('',#954,#764,#765);
#653=AXIS2_PLACEMENT_3D('',#957,#768,#769);
#654=AXIS2_PLACEMENT_3D('',#960,#770,#771);
#655=AXIS2_PLACEMENT_3D('',#964,#773,#774);
#656=AXIS2_PLACEMENT_3D('',#966,#776,#777);
#657=AXIS2_PLACEMENT_3D('',#969,#780,#781);
#658=AXIS2_PLACEMENT_3D('',#971,#782,#783);
#659=AXIS2_PLACEMENT_3D('',#973,#784,#785);
#660=AXIS2_PLACEMENT_3D('',#975,#787,#788);
#661=AXIS2_PLACEMENT_3D('',#978,#791,#792);
#662=AXIS2_PLACEMENT_3D('',#980,#793,#794);
#663=AXIS2_PLACEMENT_3D('',#981,#795,#796);
#664=AXIS2_PLACEMENT_3D('',#984,#797,#798);
#665=AXIS2_PLACEMENT_3D('',#987,#801,#802);
#666=AXIS2_PLACEMENT_3D('',#991,#805,#806);
#667=AXIS2_PLACEMENT_3D('',#995,#808,#809);
#668=AXIS2_PLACEMENT_3D('',#999,#811,#812);
#669=AXIS2_PLACEMENT_3D('',#1002,#814,#815);
#670=AXIS2_PLACEMENT_3D('',#1003,#816,#817);
#671=AXIS2_PLACEMENT_3D('',#1005,#819,#820);
#672=AXIS2_PLACEMENT_3D('',#1007,#822,#823);
#673=AXIS2_PLACEMENT_3D('',#1009,#825,#826);
#674=AXIS2_PLACEMENT_3D('',#1011,#828,#829);
#675=AXIS2_PLACEMENT_3D('',#1013,#831,#832);
#676=AXIS2_PLACEMENT_3D('',#1015,#833,#834);
#677=AXIS2_PLACEMENT_3D('',#1017,#836,#837);
#678=AXIS2_PLACEMENT_3D('',#1018,#838,#839);
#679=AXIS2_PLACEMENT_3D('',#1024,#843,#844);
#680=AXIS2_PLACEMENT_3D('',#1028,#847,#848);
#681=AXIS2_PLACEMENT_3D('',#1032,#851,#852);
#682=AXIS2_PLACEMENT_3D('',#1034,#854,#855);
#683=DIRECTION('axis',(0.,0.,1.));
#684=DIRECTION('refdir',(1.,0.,0.));
#685=DIRECTION('center_axis',(-1.,0.,0.));
#686=DIRECTION('ref_axis',(0.,-1.,0.));
#687=DIRECTION('',(0.,-1.,0.));
#688=DIRECTION('',(0.,0.,1.));
#689=DIRECTION('',(0.,-1.,0.));
#690=DIRECTION('',(0.,0.,1.));
#691=DIRECTION('center_axis',(0.,1.,0.));
#692=DIRECTION('ref_axis',(-1.,0.,0.));
#693=DIRECTION('',(-1.,0.,0.));
#694=DIRECTION('',(0.,0.,1.));
#695=DIRECTION('',(-1.,0.,0.));
#696=DIRECTION('center_axis',(1.,0.,0.));
#697=DIRECTION('ref_axis',(0.,1.,0.));
#698=DIRECTION('',(0.,1.,0.));
#699=DIRECTION('',(0.,0.,1.));
#700=DIRECTION('',(0.,1.,0.));
#701=DIRECTION('center_axis',(0.,0.,1.));
#702=DIRECTION('ref_axis',(1.,0.,0.));
#703=DIRECTION('',(1.,0.,0.));
#704=DIRECTION('center_axis',(-1.,0.,0.));
#705=DIRECTION('ref_axis',(0.,-1.,0.));
#706=DIRECTION('',(0.,-1.,0.));
#707=DIRECTION('',(0.,0.,1.));
#708=DIRECTION('',(0.,-1.,0.));
#709=DIRECTION('',(0.,0.,1.));
#710=DIRECTION('center_axis',(1.,0.,0.));
#711=DIRECTION('ref_axis',(0.,1.,0.));
#712=DIRECTION('',(0.,1.,0.));
#713=DIRECTION('',(0.,0.,1.));
#714=DIRECTION('',(0.,1.,0.));
#715=DIRECTION('',(0.,0.,1.));
#716=DIRECTION('center_axis',(0.,-1.,0.));
#717=DIRECTION('ref_axis',(1.,0.,0.));
#718=DIRECTION('',(1.,0.,0.));
#719=DIRECTION('',(1.,0.,0.));
#720=DIRECTION('center_axis',(0.,0.,1.));
#721=DIRECTION('ref_axis',(1.,0.,0.));
#722=DIRECTION('',(-1.,0.,0.));
#723=DIRECTION('center_axis',(0.,0.,1.));
#724=DIRECTION('ref_axis',(1.,0.,0.));
#725=DIRECTION('',(-8.7076315656875E-17,1.,0.));
#726=DIRECTION('',(1.,1.55820775385987E-16,0.));
#727=DIRECTION('',(8.7076315656875E-17,-1.,0.));
#728=DIRECTION('',(-1.,0.,0.));
#729=DIRECTION('',(1.,0.,0.));
#730=DIRECTION('',(1.,0.,0.));
#731=DIRECTION('center_axis',(0.,0.,1.));
#732=DIRECTION('ref_axis',(-0.707106781186548,0.707106781186548,0.));
#733=DIRECTION('',(0.,-1.,0.));
#734=DIRECTION('center_axis',(0.,0.,1.));
#735=DIRECTION('ref_axis',(-0.707106781186548,-0.707106781186548,0.));
#736=DIRECTION('',(-1.,0.,0.));
#737=DIRECTION('',(-1.,0.,0.));
#738=DIRECTION('center_axis',(0.,0.,1.));
#739=DIRECTION('ref_axis',(0.707106781186548,-0.707106781186548,0.));
#740=DIRECTION('',(0.,1.,0.));
#741=DIRECTION('center_axis',(0.,0.,1.));
#742=DIRECTION('ref_axis',(0.707106781186548,0.707106781186548,0.));
#743=DIRECTION('center_axis',(0.,0.,1.));
#744=DIRECTION('ref_axis',(-0.707106781186548,-0.707106781186548,0.));
#745=DIRECTION('center_axis',(0.,0.,-1.));
#746=DIRECTION('ref_axis',(-0.707106781186548,-0.707106781186548,0.));
#747=DIRECTION('',(0.,0.,-1.));
#748=DIRECTION('center_axis',(0.,0.,-1.));
#749=DIRECTION('ref_axis',(-0.707106781186548,-0.707106781186548,0.));
#750=DIRECTION('',(0.,0.,1.));
#751=DIRECTION('center_axis',(-1.,0.,0.));
#752=DIRECTION('ref_axis',(0.,-1.,0.));
#753=DIRECTION('',(0.,-1.,0.));
#754=DIRECTION('',(0.,0.,-1.));
#755=DIRECTION('',(0.,-1.,0.));
#756=DIRECTION('center_axis',(0.,0.,1.));
#757=DIRECTION('ref_axis',(0.707106781186547,-0.707106781186548,0.));
#758=DIRECTION('center_axis',(0.,0.,-1.));
#759=DIRECTION('ref_axis',(0.707106781186547,-0.707106781186548,0.));
#760=DIRECTION('',(0.,0.,-1.));
#761=DIRECTION('center_axis',(0.,0.,-1.));
#762=DIRECTION('ref_axis',(0.707106781186547,-0.707106781186548,0.));
#763=DIRECTION('',(0.,0.,1.));
#764=DIRECTION('center_axis',(0.,-1.,0.));
#765=DIRECTION('ref_axis',(1.,0.,0.));
#766=DIRECTION('',(1.,0.,0.));
#767=DIRECTION('',(1.,0.,0.));
#768=DIRECTION('center_axis',(0.,0.,1.));
#769=DIRECTION('ref_axis',(0.707106781186548,0.707106781186548,0.));
#770=DIRECTION('center_axis',(0.,0.,-1.));
#771=DIRECTION('ref_axis',(0.707106781186548,0.707106781186548,0.));
#772=DIRECTION('',(0.,0.,-1.));
#773=DIRECTION('center_axis',(0.,0.,-1.));
#774=DIRECTION('ref_axis',(0.707106781186548,0.707106781186548,0.));
#775=DIRECTION('',(0.,0.,1.));
#776=DIRECTION('center_axis',(1.,0.,0.));
#777=DIRECTION('ref_axis',(0.,1.,0.));
#778=DIRECTION('',(0.,1.,0.));
#779=DIRECTION('',(0.,1.,0.));
#780=DIRECTION('center_axis',(0.,0.,1.));
#781=DIRECTION('ref_axis',(-0.707106781186547,0.707106781186548,0.));
#782=DIRECTION('center_axis',(0.,0.,-1.));
#783=DIRECTION('ref_axis',(-0.707106781186547,0.707106781186548,0.));
#784=DIRECTION('center_axis',(0.,0.,-1.));
#785=DIRECTION('ref_axis',(-0.707106781186547,0.707106781186548,0.));
#786=DIRECTION('',(0.,0.,1.));
#787=DIRECTION('center_axis',(0.,1.,0.));
#788=DIRECTION('ref_axis',(-1.,0.,0.));
#789=DIRECTION('',(-1.,0.,0.));
#790=DIRECTION('',(-1.,0.,0.));
#791=DIRECTION('center_axis',(0.,0.,-1.));
#792=DIRECTION('ref_axis',(1.,0.,0.));
#793=DIRECTION('center_axis',(0.,0.,-1.));
#794=DIRECTION('ref_axis',(-1.,0.,0.));
#795=DIRECTION('center_axis',(0.,0.,-1.));
#796=DIRECTION('ref_axis',(0.707106781186548,0.707106781186548,0.));
#797=DIRECTION('center_axis',(0.,0.,1.));
#798=DIRECTION('ref_axis',(0.707106781186548,0.707106781186548,0.));
#799=DIRECTION('',(0.,0.,1.));
#800=DIRECTION('',(0.,0.,-1.));
#801=DIRECTION('center_axis',(0.,1.,0.));
#802=DIRECTION('ref_axis',(1.,0.,0.));
#803=DIRECTION('',(1.,0.,0.));
#804=DIRECTION('',(0.,0.,-1.));
#805=DIRECTION('center_axis',(0.,0.,-1.));
#806=DIRECTION('ref_axis',(-1.,0.,0.));
#807=DIRECTION('',(0.,-1.,0.));
#808=DIRECTION('center_axis',(0.,0.,1.));
#809=DIRECTION('ref_axis',(0.707106781186548,-0.707106781186548,0.));
#810=DIRECTION('',(-1.,0.,0.));
#811=DIRECTION('center_axis',(0.,0.,1.));
#812=DIRECTION('ref_axis',(-0.707106781186548,-0.707106781186548,0.));
#813=DIRECTION('',(0.,1.,0.));
#814=DIRECTION('center_axis',(0.,0.,1.));
#815=DIRECTION('ref_axis',(-0.707106781186548,0.707106781186548,0.));
#816=DIRECTION('center_axis',(0.,0.,-1.));
#817=DIRECTION('ref_axis',(-0.707106781186548,0.707106781186548,0.));
#818=DIRECTION('',(0.,0.,1.));
#819=DIRECTION('center_axis',(-1.,0.,0.));
#820=DIRECTION('ref_axis',(0.,1.,0.));
#821=DIRECTION('',(0.,0.,-1.));
#822=DIRECTION('center_axis',(0.,0.,-1.));
#823=DIRECTION('ref_axis',(-0.707106781186548,-0.707106781186548,0.));
#824=DIRECTION('',(0.,0.,1.));
#825=DIRECTION('center_axis',(0.,-1.,0.));
#826=DIRECTION('ref_axis',(-1.,0.,0.));
#827=DIRECTION('',(0.,0.,-1.));
#828=DIRECTION('center_axis',(0.,0.,-1.));
#829=DIRECTION('ref_axis',(0.707106781186548,-0.707106781186548,0.));
#830=DIRECTION('',(0.,0.,1.));
#831=DIRECTION('center_axis',(0.,0.,-1.));
#832=DIRECTION('ref_axis',(-1.,0.,0.));
#833=DIRECTION('center_axis',(0.,0.,-1.));
#834=DIRECTION('ref_axis',(-1.,0.,0.));
#835=DIRECTION('',(0.,0.,-1.));
#836=DIRECTION('center_axis',(1.,0.,0.));
#837=DIRECTION('ref_axis',(0.,-1.,0.));
#838=DIRECTION('center_axis',(-1.55820775385987E-16,1.,0.));
#839=DIRECTION('ref_axis',(-1.,-1.55820775385987E-16,0.));
#840=DIRECTION('',(0.,0.,1.));
#841=DIRECTION('',(-1.,-1.55820775385987E-16,0.));
#842=DIRECTION('',(0.,0.,1.));
#843=DIRECTION('center_axis',(1.,8.7076315656875E-17,0.));
#844=DIRECTION('ref_axis',(-8.7076315656875E-17,1.,0.));
#845=DIRECTION('',(-8.7076315656875E-17,1.,0.));
#846=DIRECTION('',(0.,0.,1.));
#847=DIRECTION('center_axis',(0.,-1.,0.));
#848=DIRECTION('ref_axis',(1.,0.,0.));
#849=DIRECTION('',(1.,0.,0.));
#850=DIRECTION('',(0.,0.,1.));
#851=DIRECTION('center_axis',(-1.,-8.7076315656875E-17,0.));
#852=DIRECTION('ref_axis',(8.7076315656875E-17,-1.,0.));
#853=DIRECTION('',(8.7076315656875E-17,-1.,0.));
#854=DIRECTION('center_axis',(0.,0.,1.));
#855=DIRECTION('ref_axis',(1.,0.,0.));
#856=CARTESIAN_POINT('',(0.,0.,0.));
#857=CARTESIAN_POINT('Origin',(-53.5,46.,102.));
#858=CARTESIAN_POINT('',(-53.5,46.,102.));
#859=CARTESIAN_POINT('',(-53.5,39.,102.));
#860=CARTESIAN_POINT('',(-53.5,23.,102.));
#861=CARTESIAN_POINT('',(-53.5,46.,108.));
#862=CARTESIAN_POINT('',(-53.5,46.,102.));
#863=CARTESIAN_POINT('',(-53.5,39.,108.));
#864=CARTESIAN_POINT('',(-53.5,46.,108.));
#865=CARTESIAN_POINT('',(-53.5,39.,102.));
#866=CARTESIAN_POINT('Origin',(53.5,46.,102.));
#867=CARTESIAN_POINT('',(53.5,46.,102.));
#868=CARTESIAN_POINT('',(26.75,46.,102.));
#869=CARTESIAN_POINT('',(53.5,46.,108.));
#870=CARTESIAN_POINT('',(53.5,46.,102.));
#871=CARTESIAN_POINT('',(53.5,46.,108.));
#872=CARTESIAN_POINT('Origin',(53.5,39.,102.));
#873=CARTESIAN_POINT('',(53.5,39.,102.));
#874=CARTESIAN_POINT('',(53.5,19.5,102.));
#875=CARTESIAN_POINT('',(53.5,39.,108.));
#876=CARTESIAN_POINT('',(53.5,39.,102.));
#877=CARTESIAN_POINT('',(53.5,39.,108.));
#878=CARTESIAN_POINT('Origin',(0.,42.5,108.));
#879=CARTESIAN_POINT('',(-53.5,39.,108.));
#880=CARTESIAN_POINT('Origin',(-53.5,-39.,102.));
#881=CARTESIAN_POINT('',(-53.5,-39.,102.));
#882=CARTESIAN_POINT('',(-53.5,-46.,102.));
#883=CARTESIAN_POINT('',(-53.5,-19.5,102.));
#884=CARTESIAN_POINT('',(-53.5,-39.,108.));
#885=CARTESIAN_POINT('',(-53.5,-39.,102.));
#886=CARTESIAN_POINT('',(-53.5,-46.,108.));
#887=CARTESIAN_POINT('',(-53.5,-39.,108.));
#888=CARTESIAN_POINT('',(-53.5,-46.,102.));
#889=CARTESIAN_POINT('Origin',(53.5,-46.,102.));
#890=CARTESIAN_POINT('',(53.5,-46.,102.));
#891=CARTESIAN_POINT('',(53.5,-39.,102.));
#892=CARTESIAN_POINT('',(53.5,-23.,102.));
#893=CARTESIAN_POINT('',(53.5,-46.,108.));
#894=CARTESIAN_POINT('',(53.5,-46.,102.));
#895=CARTESIAN_POINT('',(53.5,-39.,108.));
#896=CARTESIAN_POINT('',(53.5,-46.,108.));
#897=CARTESIAN_POINT('',(53.5,-39.,102.));
#898=CARTESIAN_POINT('Origin',(-53.5,-46.,102.));
#899=CARTESIAN_POINT('',(-26.75,-46.,102.));
#900=CARTESIAN_POINT('',(-53.5,-46.,108.));
#901=CARTESIAN_POINT('Origin',(0.,-42.5,108.));
#902=CARTESIAN_POINT('',(53.5,-39.,108.));
#903=CARTESIAN_POINT('Origin',(8.88178419700125E-15,0.,102.));
#904=CARTESIAN_POINT('',(-57.,-51.,102.));
#905=CARTESIAN_POINT('',(-57.,51.,102.));
#906=CARTESIAN_POINT('',(-57.,-51.,102.));
#907=CARTESIAN_POINT('',(57.,51.,102.));
#908=CARTESIAN_POINT('',(-57.,51.,102.));
#909=CARTESIAN_POINT('',(57.,-51.,102.));
#910=CARTESIAN_POINT('',(57.,51.,102.));
#911=CARTESIAN_POINT('',(57.,-51.,102.));
#912=CARTESIAN_POINT('',(37.,39.,102.));
#913=CARTESIAN_POINT('',(-26.75,39.,102.));
#914=CARTESIAN_POINT('',(-37.,39.,102.));
#915=CARTESIAN_POINT('',(-26.75,39.,102.));
#916=CARTESIAN_POINT('',(-45.,31.,102.));
#917=CARTESIAN_POINT('Origin',(-37.,31.,102.));
#918=CARTESIAN_POINT('',(-45.,-31.,102.));
#919=CARTESIAN_POINT('',(-45.,-19.5,102.));
#920=CARTESIAN_POINT('',(-37.,-39.,102.));
#921=CARTESIAN_POINT('Origin',(-37.,-31.,102.));
#922=CARTESIAN_POINT('',(26.75,-39.,102.));
#923=CARTESIAN_POINT('',(37.,-39.,102.));
#924=CARTESIAN_POINT('',(26.75,-39.,102.));
#925=CARTESIAN_POINT('',(45.,-31.,102.));
#926=CARTESIAN_POINT('Origin',(37.,-31.,102.));
#927=CARTESIAN_POINT('',(45.,31.,102.));
#928=CARTESIAN_POINT('',(45.,19.5,102.));
#929=CARTESIAN_POINT('Origin',(37.,31.,102.));
#930=CARTESIAN_POINT('Origin',(-25.,-19.,94.));
#931=CARTESIAN_POINT('',(-25.,-27.,106.));
#932=CARTESIAN_POINT('',(-33.,-19.,106.));
#933=CARTESIAN_POINT('Origin',(-25.,-19.,106.));
#934=CARTESIAN_POINT('',(-25.,-27.,94.));
#935=CARTESIAN_POINT('',(-25.,-27.,94.));
#936=CARTESIAN_POINT('',(-33.,-19.,94.));
#937=CARTESIAN_POINT('Origin',(-25.,-19.,94.));
#938=CARTESIAN_POINT('',(-33.,-19.,94.));
#939=CARTESIAN_POINT('Origin',(-33.,27.,94.));
#940=CARTESIAN_POINT('',(-33.,19.,94.));
#941=CARTESIAN_POINT('',(-33.,13.5,94.));
#942=CARTESIAN_POINT('',(-33.,19.,106.));
#943=CARTESIAN_POINT('',(-33.,19.,94.));
#944=CARTESIAN_POINT('',(-33.,-27.,106.));
#945=CARTESIAN_POINT('Origin',(25.,-19.,94.));
#946=CARTESIAN_POINT('',(33.,-19.,106.));
#947=CARTESIAN_POINT('',(25.,-27.,106.));
#948=CARTESIAN_POINT('Origin',(25.,-19.,106.));
#949=CARTESIAN_POINT('',(33.,-19.,94.));
#950=CARTESIAN_POINT('',(33.,-19.,94.));
#951=CARTESIAN_POINT('',(25.,-27.,94.));
#952=CARTESIAN_POINT('Origin',(25.,-19.,94.));
#953=CARTESIAN_POINT('',(25.,-27.,94.));
#954=CARTESIAN_POINT('Origin',(-33.,-27.,94.));
#955=CARTESIAN_POINT('',(33.,-27.,106.));
#956=CARTESIAN_POINT('',(-16.5,-27.,94.));
#957=CARTESIAN_POINT('Origin',(25.,19.,94.));
#958=CARTESIAN_POINT('',(25.,27.,106.));
#959=CARTESIAN_POINT('',(33.,19.,106.));
#960=CARTESIAN_POINT('Origin',(25.,19.,106.));
#961=CARTESIAN_POINT('',(25.,27.,94.));
#962=CARTESIAN_POINT('',(25.,27.,94.));
#963=CARTESIAN_POINT('',(33.,19.,94.));
#964=CARTESIAN_POINT('Origin',(25.,19.,94.));
#965=CARTESIAN_POINT('',(33.,19.,94.));
#966=CARTESIAN_POINT('Origin',(33.,-27.,94.));
#967=CARTESIAN_POINT('',(33.,27.,106.));
#968=CARTESIAN_POINT('',(33.,-13.5,94.));
#969=CARTESIAN_POINT('Origin',(-25.,19.,94.));
#970=CARTESIAN_POINT('',(-25.,27.,106.));
#971=CARTESIAN_POINT('Origin',(-25.,19.,106.));
#972=CARTESIAN_POINT('',(-25.,27.,94.));
#973=CARTESIAN_POINT('Origin',(-25.,19.,94.));
#974=CARTESIAN_POINT('',(-25.,27.,94.));
#975=CARTESIAN_POINT('Origin',(33.,27.,94.));
#976=CARTESIAN_POINT('',(-33.,27.,106.));
#977=CARTESIAN_POINT('',(16.5,27.,94.));
#978=CARTESIAN_POINT('Origin',(0.,0.,106.));
#979=CARTESIAN_POINT('',(13.25,-1.62265700887024E-15,106.));
#980=CARTESIAN_POINT('Origin',(0.,0.,106.));
#981=CARTESIAN_POINT('Origin',(37.,31.,102.));
#982=CARTESIAN_POINT('',(45.,31.,94.));
#983=CARTESIAN_POINT('',(37.,39.,94.));
#984=CARTESIAN_POINT('Origin',(37.,31.,94.));
#985=CARTESIAN_POINT('',(37.,39.,102.));
#986=CARTESIAN_POINT('',(45.,31.,102.));
#987=CARTESIAN_POINT('Origin',(-45.,39.,102.));
#988=CARTESIAN_POINT('',(-37.,39.,94.));
#989=CARTESIAN_POINT('',(45.,39.,94.));
#990=CARTESIAN_POINT('',(-37.,39.,102.));
#991=CARTESIAN_POINT('Origin',(0.,0.,94.));
#992=CARTESIAN_POINT('',(45.,-31.,94.));
#993=CARTESIAN_POINT('',(45.,-39.,94.));
#994=CARTESIAN_POINT('',(37.,-39.,94.));
#995=CARTESIAN_POINT('Origin',(37.,-31.,94.));
#996=CARTESIAN_POINT('',(-37.,-39.,94.));
#997=CARTESIAN_POINT('',(-45.,-39.,94.));
#998=CARTESIAN_POINT('',(-45.,-31.,94.));
#999=CARTESIAN_POINT('Origin',(-37.,-31.,94.));
#1000=CARTESIAN_POINT('',(-45.,31.,94.));
#1001=CARTESIAN_POINT('',(-45.,39.,94.));
#1002=CARTESIAN_POINT('Origin',(-37.,31.,94.));
#1003=CARTESIAN_POINT('Origin',(-37.,31.,102.));
#1004=CARTESIAN_POINT('',(-45.,31.,102.));
#1005=CARTESIAN_POINT('Origin',(-45.,-39.,102.));
#1006=CARTESIAN_POINT('',(-45.,-31.,102.));
#1007=CARTESIAN_POINT('Origin',(-37.,-31.,102.));
#1008=CARTESIAN_POINT('',(-37.,-39.,102.));
#1009=CARTESIAN_POINT('Origin',(45.,-39.,102.));
#1010=CARTESIAN_POINT('',(37.,-39.,102.));
#1011=CARTESIAN_POINT('Origin',(37.,-31.,102.));
#1012=CARTESIAN_POINT('',(45.,-31.,102.));
#1013=CARTESIAN_POINT('Origin',(0.,0.,114.));
#1014=CARTESIAN_POINT('',(13.25,1.62265700887024E-15,114.));
#1015=CARTESIAN_POINT('Origin',(0.,0.,114.));
#1016=CARTESIAN_POINT('',(13.25,-1.62265700887024E-15,114.));
#1017=CARTESIAN_POINT('Origin',(45.,39.,102.));
#1018=CARTESIAN_POINT('Origin',(57.,51.,102.));
#1019=CARTESIAN_POINT('',(-57.,51.,114.));
#1020=CARTESIAN_POINT('',(-57.,51.,102.));
#1021=CARTESIAN_POINT('',(57.,51.,114.));
#1022=CARTESIAN_POINT('',(-57.,51.,114.));
#1023=CARTESIAN_POINT('',(57.,51.,102.));
#1024=CARTESIAN_POINT('Origin',(57.,-51.,102.));
#1025=CARTESIAN_POINT('',(57.,-51.,114.));
#1026=CARTESIAN_POINT('',(57.,51.,114.));
#1027=CARTESIAN_POINT('',(57.,-51.,102.));
#1028=CARTESIAN_POINT('Origin',(-57.,-51.,102.));
#1029=CARTESIAN_POINT('',(-57.,-51.,114.));
#1030=CARTESIAN_POINT('',(57.,-51.,114.));
#1031=CARTESIAN_POINT('',(-57.,-51.,102.));
#1032=CARTESIAN_POINT('Origin',(-57.,51.,102.));
#1033=CARTESIAN_POINT('',(-57.,-51.,114.));
#1034=CARTESIAN_POINT('Origin',(8.88178419700125E-15,0.,114.));
#1035=UNCERTAINTY_MEASURE_WITH_UNIT(LENGTH_MEASURE(0.01),#1039,
'DISTANCE_ACCURACY_VALUE',
'Maximum model space distance between geometric entities at asserted c
onnectivities');
#1036=UNCERTAINTY_MEASURE_WITH_UNIT(LENGTH_MEASURE(0.01),#1039,
'DISTANCE_ACCURACY_VALUE',
'Maximum model space distance between geometric entities at asserted c
onnectivities');
#1037=(
GEOMETRIC_REPRESENTATION_CONTEXT(3)
GLOBAL_UNCERTAINTY_ASSIGNED_CONTEXT((#1035))
GLOBAL_UNIT_ASSIGNED_CONTEXT((#1039,#1040,#1041))
REPRESENTATION_CONTEXT('','3D')
);
#1038=(
GEOMETRIC_REPRESENTATION_CONTEXT(3)
GLOBAL_UNCERTAINTY_ASSIGNED_CONTEXT((#1036))
GLOBAL_UNIT_ASSIGNED_CONTEXT((#1039,#1040,#1041))
REPRESENTATION_CONTEXT('','3D')
);
#1039=(
LENGTH_UNIT()
NAMED_UNIT(*)
SI_UNIT(.MILLI.,.METRE.)
);
#1040=(
NAMED_UNIT(*)
PLANE_ANGLE_UNIT()
SI_UNIT($,.RADIAN.)
);
#1041=(
NAMED_UNIT(*)
SI_UNIT($,.STERADIAN.)
SOLID_ANGLE_UNIT()
);
#1042=SHAPE_DEFINITION_REPRESENTATION(#1043,#1044);
#1043=PRODUCT_DEFINITION_SHAPE('',$,#1046);
#1044=SHAPE_REPRESENTATION('',(#631),#1037);
#1045=PRODUCT_DEFINITION_CONTEXT('part definition',#1050,'design');
#1046=PRODUCT_DEFINITION('2026-08-03-08-25-57-658','AttCap',#1047,#1045);
#1047=PRODUCT_DEFINITION_FORMATION('',$,#1052);
#1048=PRODUCT_RELATED_PRODUCT_CATEGORY('AttCap','AttCap',(#1052));
#1049=APPLICATION_PROTOCOL_DEFINITION('international standard',
'automotive_design',2009,#1050);
#1050=APPLICATION_CONTEXT(
'Core Data for Automotive Mechanical Design Process');
#1051=PRODUCT_CONTEXT('part definition',#1050,'mechanical');
#1052=PRODUCT('2026-08-03-08-25-57-658','AttCap',$,(#1051));
#1053=PRESENTATION_STYLE_ASSIGNMENT((#1055));
#1054=PRESENTATION_STYLE_ASSIGNMENT((#1056));
#1055=SURFACE_STYLE_USAGE(.BOTH.,#1057);
#1056=SURFACE_STYLE_USAGE(.BOTH.,#1058);
#1057=SURFACE_SIDE_STYLE('',(#1059));
#1058=SURFACE_SIDE_STYLE('',(#1060));
#1059=SURFACE_STYLE_FILL_AREA(#1061);
#1060=SURFACE_STYLE_FILL_AREA(#1062);
#1061=FILL_AREA_STYLE('Steel - Satin',(#1063));
#1062=FILL_AREA_STYLE('Steel - Satin',(#1064));
#1063=FILL_AREA_STYLE_COLOUR('Steel - Satin',#1065);
#1064=FILL_AREA_STYLE_COLOUR('Steel - Satin',#1066);
#1065=COLOUR_RGB('Steel - Satin',0.627450980392157,0.627450980392157,0.627450980392157);
#1066=COLOUR_RGB('Steel - Satin',1.,1.,1.);
ENDSEC;
END-ISO-10303-21;
