ISO-10303-21;
HEADER;
/* Generated by software containing ST-Developer
 * from STEP Tools, Inc. (www.steptools.com) 
 */

FILE_DESCRIPTION(
/* description */ (''),
/* implementation_level */ '2;1');

FILE_NAME(
/* name */ 'modblock-body.step',
/* time_stamp */ '2026-08-03T08:26:32-07:00',
/* author */ (''),
/* organization */ (''),
/* preprocessor_version */ 'ST-DEVELOPER v20.1',
/* originating_system */ 'Autodesk Translation Framework v15.8.0.0',
/* authorisation */ '');

FILE_SCHEMA (('AUTOMOTIVE_DESIGN { 1 0 10303 214 3 1 1 }'));
ENDSEC;

DATA;
#10=MECHANICAL_DESIGN_GEOMETRIC_PRESENTATION_REPRESENTATION('',(#35,#36,
#37,#38),#2267);
#11=ITEM_DEFINED_TRANSFORMATION($,$,#1393,#1500);
#12=ITEM_DEFINED_TRANSFORMATION($,$,#1422,#1501);
#13=ITEM_DEFINED_TRANSFORMATION($,$,#1451,#1502);
#14=ITEM_DEFINED_TRANSFORMATION($,$,#1480,#1503);
#15=(
REPRESENTATION_RELATIONSHIP($,$,#2287,#2286)
REPRESENTATION_RELATIONSHIP_WITH_TRANSFORMATION(#11)
SHAPE_REPRESENTATION_RELATIONSHIP()
);
#16=(
REPRESENTATION_RELATIONSHIP($,$,#2288,#2286)
REPRESENTATION_RELATIONSHIP_WITH_TRANSFORMATION(#12)
SHAPE_REPRESENTATION_RELATIONSHIP()
);
#17=(
REPRESENTATION_RELATIONSHIP($,$,#2289,#2286)
REPRESENTATION_RELATIONSHIP_WITH_TRANSFORMATION(#13)
SHAPE_REPRESENTATION_RELATIONSHIP()
);
#18=(
REPRESENTATION_RELATIONSHIP($,$,#2290,#2286)
REPRESENTATION_RELATIONSHIP_WITH_TRANSFORMATION(#14)
SHAPE_REPRESENTATION_RELATIONSHIP()
);
#19=CONTEXT_DEPENDENT_SHAPE_REPRESENTATION(#15,#2282);
#20=CONTEXT_DEPENDENT_SHAPE_REPRESENTATION(#16,#2283);
#21=CONTEXT_DEPENDENT_SHAPE_REPRESENTATION(#17,#2284);
#22=CONTEXT_DEPENDENT_SHAPE_REPRESENTATION(#18,#2285);
#23=NEXT_ASSEMBLY_USAGE_OCCURRENCE('Floor:1','Floor:1','Floor:1',#2292,
#2293,'Floor:1');
#24=NEXT_ASSEMBLY_USAGE_OCCURRENCE('LeftWall:1','LeftWall:1',
'LeftWall:1',#2292,#2294,'LeftWall:1');
#25=NEXT_ASSEMBLY_USAGE_OCCURRENCE('RightWall:1','RightWall:1',
'RightWall:1',#2292,#2295,'RightWall:1');
#26=NEXT_ASSEMBLY_USAGE_OCCURRENCE('BackWall:1','BackWall:1',
'BackWall:1',#2292,#2296,'BackWall:1');
#27=SHAPE_REPRESENTATION_RELATIONSHIP('SRR','None',#2287,#31);
#28=SHAPE_REPRESENTATION_RELATIONSHIP('SRR','None',#2288,#32);
#29=SHAPE_REPRESENTATION_RELATIONSHIP('SRR','None',#2289,#33);
#30=SHAPE_REPRESENTATION_RELATIONSHIP('SRR','None',#2290,#34);
#31=ADVANCED_BREP_SHAPE_REPRESENTATION('',(#39),#2263);
#32=ADVANCED_BREP_SHAPE_REPRESENTATION('',(#40),#2264);
#33=ADVANCED_BREP_SHAPE_REPRESENTATION('',(#41),#2265);
#34=ADVANCED_BREP_SHAPE_REPRESENTATION('',(#42),#2266);
#35=STYLED_ITEM('',(#2316),#39);
#36=STYLED_ITEM('',(#2316),#40);
#37=STYLED_ITEM('',(#2316),#41);
#38=STYLED_ITEM('',(#2316),#42);
#39=MANIFOLD_SOLID_BREP('Body1',#1354);
#40=MANIFOLD_SOLID_BREP('Body3',#1355);
#41=MANIFOLD_SOLID_BREP('Body3',#1356);
#42=MANIFOLD_SOLID_BREP('Body1',#1357);
#43=FACE_BOUND('',#196,.T.);
#44=FACE_BOUND('',#197,.T.);
#45=FACE_BOUND('',#198,.T.);
#46=FACE_BOUND('',#199,.T.);
#47=FACE_BOUND('',#200,.T.);
#48=FACE_BOUND('',#201,.T.);
#49=FACE_BOUND('',#203,.T.);
#50=FACE_BOUND('',#204,.T.);
#51=FACE_BOUND('',#205,.T.);
#52=FACE_BOUND('',#206,.T.);
#53=FACE_BOUND('',#213,.T.);
#54=FACE_BOUND('',#214,.T.);
#55=FACE_BOUND('',#229,.T.);
#56=FACE_BOUND('',#236,.T.);
#57=FACE_BOUND('',#237,.T.);
#58=FACE_BOUND('',#251,.T.);
#59=FACE_BOUND('',#259,.T.);
#60=FACE_BOUND('',#263,.T.);
#61=CIRCLE('',#1405,1.5875);
#62=CIRCLE('',#1406,1.5875);
#63=CIRCLE('',#1408,1.5875);
#64=CIRCLE('',#1409,1.5875);
#65=CIRCLE('',#1411,1.5875);
#66=CIRCLE('',#1412,1.5875);
#67=CIRCLE('',#1414,1.5875);
#68=CIRCLE('',#1415,1.5875);
#69=CIRCLE('',#1424,1.5875);
#70=CIRCLE('',#1425,1.5875);
#71=CIRCLE('',#1427,1.5875);
#72=CIRCLE('',#1428,1.5875);
#73=CIRCLE('',#1433,1.5875);
#74=CIRCLE('',#1434,1.5875);
#75=CIRCLE('',#1443,1.5875);
#76=CIRCLE('',#1446,1.5875);
#77=CIRCLE('',#1453,1.5875);
#78=CIRCLE('',#1455,1.5875);
#79=CIRCLE('',#1456,1.5875);
#80=CIRCLE('',#1457,1.5875);
#81=CIRCLE('',#1462,1.5875);
#82=CIRCLE('',#1463,1.5875);
#83=CIRCLE('',#1470,1.5875);
#84=CIRCLE('',#1473,1.5875);
#85=CIRCLE('',#1482,7.);
#86=CIRCLE('',#1483,7.);
#87=CIRCLE('',#1486,7.);
#88=CIRCLE('',#1488,7.);
#89=CIRCLE('',#1490,13.25);
#90=CIRCLE('',#1491,13.25);
#91=CYLINDRICAL_SURFACE('',#1404,1.5875);
#92=CYLINDRICAL_SURFACE('',#1407,1.5875);
#93=CYLINDRICAL_SURFACE('',#1410,1.5875);
#94=CYLINDRICAL_SURFACE('',#1413,1.5875);
#95=CYLINDRICAL_SURFACE('',#1426,1.5875);
#96=CYLINDRICAL_SURFACE('',#1442,1.5875);
#97=CYLINDRICAL_SURFACE('',#1445,1.5875);
#98=CYLINDRICAL_SURFACE('',#1454,1.5875);
#99=CYLINDRICAL_SURFACE('',#1469,1.5875);
#100=CYLINDRICAL_SURFACE('',#1472,1.5875);
#101=CYLINDRICAL_SURFACE('',#1481,7.);
#102=CYLINDRICAL_SURFACE('',#1487,7.);
#103=CYLINDRICAL_SURFACE('',#1489,13.25);
#104=FACE_OUTER_BOUND('',#177,.T.);
#105=FACE_OUTER_BOUND('',#178,.T.);
#106=FACE_OUTER_BOUND('',#179,.T.);
#107=FACE_OUTER_BOUND('',#180,.T.);
#108=FACE_OUTER_BOUND('',#181,.T.);
#109=FACE_OUTER_BOUND('',#182,.T.);
#110=FACE_OUTER_BOUND('',#183,.T.);
#111=FACE_OUTER_BOUND('',#184,.T.);
#112=FACE_OUTER_BOUND('',#185,.T.);
#113=FACE_OUTER_BOUND('',#186,.T.);
#114=FACE_OUTER_BOUND('',#187,.T.);
#115=FACE_OUTER_BOUND('',#188,.T.);
#116=FACE_OUTER_BOUND('',#189,.T.);
#117=FACE_OUTER_BOUND('',#190,.T.);
#118=FACE_OUTER_BOUND('',#191,.T.);
#119=FACE_OUTER_BOUND('',#192,.T.);
#120=FACE_OUTER_BOUND('',#193,.T.);
#121=FACE_OUTER_BOUND('',#194,.T.);
#122=FACE_OUTER_BOUND('',#195,.T.);
#123=FACE_OUTER_BOUND('',#202,.T.);
#124=FACE_OUTER_BOUND('',#207,.T.);
#125=FACE_OUTER_BOUND('',#208,.T.);
#126=FACE_OUTER_BOUND('',#209,.T.);
#127=FACE_OUTER_BOUND('',#210,.T.);
#128=FACE_OUTER_BOUND('',#211,.T.);
#129=FACE_OUTER_BOUND('',#212,.T.);
#130=FACE_OUTER_BOUND('',#215,.T.);
#131=FACE_OUTER_BOUND('',#216,.T.);
#132=FACE_OUTER_BOUND('',#217,.T.);
#133=FACE_OUTER_BOUND('',#218,.T.);
#134=FACE_OUTER_BOUND('',#219,.T.);
#135=FACE_OUTER_BOUND('',#220,.T.);
#136=FACE_OUTER_BOUND('',#221,.T.);
#137=FACE_OUTER_BOUND('',#222,.T.);
#138=FACE_OUTER_BOUND('',#223,.T.);
#139=FACE_OUTER_BOUND('',#224,.T.);
#140=FACE_OUTER_BOUND('',#225,.T.);
#141=FACE_OUTER_BOUND('',#226,.T.);
#142=FACE_OUTER_BOUND('',#227,.T.);
#143=FACE_OUTER_BOUND('',#228,.T.);
#144=FACE_OUTER_BOUND('',#230,.T.);
#145=FACE_OUTER_BOUND('',#231,.T.);
#146=FACE_OUTER_BOUND('',#232,.T.);
#147=FACE_OUTER_BOUND('',#233,.T.);
#148=FACE_OUTER_BOUND('',#234,.T.);
#149=FACE_OUTER_BOUND('',#235,.T.);
#150=FACE_OUTER_BOUND('',#238,.T.);
#151=FACE_OUTER_BOUND('',#239,.T.);
#152=FACE_OUTER_BOUND('',#240,.T.);
#153=FACE_OUTER_BOUND('',#241,.T.);
#154=FACE_OUTER_BOUND('',#242,.T.);
#155=FACE_OUTER_BOUND('',#243,.T.);
#156=FACE_OUTER_BOUND('',#244,.T.);
#157=FACE_OUTER_BOUND('',#245,.T.);
#158=FACE_OUTER_BOUND('',#246,.T.);
#159=FACE_OUTER_BOUND('',#247,.T.);
#160=FACE_OUTER_BOUND('',#248,.T.);
#161=FACE_OUTER_BOUND('',#249,.T.);
#162=FACE_OUTER_BOUND('',#250,.T.);
#163=FACE_OUTER_BOUND('',#252,.T.);
#164=FACE_OUTER_BOUND('',#253,.T.);
#165=FACE_OUTER_BOUND('',#254,.T.);
#166=FACE_OUTER_BOUND('',#255,.T.);
#167=FACE_OUTER_BOUND('',#256,.T.);
#168=FACE_OUTER_BOUND('',#257,.T.);
#169=FACE_OUTER_BOUND('',#258,.T.);
#170=FACE_OUTER_BOUND('',#260,.T.);
#171=FACE_OUTER_BOUND('',#261,.T.);
#172=FACE_OUTER_BOUND('',#262,.T.);
#173=FACE_OUTER_BOUND('',#264,.T.);
#174=FACE_OUTER_BOUND('',#265,.T.);
#175=FACE_OUTER_BOUND('',#266,.T.);
#176=FACE_OUTER_BOUND('',#267,.T.);
#177=EDGE_LOOP('',(#863,#864,#865,#866));
#178=EDGE_LOOP('',(#867,#868,#869,#870));
#179=EDGE_LOOP('',(#871,#872,#873,#874));
#180=EDGE_LOOP('',(#875,#876,#877,#878));
#181=EDGE_LOOP('',(#879,#880,#881,#882));
#182=EDGE_LOOP('',(#883,#884,#885,#886));
#183=EDGE_LOOP('',(#887,#888,#889,#890));
#184=EDGE_LOOP('',(#891,#892,#893,#894));
#185=EDGE_LOOP('',(#895,#896,#897,#898));
#186=EDGE_LOOP('',(#899,#900,#901,#902));
#187=EDGE_LOOP('',(#903,#904,#905,#906));
#188=EDGE_LOOP('',(#907,#908,#909,#910));
#189=EDGE_LOOP('',(#911,#912,#913,#914));
#190=EDGE_LOOP('',(#915,#916,#917,#918));
#191=EDGE_LOOP('',(#919,#920,#921,#922));
#192=EDGE_LOOP('',(#923,#924,#925,#926));
#193=EDGE_LOOP('',(#927,#928,#929,#930));
#194=EDGE_LOOP('',(#931,#932,#933,#934));
#195=EDGE_LOOP('',(#935,#936,#937,#938));
#196=EDGE_LOOP('',(#939,#940,#941,#942));
#197=EDGE_LOOP('',(#943,#944,#945,#946));
#198=EDGE_LOOP('',(#947));
#199=EDGE_LOOP('',(#948));
#200=EDGE_LOOP('',(#949));
#201=EDGE_LOOP('',(#950));
#202=EDGE_LOOP('',(#951,#952,#953,#954));
#203=EDGE_LOOP('',(#955));
#204=EDGE_LOOP('',(#956));
#205=EDGE_LOOP('',(#957));
#206=EDGE_LOOP('',(#958));
#207=EDGE_LOOP('',(#959,#960,#961));
#208=EDGE_LOOP('',(#962,#963,#964,#965,#966,#967));
#209=EDGE_LOOP('',(#968,#969,#970,#971));
#210=EDGE_LOOP('',(#972,#973,#974,#975));
#211=EDGE_LOOP('',(#976,#977,#978,#979));
#212=EDGE_LOOP('',(#980,#981,#982,#983,#984,#985,#986,#987,#988,#989,#990,
#991));
#213=EDGE_LOOP('',(#992));
#214=EDGE_LOOP('',(#993));
#215=EDGE_LOOP('',(#994,#995,#996,#997));
#216=EDGE_LOOP('',(#998,#999,#1000,#1001));
#217=EDGE_LOOP('',(#1002,#1003,#1004,#1005,#1006,#1007));
#218=EDGE_LOOP('',(#1008,#1009,#1010,#1011,#1012,#1013));
#219=EDGE_LOOP('',(#1014,#1015,#1016,#1017,#1018,#1019,#1020,#1021,#1022,
#1023,#1024,#1025));
#220=EDGE_LOOP('',(#1026,#1027,#1028,#1029));
#221=EDGE_LOOP('',(#1030,#1031,#1032,#1033));
#222=EDGE_LOOP('',(#1034,#1035,#1036,#1037));
#223=EDGE_LOOP('',(#1038));
#224=EDGE_LOOP('',(#1039,#1040,#1041,#1042));
#225=EDGE_LOOP('',(#1043));
#226=EDGE_LOOP('',(#1044,#1045,#1046,#1047));
#227=EDGE_LOOP('',(#1048,#1049,#1050,#1051));
#228=EDGE_LOOP('',(#1052,#1053,#1054,#1055));
#229=EDGE_LOOP('',(#1056));
#230=EDGE_LOOP('',(#1057,#1058));
#231=EDGE_LOOP('',(#1059,#1060,#1061,#1062,#1063,#1064));
#232=EDGE_LOOP('',(#1065,#1066,#1067,#1068));
#233=EDGE_LOOP('',(#1069,#1070,#1071,#1072,#1073,#1074,#1075));
#234=EDGE_LOOP('',(#1076,#1077,#1078,#1079,#1080,#1081));
#235=EDGE_LOOP('',(#1082,#1083,#1084,#1085,#1086,#1087,#1088,#1089,#1090,
#1091,#1092,#1093));
#236=EDGE_LOOP('',(#1094));
#237=EDGE_LOOP('',(#1095));
#238=EDGE_LOOP('',(#1096,#1097,#1098,#1099));
#239=EDGE_LOOP('',(#1100,#1101,#1102,#1103));
#240=EDGE_LOOP('',(#1104,#1105,#1106,#1107));
#241=EDGE_LOOP('',(#1108,#1109,#1110,#1111));
#242=EDGE_LOOP('',(#1112,#1113,#1114,#1115));
#243=EDGE_LOOP('',(#1116,#1117,#1118,#1119));
#244=EDGE_LOOP('',(#1120));
#245=EDGE_LOOP('',(#1121,#1122,#1123,#1124));
#246=EDGE_LOOP('',(#1125));
#247=EDGE_LOOP('',(#1126,#1127,#1128,#1129));
#248=EDGE_LOOP('',(#1130,#1131,#1132,#1133));
#249=EDGE_LOOP('',(#1134,#1135,#1136,#1137));
#250=EDGE_LOOP('',(#1138,#1139,#1140,#1141));
#251=EDGE_LOOP('',(#1142));
#252=EDGE_LOOP('',(#1143,#1144,#1145,#1146,#1147,#1148,#1149,#1150,#1151,
#1152,#1153,#1154));
#253=EDGE_LOOP('',(#1155,#1156,#1157,#1158));
#254=EDGE_LOOP('',(#1159,#1160,#1161,#1162));
#255=EDGE_LOOP('',(#1163,#1164,#1165,#1166,#1167,#1168,#1169,#1170,#1171,
#1172));
#256=EDGE_LOOP('',(#1173,#1174,#1175,#1176));
#257=EDGE_LOOP('',(#1177,#1178,#1179,#1180));
#258=EDGE_LOOP('',(#1181,#1182,#1183,#1184));
#259=EDGE_LOOP('',(#1185));
#260=EDGE_LOOP('',(#1186,#1187,#1188,#1189));
#261=EDGE_LOOP('',(#1190,#1191,#1192,#1193));
#262=EDGE_LOOP('',(#1194,#1195,#1196,#1197,#1198,#1199));
#263=EDGE_LOOP('',(#1200));
#264=EDGE_LOOP('',(#1201,#1202,#1203,#1204));
#265=EDGE_LOOP('',(#1205,#1206,#1207,#1208));
#266=EDGE_LOOP('',(#1209,#1210,#1211,#1212,#1213,#1214,#1215,#1216));
#267=EDGE_LOOP('',(#1217,#1218,#1219,#1220));
#268=LINE('',#1882,#417);
#269=LINE('',#1884,#418);
#270=LINE('',#1886,#419);
#271=LINE('',#1887,#420);
#272=LINE('',#1891,#421);
#273=LINE('',#1893,#422);
#274=LINE('',#1895,#423);
#275=LINE('',#1896,#424);
#276=LINE('',#1900,#425);
#277=LINE('',#1902,#426);
#278=LINE('',#1904,#427);
#279=LINE('',#1905,#428);
#280=LINE('',#1909,#429);
#281=LINE('',#1911,#430);
#282=LINE('',#1913,#431);
#283=LINE('',#1914,#432);
#284=LINE('',#1916,#433);
#285=LINE('',#1917,#434);
#286=LINE('',#1919,#435);
#287=LINE('',#1920,#436);
#288=LINE('',#1923,#437);
#289=LINE('',#1924,#438);
#290=LINE('',#1926,#439);
#291=LINE('',#1927,#440);
#292=LINE('',#1933,#441);
#293=LINE('',#1939,#442);
#294=LINE('',#1945,#443);
#295=LINE('',#1951,#444);
#296=LINE('',#1956,#445);
#297=LINE('',#1958,#446);
#298=LINE('',#1960,#447);
#299=LINE('',#1961,#448);
#300=LINE('',#1964,#449);
#301=LINE('',#1966,#450);
#302=LINE('',#1967,#451);
#303=LINE('',#1970,#452);
#304=LINE('',#1972,#453);
#305=LINE('',#1973,#454);
#306=LINE('',#1975,#455);
#307=LINE('',#1976,#456);
#308=LINE('',#1983,#457);
#309=LINE('',#1990,#458);
#310=LINE('',#1995,#459);
#311=LINE('',#1997,#460);
#312=LINE('',#1999,#461);
#313=LINE('',#2000,#462);
#314=LINE('',#2003,#463);
#315=LINE('',#2005,#464);
#316=LINE('',#2006,#465);
#317=LINE('',#2009,#466);
#318=LINE('',#2011,#467);
#319=LINE('',#2012,#468);
#320=LINE('',#2015,#469);
#321=LINE('',#2017,#470);
#322=LINE('',#2019,#471);
#323=LINE('',#2021,#472);
#324=LINE('',#2023,#473);
#325=LINE('',#2025,#474);
#326=LINE('',#2027,#475);
#327=LINE('',#2029,#476);
#328=LINE('',#2030,#477);
#329=LINE('',#2037,#478);
#330=LINE('',#2038,#479);
#331=LINE('',#2041,#480);
#332=LINE('',#2043,#481);
#333=LINE('',#2044,#482);
#334=LINE('',#2047,#483);
#335=LINE('',#2049,#484);
#336=LINE('',#2050,#485);
#337=LINE('',#2051,#486);
#338=LINE('',#2053,#487);
#339=LINE('',#2055,#488);
#340=LINE('',#2057,#489);
#341=LINE('',#2059,#490);
#342=LINE('',#2061,#491);
#343=LINE('',#2062,#492);
#344=LINE('',#2064,#493);
#345=LINE('',#2068,#494);
#346=LINE('',#2073,#495);
#347=LINE('',#2077,#496);
#348=LINE('',#2079,#497);
#349=LINE('',#2085,#498);
#350=LINE('',#2091,#499);
#351=LINE('',#2097,#500);
#352=LINE('',#2099,#501);
#353=LINE('',#2101,#502);
#354=LINE('',#2102,#503);
#355=LINE('',#2105,#504);
#356=LINE('',#2106,#505);
#357=LINE('',#2108,#506);
#358=LINE('',#2109,#507);
#359=LINE('',#2113,#508);
#360=LINE('',#2114,#509);
#361=LINE('',#2115,#510);
#362=LINE('',#2118,#511);
#363=LINE('',#2120,#512);
#364=LINE('',#2122,#513);
#365=LINE('',#2124,#514);
#366=LINE('',#2126,#515);
#367=LINE('',#2128,#516);
#368=LINE('',#2130,#517);
#369=LINE('',#2132,#518);
#370=LINE('',#2133,#519);
#371=LINE('',#2140,#520);
#372=LINE('',#2141,#521);
#373=LINE('',#2144,#522);
#374=LINE('',#2145,#523);
#375=LINE('',#2148,#524);
#376=LINE('',#2150,#525);
#377=LINE('',#2151,#526);
#378=LINE('',#2153,#527);
#379=LINE('',#2156,#528);
#380=LINE('',#2157,#529);
#381=LINE('',#2160,#530);
#382=LINE('',#2165,#531);
#383=LINE('',#2170,#532);
#384=LINE('',#2172,#533);
#385=LINE('',#2173,#534);
#386=LINE('',#2175,#535);
#387=LINE('',#2178,#536);
#388=LINE('',#2179,#537);
#389=LINE('',#2181,#538);
#390=LINE('',#2189,#539);
#391=LINE('',#2192,#540);
#392=LINE('',#2195,#541);
#393=LINE('',#2197,#542);
#394=LINE('',#2198,#543);
#395=LINE('',#2201,#544);
#396=LINE('',#2203,#545);
#397=LINE('',#2205,#546);
#398=LINE('',#2207,#547);
#399=LINE('',#2209,#548);
#400=LINE('',#2211,#549);
#401=LINE('',#2213,#550);
#402=LINE('',#2218,#551);
#403=LINE('',#2223,#552);
#404=LINE('',#2228,#553);
#405=LINE('',#2230,#554);
#406=LINE('',#2232,#555);
#407=LINE('',#2233,#556);
#408=LINE('',#2235,#557);
#409=LINE('',#2236,#558);
#410=LINE('',#2239,#559);
#411=LINE('',#2240,#560);
#412=LINE('',#2243,#561);
#413=LINE('',#2244,#562);
#414=LINE('',#2246,#563);
#415=LINE('',#2248,#564);
#416=LINE('',#2249,#565);
#417=VECTOR('',#1510,10.);
#418=VECTOR('',#1511,10.);
#419=VECTOR('',#1512,10.);
#420=VECTOR('',#1513,10.);
#421=VECTOR('',#1516,10.);
#422=VECTOR('',#1517,10.);
#423=VECTOR('',#1518,10.);
#424=VECTOR('',#1519,10.);
#425=VECTOR('',#1522,10.);
#426=VECTOR('',#1523,10.);
#427=VECTOR('',#1524,10.);
#428=VECTOR('',#1525,10.);
#429=VECTOR('',#1528,10.);
#430=VECTOR('',#1529,10.);
#431=VECTOR('',#1530,10.);
#432=VECTOR('',#1531,10.);
#433=VECTOR('',#1534,10.);
#434=VECTOR('',#1535,10.);
#435=VECTOR('',#1538,10.);
#436=VECTOR('',#1539,10.);
#437=VECTOR('',#1544,10.);
#438=VECTOR('',#1545,10.);
#439=VECTOR('',#1548,10.);
#440=VECTOR('',#1549,10.);
#441=VECTOR('',#1556,1.5875);
#442=VECTOR('',#1563,1.5875);
#443=VECTOR('',#1570,1.5875);
#444=VECTOR('',#1577,1.5875);
#445=VECTOR('',#1582,10.);
#446=VECTOR('',#1583,10.);
#447=VECTOR('',#1584,10.);
#448=VECTOR('',#1585,10.);
#449=VECTOR('',#1588,10.);
#450=VECTOR('',#1589,10.);
#451=VECTOR('',#1590,10.);
#452=VECTOR('',#1593,10.);
#453=VECTOR('',#1594,10.);
#454=VECTOR('',#1595,10.);
#455=VECTOR('',#1598,10.);
#456=VECTOR('',#1599,10.);
#457=VECTOR('',#1608,10.);
#458=VECTOR('',#1617,1.5875);
#459=VECTOR('',#1622,10.);
#460=VECTOR('',#1623,10.);
#461=VECTOR('',#1624,10.);
#462=VECTOR('',#1625,10.);
#463=VECTOR('',#1628,10.);
#464=VECTOR('',#1629,10.);
#465=VECTOR('',#1630,10.);
#466=VECTOR('',#1633,10.);
#467=VECTOR('',#1634,10.);
#468=VECTOR('',#1635,10.);
#469=VECTOR('',#1638,10.);
#470=VECTOR('',#1639,10.);
#471=VECTOR('',#1640,10.);
#472=VECTOR('',#1641,10.);
#473=VECTOR('',#1642,10.);
#474=VECTOR('',#1643,10.);
#475=VECTOR('',#1644,10.);
#476=VECTOR('',#1645,10.);
#477=VECTOR('',#1646,10.);
#478=VECTOR('',#1653,10.);
#479=VECTOR('',#1654,10.);
#480=VECTOR('',#1657,10.);
#481=VECTOR('',#1658,10.);
#482=VECTOR('',#1659,10.);
#483=VECTOR('',#1662,10.);
#484=VECTOR('',#1663,10.);
#485=VECTOR('',#1664,10.);
#486=VECTOR('',#1665,10.);
#487=VECTOR('',#1668,10.);
#488=VECTOR('',#1671,10.);
#489=VECTOR('',#1672,10.);
#490=VECTOR('',#1673,10.);
#491=VECTOR('',#1674,10.);
#492=VECTOR('',#1675,10.);
#493=VECTOR('',#1678,10.);
#494=VECTOR('',#1683,1.5875);
#495=VECTOR('',#1690,1.5875);
#496=VECTOR('',#1697,10.);
#497=VECTOR('',#1700,10.);
#498=VECTOR('',#1707,10.);
#499=VECTOR('',#1714,1.5875);
#500=VECTOR('',#1721,10.);
#501=VECTOR('',#1722,10.);
#502=VECTOR('',#1723,10.);
#503=VECTOR('',#1724,10.);
#504=VECTOR('',#1727,10.);
#505=VECTOR('',#1728,10.);
#506=VECTOR('',#1729,10.);
#507=VECTOR('',#1730,10.);
#508=VECTOR('',#1733,10.);
#509=VECTOR('',#1734,10.);
#510=VECTOR('',#1735,10.);
#511=VECTOR('',#1738,10.);
#512=VECTOR('',#1739,10.);
#513=VECTOR('',#1740,10.);
#514=VECTOR('',#1741,10.);
#515=VECTOR('',#1742,10.);
#516=VECTOR('',#1743,10.);
#517=VECTOR('',#1744,10.);
#518=VECTOR('',#1745,10.);
#519=VECTOR('',#1746,10.);
#520=VECTOR('',#1753,10.);
#521=VECTOR('',#1754,10.);
#522=VECTOR('',#1757,10.);
#523=VECTOR('',#1758,10.);
#524=VECTOR('',#1761,10.);
#525=VECTOR('',#1762,10.);
#526=VECTOR('',#1763,10.);
#527=VECTOR('',#1766,10.);
#528=VECTOR('',#1769,10.);
#529=VECTOR('',#1770,10.);
#530=VECTOR('',#1773,1.5875);
#531=VECTOR('',#1780,1.5875);
#532=VECTOR('',#1787,10.);
#533=VECTOR('',#1788,10.);
#534=VECTOR('',#1789,10.);
#535=VECTOR('',#1792,10.);
#536=VECTOR('',#1795,10.);
#537=VECTOR('',#1796,10.);
#538=VECTOR('',#1799,10.);
#539=VECTOR('',#1808,10.);
#540=VECTOR('',#1811,10.);
#541=VECTOR('',#1814,10.);
#542=VECTOR('',#1815,10.);
#543=VECTOR('',#1816,10.);
#544=VECTOR('',#1819,10.);
#545=VECTOR('',#1820,10.);
#546=VECTOR('',#1821,10.);
#547=VECTOR('',#1822,10.);
#548=VECTOR('',#1823,10.);
#549=VECTOR('',#1824,10.);
#550=VECTOR('',#1825,10.);
#551=VECTOR('',#1832,10.);
#552=VECTOR('',#1837,13.25);
#553=VECTOR('',#1842,10.);
#554=VECTOR('',#1843,10.);
#555=VECTOR('',#1844,10.);
#556=VECTOR('',#1845,10.);
#557=VECTOR('',#1848,10.);
#558=VECTOR('',#1849,10.);
#559=VECTOR('',#1852,10.);
#560=VECTOR('',#1853,10.);
#561=VECTOR('',#1856,10.);
#562=VECTOR('',#1857,10.);
#563=VECTOR('',#1860,10.);
#564=VECTOR('',#1863,10.);
#565=VECTOR('',#1864,10.);
#566=VERTEX_POINT('',#1880);
#567=VERTEX_POINT('',#1881);
#568=VERTEX_POINT('',#1883);
#569=VERTEX_POINT('',#1885);
#570=VERTEX_POINT('',#1889);
#571=VERTEX_POINT('',#1890);
#572=VERTEX_POINT('',#1892);
#573=VERTEX_POINT('',#1894);
#574=VERTEX_POINT('',#1898);
#575=VERTEX_POINT('',#1899);
#576=VERTEX_POINT('',#1901);
#577=VERTEX_POINT('',#1903);
#578=VERTEX_POINT('',#1907);
#579=VERTEX_POINT('',#1908);
#580=VERTEX_POINT('',#1910);
#581=VERTEX_POINT('',#1912);
#582=VERTEX_POINT('',#1930);
#583=VERTEX_POINT('',#1932);
#584=VERTEX_POINT('',#1936);
#585=VERTEX_POINT('',#1938);
#586=VERTEX_POINT('',#1942);
#587=VERTEX_POINT('',#1944);
#588=VERTEX_POINT('',#1948);
#589=VERTEX_POINT('',#1950);
#590=VERTEX_POINT('',#1954);
#591=VERTEX_POINT('',#1955);
#592=VERTEX_POINT('',#1957);
#593=VERTEX_POINT('',#1959);
#594=VERTEX_POINT('',#1963);
#595=VERTEX_POINT('',#1965);
#596=VERTEX_POINT('',#1969);
#597=VERTEX_POINT('',#1971);
#598=VERTEX_POINT('',#1981);
#599=VERTEX_POINT('',#1982);
#600=VERTEX_POINT('',#1984);
#601=VERTEX_POINT('',#1988);
#602=VERTEX_POINT('',#1993);
#603=VERTEX_POINT('',#1994);
#604=VERTEX_POINT('',#1996);
#605=VERTEX_POINT('',#1998);
#606=VERTEX_POINT('',#2002);
#607=VERTEX_POINT('',#2004);
#608=VERTEX_POINT('',#2008);
#609=VERTEX_POINT('',#2010);
#610=VERTEX_POINT('',#2014);
#611=VERTEX_POINT('',#2016);
#612=VERTEX_POINT('',#2018);
#613=VERTEX_POINT('',#2020);
#614=VERTEX_POINT('',#2022);
#615=VERTEX_POINT('',#2024);
#616=VERTEX_POINT('',#2026);
#617=VERTEX_POINT('',#2028);
#618=VERTEX_POINT('',#2031);
#619=VERTEX_POINT('',#2033);
#620=VERTEX_POINT('',#2036);
#621=VERTEX_POINT('',#2040);
#622=VERTEX_POINT('',#2042);
#623=VERTEX_POINT('',#2046);
#624=VERTEX_POINT('',#2048);
#625=VERTEX_POINT('',#2056);
#626=VERTEX_POINT('',#2058);
#627=VERTEX_POINT('',#2060);
#628=VERTEX_POINT('',#2067);
#629=VERTEX_POINT('',#2072);
#630=VERTEX_POINT('',#2083);
#631=VERTEX_POINT('',#2084);
#632=VERTEX_POINT('',#2088);
#633=VERTEX_POINT('',#2090);
#634=VERTEX_POINT('',#2095);
#635=VERTEX_POINT('',#2096);
#636=VERTEX_POINT('',#2098);
#637=VERTEX_POINT('',#2100);
#638=VERTEX_POINT('',#2104);
#639=VERTEX_POINT('',#2107);
#640=VERTEX_POINT('',#2111);
#641=VERTEX_POINT('',#2112);
#642=VERTEX_POINT('',#2117);
#643=VERTEX_POINT('',#2119);
#644=VERTEX_POINT('',#2121);
#645=VERTEX_POINT('',#2123);
#646=VERTEX_POINT('',#2125);
#647=VERTEX_POINT('',#2127);
#648=VERTEX_POINT('',#2129);
#649=VERTEX_POINT('',#2131);
#650=VERTEX_POINT('',#2134);
#651=VERTEX_POINT('',#2136);
#652=VERTEX_POINT('',#2139);
#653=VERTEX_POINT('',#2143);
#654=VERTEX_POINT('',#2147);
#655=VERTEX_POINT('',#2149);
#656=VERTEX_POINT('',#2155);
#657=VERTEX_POINT('',#2159);
#658=VERTEX_POINT('',#2164);
#659=VERTEX_POINT('',#2169);
#660=VERTEX_POINT('',#2171);
#661=VERTEX_POINT('',#2177);
#662=VERTEX_POINT('',#2185);
#663=VERTEX_POINT('',#2186);
#664=VERTEX_POINT('',#2188);
#665=VERTEX_POINT('',#2190);
#666=VERTEX_POINT('',#2194);
#667=VERTEX_POINT('',#2196);
#668=VERTEX_POINT('',#2200);
#669=VERTEX_POINT('',#2202);
#670=VERTEX_POINT('',#2204);
#671=VERTEX_POINT('',#2206);
#672=VERTEX_POINT('',#2208);
#673=VERTEX_POINT('',#2210);
#674=VERTEX_POINT('',#2212);
#675=VERTEX_POINT('',#2216);
#676=VERTEX_POINT('',#2220);
#677=VERTEX_POINT('',#2222);
#678=VERTEX_POINT('',#2226);
#679=VERTEX_POINT('',#2227);
#680=VERTEX_POINT('',#2229);
#681=VERTEX_POINT('',#2231);
#682=VERTEX_POINT('',#2238);
#683=VERTEX_POINT('',#2242);
#684=EDGE_CURVE('',#566,#567,#268,.T.);
#685=EDGE_CURVE('',#568,#566,#269,.T.);
#686=EDGE_CURVE('',#569,#568,#270,.T.);
#687=EDGE_CURVE('',#567,#569,#271,.T.);
#688=EDGE_CURVE('',#570,#571,#272,.T.);
#689=EDGE_CURVE('',#572,#570,#273,.T.);
#690=EDGE_CURVE('',#573,#572,#274,.T.);
#691=EDGE_CURVE('',#571,#573,#275,.T.);
#692=EDGE_CURVE('',#574,#575,#276,.T.);
#693=EDGE_CURVE('',#576,#574,#277,.T.);
#694=EDGE_CURVE('',#577,#576,#278,.T.);
#695=EDGE_CURVE('',#575,#577,#279,.T.);
#696=EDGE_CURVE('',#578,#579,#280,.T.);
#697=EDGE_CURVE('',#580,#578,#281,.T.);
#698=EDGE_CURVE('',#581,#580,#282,.T.);
#699=EDGE_CURVE('',#579,#581,#283,.T.);
#700=EDGE_CURVE('',#575,#578,#284,.T.);
#701=EDGE_CURVE('',#580,#577,#285,.T.);
#702=EDGE_CURVE('',#579,#574,#286,.T.);
#703=EDGE_CURVE('',#576,#581,#287,.T.);
#704=EDGE_CURVE('',#567,#570,#288,.T.);
#705=EDGE_CURVE('',#569,#572,#289,.F.);
#706=EDGE_CURVE('',#571,#566,#290,.T.);
#707=EDGE_CURVE('',#568,#573,#291,.T.);
#708=EDGE_CURVE('',#582,#582,#61,.T.);
#709=EDGE_CURVE('',#582,#583,#292,.T.);
#710=EDGE_CURVE('',#583,#583,#62,.T.);
#711=EDGE_CURVE('',#584,#584,#63,.T.);
#712=EDGE_CURVE('',#584,#585,#293,.T.);
#713=EDGE_CURVE('',#585,#585,#64,.T.);
#714=EDGE_CURVE('',#586,#586,#65,.T.);
#715=EDGE_CURVE('',#586,#587,#294,.T.);
#716=EDGE_CURVE('',#587,#587,#66,.T.);
#717=EDGE_CURVE('',#588,#588,#67,.T.);
#718=EDGE_CURVE('',#588,#589,#295,.T.);
#719=EDGE_CURVE('',#589,#589,#68,.T.);
#720=EDGE_CURVE('',#590,#591,#296,.T.);
#721=EDGE_CURVE('',#590,#592,#297,.T.);
#722=EDGE_CURVE('',#593,#592,#298,.T.);
#723=EDGE_CURVE('',#591,#593,#299,.T.);
#724=EDGE_CURVE('',#591,#594,#300,.T.);
#725=EDGE_CURVE('',#595,#593,#301,.T.);
#726=EDGE_CURVE('',#594,#595,#302,.T.);
#727=EDGE_CURVE('',#594,#596,#303,.T.);
#728=EDGE_CURVE('',#597,#595,#304,.T.);
#729=EDGE_CURVE('',#596,#597,#305,.T.);
#730=EDGE_CURVE('',#596,#590,#306,.T.);
#731=EDGE_CURVE('',#592,#597,#307,.T.);
#732=EDGE_CURVE('',#598,#599,#308,.T.);
#733=EDGE_CURVE('',#598,#600,#69,.T.);
#734=EDGE_CURVE('',#600,#599,#70,.T.);
#735=EDGE_CURVE('',#601,#601,#71,.T.);
#736=EDGE_CURVE('',#601,#600,#309,.T.);
#737=EDGE_CURVE('',#599,#598,#72,.T.);
#738=EDGE_CURVE('',#602,#603,#310,.T.);
#739=EDGE_CURVE('',#604,#602,#311,.T.);
#740=EDGE_CURVE('',#605,#604,#312,.T.);
#741=EDGE_CURVE('',#605,#603,#313,.T.);
#742=EDGE_CURVE('',#603,#606,#314,.T.);
#743=EDGE_CURVE('',#607,#605,#315,.T.);
#744=EDGE_CURVE('',#606,#607,#316,.T.);
#745=EDGE_CURVE('',#608,#602,#317,.T.);
#746=EDGE_CURVE('',#609,#608,#318,.T.);
#747=EDGE_CURVE('',#604,#609,#319,.T.);
#748=EDGE_CURVE('',#610,#606,#320,.T.);
#749=EDGE_CURVE('',#611,#610,#321,.T.);
#750=EDGE_CURVE('',#612,#611,#322,.T.);
#751=EDGE_CURVE('',#613,#612,#323,.T.);
#752=EDGE_CURVE('',#614,#613,#324,.T.);
#753=EDGE_CURVE('',#614,#615,#325,.T.);
#754=EDGE_CURVE('',#615,#616,#326,.T.);
#755=EDGE_CURVE('',#616,#617,#327,.T.);
#756=EDGE_CURVE('',#608,#617,#328,.T.);
#757=EDGE_CURVE('',#618,#618,#73,.T.);
#758=EDGE_CURVE('',#619,#619,#74,.T.);
#759=EDGE_CURVE('',#620,#607,#329,.T.);
#760=EDGE_CURVE('',#610,#620,#330,.T.);
#761=EDGE_CURVE('',#621,#616,#331,.T.);
#762=EDGE_CURVE('',#622,#621,#332,.T.);
#763=EDGE_CURVE('',#617,#622,#333,.T.);
#764=EDGE_CURVE('',#623,#614,#334,.T.);
#765=EDGE_CURVE('',#624,#623,#335,.T.);
#766=EDGE_CURVE('',#624,#598,#336,.T.);
#767=EDGE_CURVE('',#599,#615,#337,.T.);
#768=EDGE_CURVE('',#621,#624,#338,.T.);
#769=EDGE_CURVE('',#609,#622,#339,.T.);
#770=EDGE_CURVE('',#623,#625,#340,.T.);
#771=EDGE_CURVE('',#625,#626,#341,.T.);
#772=EDGE_CURVE('',#626,#627,#342,.T.);
#773=EDGE_CURVE('',#627,#620,#343,.T.);
#774=EDGE_CURVE('',#613,#625,#344,.T.);
#775=EDGE_CURVE('',#619,#628,#345,.T.);
#776=EDGE_CURVE('',#628,#628,#75,.T.);
#777=EDGE_CURVE('',#618,#629,#346,.T.);
#778=EDGE_CURVE('',#629,#629,#76,.T.);
#779=EDGE_CURVE('',#612,#626,#347,.T.);
#780=EDGE_CURVE('',#611,#627,#348,.T.);
#781=EDGE_CURVE('',#630,#631,#349,.T.);
#782=EDGE_CURVE('',#631,#630,#77,.T.);
#783=EDGE_CURVE('',#632,#632,#78,.T.);
#784=EDGE_CURVE('',#632,#633,#350,.T.);
#785=EDGE_CURVE('',#630,#633,#79,.T.);
#786=EDGE_CURVE('',#633,#631,#80,.T.);
#787=EDGE_CURVE('',#634,#635,#351,.T.);
#788=EDGE_CURVE('',#636,#634,#352,.T.);
#789=EDGE_CURVE('',#636,#637,#353,.T.);
#790=EDGE_CURVE('',#635,#637,#354,.T.);
#791=EDGE_CURVE('',#631,#638,#355,.T.);
#792=EDGE_CURVE('',#637,#638,#356,.T.);
#793=EDGE_CURVE('',#639,#636,#357,.T.);
#794=EDGE_CURVE('',#639,#630,#358,.T.);
#795=EDGE_CURVE('',#640,#641,#359,.T.);
#796=EDGE_CURVE('',#638,#640,#360,.T.);
#797=EDGE_CURVE('',#641,#639,#361,.T.);
#798=EDGE_CURVE('',#642,#640,#362,.T.);
#799=EDGE_CURVE('',#643,#642,#363,.T.);
#800=EDGE_CURVE('',#644,#643,#364,.T.);
#801=EDGE_CURVE('',#645,#644,#365,.T.);
#802=EDGE_CURVE('',#646,#645,#366,.T.);
#803=EDGE_CURVE('',#646,#647,#367,.T.);
#804=EDGE_CURVE('',#647,#648,#368,.T.);
#805=EDGE_CURVE('',#648,#649,#369,.T.);
#806=EDGE_CURVE('',#635,#649,#370,.T.);
#807=EDGE_CURVE('',#650,#650,#81,.T.);
#808=EDGE_CURVE('',#651,#651,#82,.T.);
#809=EDGE_CURVE('',#652,#641,#371,.T.);
#810=EDGE_CURVE('',#642,#652,#372,.T.);
#811=EDGE_CURVE('',#649,#653,#373,.T.);
#812=EDGE_CURVE('',#634,#653,#374,.T.);
#813=EDGE_CURVE('',#654,#647,#375,.T.);
#814=EDGE_CURVE('',#655,#654,#376,.T.);
#815=EDGE_CURVE('',#655,#648,#377,.T.);
#816=EDGE_CURVE('',#653,#655,#378,.T.);
#817=EDGE_CURVE('',#656,#646,#379,.T.);
#818=EDGE_CURVE('',#654,#656,#380,.T.);
#819=EDGE_CURVE('',#650,#657,#381,.T.);
#820=EDGE_CURVE('',#657,#657,#83,.T.);
#821=EDGE_CURVE('',#651,#658,#382,.T.);
#822=EDGE_CURVE('',#658,#658,#84,.T.);
#823=EDGE_CURVE('',#644,#659,#383,.T.);
#824=EDGE_CURVE('',#660,#659,#384,.T.);
#825=EDGE_CURVE('',#645,#660,#385,.T.);
#826=EDGE_CURVE('',#656,#660,#386,.T.);
#827=EDGE_CURVE('',#661,#652,#387,.T.);
#828=EDGE_CURVE('',#643,#661,#388,.T.);
#829=EDGE_CURVE('',#659,#661,#389,.T.);
#830=EDGE_CURVE('',#662,#663,#85,.T.);
#831=EDGE_CURVE('',#663,#664,#390,.T.);
#832=EDGE_CURVE('',#664,#665,#86,.T.);
#833=EDGE_CURVE('',#665,#662,#391,.T.);
#834=EDGE_CURVE('',#663,#666,#392,.T.);
#835=EDGE_CURVE('',#667,#666,#393,.T.);
#836=EDGE_CURVE('',#667,#664,#394,.T.);
#837=EDGE_CURVE('',#668,#662,#395,.T.);
#838=EDGE_CURVE('',#669,#668,#396,.T.);
#839=EDGE_CURVE('',#669,#670,#397,.T.);
#840=EDGE_CURVE('',#671,#670,#398,.T.);
#841=EDGE_CURVE('',#672,#671,#399,.T.);
#842=EDGE_CURVE('',#673,#672,#400,.T.);
#843=EDGE_CURVE('',#673,#674,#401,.T.);
#844=EDGE_CURVE('',#666,#674,#87,.T.);
#845=EDGE_CURVE('',#675,#667,#88,.T.);
#846=EDGE_CURVE('',#674,#675,#402,.T.);
#847=EDGE_CURVE('',#676,#676,#89,.T.);
#848=EDGE_CURVE('',#676,#677,#403,.T.);
#849=EDGE_CURVE('',#677,#677,#90,.T.);
#850=EDGE_CURVE('',#678,#679,#404,.T.);
#851=EDGE_CURVE('',#680,#678,#405,.T.);
#852=EDGE_CURVE('',#680,#681,#406,.T.);
#853=EDGE_CURVE('',#681,#679,#407,.T.);
#854=EDGE_CURVE('',#670,#678,#408,.T.);
#855=EDGE_CURVE('',#669,#680,#409,.T.);
#856=EDGE_CURVE('',#682,#665,#410,.T.);
#857=EDGE_CURVE('',#668,#682,#411,.T.);
#858=EDGE_CURVE('',#683,#675,#412,.T.);
#859=EDGE_CURVE('',#682,#683,#413,.T.);
#860=EDGE_CURVE('',#683,#673,#414,.T.);
#861=EDGE_CURVE('',#679,#671,#415,.T.);
#862=EDGE_CURVE('',#681,#672,#416,.T.);
#863=ORIENTED_EDGE('',*,*,#684,.F.);
#864=ORIENTED_EDGE('',*,*,#685,.F.);
#865=ORIENTED_EDGE('',*,*,#686,.F.);
#866=ORIENTED_EDGE('',*,*,#687,.F.);
#867=ORIENTED_EDGE('',*,*,#688,.F.);
#868=ORIENTED_EDGE('',*,*,#689,.F.);
#869=ORIENTED_EDGE('',*,*,#690,.F.);
#870=ORIENTED_EDGE('',*,*,#691,.F.);
#871=ORIENTED_EDGE('',*,*,#692,.F.);
#872=ORIENTED_EDGE('',*,*,#693,.F.);
#873=ORIENTED_EDGE('',*,*,#694,.F.);
#874=ORIENTED_EDGE('',*,*,#695,.F.);
#875=ORIENTED_EDGE('',*,*,#696,.F.);
#876=ORIENTED_EDGE('',*,*,#697,.F.);
#877=ORIENTED_EDGE('',*,*,#698,.F.);
#878=ORIENTED_EDGE('',*,*,#699,.F.);
#879=ORIENTED_EDGE('',*,*,#700,.F.);
#880=ORIENTED_EDGE('',*,*,#695,.T.);
#881=ORIENTED_EDGE('',*,*,#701,.F.);
#882=ORIENTED_EDGE('',*,*,#697,.T.);
#883=ORIENTED_EDGE('',*,*,#702,.F.);
#884=ORIENTED_EDGE('',*,*,#699,.T.);
#885=ORIENTED_EDGE('',*,*,#703,.F.);
#886=ORIENTED_EDGE('',*,*,#693,.T.);
#887=ORIENTED_EDGE('',*,*,#703,.T.);
#888=ORIENTED_EDGE('',*,*,#698,.T.);
#889=ORIENTED_EDGE('',*,*,#701,.T.);
#890=ORIENTED_EDGE('',*,*,#694,.T.);
#891=ORIENTED_EDGE('',*,*,#704,.F.);
#892=ORIENTED_EDGE('',*,*,#687,.T.);
#893=ORIENTED_EDGE('',*,*,#705,.T.);
#894=ORIENTED_EDGE('',*,*,#689,.T.);
#895=ORIENTED_EDGE('',*,*,#706,.F.);
#896=ORIENTED_EDGE('',*,*,#691,.T.);
#897=ORIENTED_EDGE('',*,*,#707,.F.);
#898=ORIENTED_EDGE('',*,*,#685,.T.);
#899=ORIENTED_EDGE('',*,*,#705,.F.);
#900=ORIENTED_EDGE('',*,*,#686,.T.);
#901=ORIENTED_EDGE('',*,*,#707,.T.);
#902=ORIENTED_EDGE('',*,*,#690,.T.);
#903=ORIENTED_EDGE('',*,*,#708,.F.);
#904=ORIENTED_EDGE('',*,*,#709,.T.);
#905=ORIENTED_EDGE('',*,*,#710,.F.);
#906=ORIENTED_EDGE('',*,*,#709,.F.);
#907=ORIENTED_EDGE('',*,*,#711,.F.);
#908=ORIENTED_EDGE('',*,*,#712,.T.);
#909=ORIENTED_EDGE('',*,*,#713,.F.);
#910=ORIENTED_EDGE('',*,*,#712,.F.);
#911=ORIENTED_EDGE('',*,*,#714,.F.);
#912=ORIENTED_EDGE('',*,*,#715,.T.);
#913=ORIENTED_EDGE('',*,*,#716,.F.);
#914=ORIENTED_EDGE('',*,*,#715,.F.);
#915=ORIENTED_EDGE('',*,*,#717,.F.);
#916=ORIENTED_EDGE('',*,*,#718,.T.);
#917=ORIENTED_EDGE('',*,*,#719,.F.);
#918=ORIENTED_EDGE('',*,*,#718,.F.);
#919=ORIENTED_EDGE('',*,*,#720,.F.);
#920=ORIENTED_EDGE('',*,*,#721,.T.);
#921=ORIENTED_EDGE('',*,*,#722,.F.);
#922=ORIENTED_EDGE('',*,*,#723,.F.);
#923=ORIENTED_EDGE('',*,*,#724,.F.);
#924=ORIENTED_EDGE('',*,*,#723,.T.);
#925=ORIENTED_EDGE('',*,*,#725,.F.);
#926=ORIENTED_EDGE('',*,*,#726,.F.);
#927=ORIENTED_EDGE('',*,*,#727,.F.);
#928=ORIENTED_EDGE('',*,*,#726,.T.);
#929=ORIENTED_EDGE('',*,*,#728,.F.);
#930=ORIENTED_EDGE('',*,*,#729,.F.);
#931=ORIENTED_EDGE('',*,*,#730,.F.);
#932=ORIENTED_EDGE('',*,*,#729,.T.);
#933=ORIENTED_EDGE('',*,*,#731,.F.);
#934=ORIENTED_EDGE('',*,*,#721,.F.);
#935=ORIENTED_EDGE('',*,*,#731,.T.);
#936=ORIENTED_EDGE('',*,*,#728,.T.);
#937=ORIENTED_EDGE('',*,*,#725,.T.);
#938=ORIENTED_EDGE('',*,*,#722,.T.);
#939=ORIENTED_EDGE('',*,*,#704,.T.);
#940=ORIENTED_EDGE('',*,*,#688,.T.);
#941=ORIENTED_EDGE('',*,*,#706,.T.);
#942=ORIENTED_EDGE('',*,*,#684,.T.);
#943=ORIENTED_EDGE('',*,*,#700,.T.);
#944=ORIENTED_EDGE('',*,*,#696,.T.);
#945=ORIENTED_EDGE('',*,*,#702,.T.);
#946=ORIENTED_EDGE('',*,*,#692,.T.);
#947=ORIENTED_EDGE('',*,*,#710,.T.);
#948=ORIENTED_EDGE('',*,*,#713,.T.);
#949=ORIENTED_EDGE('',*,*,#716,.T.);
#950=ORIENTED_EDGE('',*,*,#719,.T.);
#951=ORIENTED_EDGE('',*,*,#730,.T.);
#952=ORIENTED_EDGE('',*,*,#720,.T.);
#953=ORIENTED_EDGE('',*,*,#724,.T.);
#954=ORIENTED_EDGE('',*,*,#727,.T.);
#955=ORIENTED_EDGE('',*,*,#708,.T.);
#956=ORIENTED_EDGE('',*,*,#711,.T.);
#957=ORIENTED_EDGE('',*,*,#714,.T.);
#958=ORIENTED_EDGE('',*,*,#717,.T.);
#959=ORIENTED_EDGE('',*,*,#732,.F.);
#960=ORIENTED_EDGE('',*,*,#733,.T.);
#961=ORIENTED_EDGE('',*,*,#734,.T.);
#962=ORIENTED_EDGE('',*,*,#735,.F.);
#963=ORIENTED_EDGE('',*,*,#736,.T.);
#964=ORIENTED_EDGE('',*,*,#733,.F.);
#965=ORIENTED_EDGE('',*,*,#737,.F.);
#966=ORIENTED_EDGE('',*,*,#734,.F.);
#967=ORIENTED_EDGE('',*,*,#736,.F.);
#968=ORIENTED_EDGE('',*,*,#738,.F.);
#969=ORIENTED_EDGE('',*,*,#739,.F.);
#970=ORIENTED_EDGE('',*,*,#740,.F.);
#971=ORIENTED_EDGE('',*,*,#741,.T.);
#972=ORIENTED_EDGE('',*,*,#742,.F.);
#973=ORIENTED_EDGE('',*,*,#741,.F.);
#974=ORIENTED_EDGE('',*,*,#743,.F.);
#975=ORIENTED_EDGE('',*,*,#744,.F.);
#976=ORIENTED_EDGE('',*,*,#745,.F.);
#977=ORIENTED_EDGE('',*,*,#746,.F.);
#978=ORIENTED_EDGE('',*,*,#747,.F.);
#979=ORIENTED_EDGE('',*,*,#739,.T.);
#980=ORIENTED_EDGE('',*,*,#745,.T.);
#981=ORIENTED_EDGE('',*,*,#738,.T.);
#982=ORIENTED_EDGE('',*,*,#742,.T.);
#983=ORIENTED_EDGE('',*,*,#748,.F.);
#984=ORIENTED_EDGE('',*,*,#749,.F.);
#985=ORIENTED_EDGE('',*,*,#750,.F.);
#986=ORIENTED_EDGE('',*,*,#751,.F.);
#987=ORIENTED_EDGE('',*,*,#752,.F.);
#988=ORIENTED_EDGE('',*,*,#753,.T.);
#989=ORIENTED_EDGE('',*,*,#754,.T.);
#990=ORIENTED_EDGE('',*,*,#755,.T.);
#991=ORIENTED_EDGE('',*,*,#756,.F.);
#992=ORIENTED_EDGE('',*,*,#757,.T.);
#993=ORIENTED_EDGE('',*,*,#758,.T.);
#994=ORIENTED_EDGE('',*,*,#744,.T.);
#995=ORIENTED_EDGE('',*,*,#759,.F.);
#996=ORIENTED_EDGE('',*,*,#760,.F.);
#997=ORIENTED_EDGE('',*,*,#748,.T.);
#998=ORIENTED_EDGE('',*,*,#755,.F.);
#999=ORIENTED_EDGE('',*,*,#761,.F.);
#1000=ORIENTED_EDGE('',*,*,#762,.F.);
#1001=ORIENTED_EDGE('',*,*,#763,.F.);
#1002=ORIENTED_EDGE('',*,*,#753,.F.);
#1003=ORIENTED_EDGE('',*,*,#764,.F.);
#1004=ORIENTED_EDGE('',*,*,#765,.F.);
#1005=ORIENTED_EDGE('',*,*,#766,.T.);
#1006=ORIENTED_EDGE('',*,*,#732,.T.);
#1007=ORIENTED_EDGE('',*,*,#767,.T.);
#1008=ORIENTED_EDGE('',*,*,#737,.T.);
#1009=ORIENTED_EDGE('',*,*,#766,.F.);
#1010=ORIENTED_EDGE('',*,*,#768,.F.);
#1011=ORIENTED_EDGE('',*,*,#761,.T.);
#1012=ORIENTED_EDGE('',*,*,#754,.F.);
#1013=ORIENTED_EDGE('',*,*,#767,.F.);
#1014=ORIENTED_EDGE('',*,*,#747,.T.);
#1015=ORIENTED_EDGE('',*,*,#769,.T.);
#1016=ORIENTED_EDGE('',*,*,#762,.T.);
#1017=ORIENTED_EDGE('',*,*,#768,.T.);
#1018=ORIENTED_EDGE('',*,*,#765,.T.);
#1019=ORIENTED_EDGE('',*,*,#770,.T.);
#1020=ORIENTED_EDGE('',*,*,#771,.T.);
#1021=ORIENTED_EDGE('',*,*,#772,.T.);
#1022=ORIENTED_EDGE('',*,*,#773,.T.);
#1023=ORIENTED_EDGE('',*,*,#759,.T.);
#1024=ORIENTED_EDGE('',*,*,#743,.T.);
#1025=ORIENTED_EDGE('',*,*,#740,.T.);
#1026=ORIENTED_EDGE('',*,*,#764,.T.);
#1027=ORIENTED_EDGE('',*,*,#752,.T.);
#1028=ORIENTED_EDGE('',*,*,#774,.T.);
#1029=ORIENTED_EDGE('',*,*,#770,.F.);
#1030=ORIENTED_EDGE('',*,*,#746,.T.);
#1031=ORIENTED_EDGE('',*,*,#756,.T.);
#1032=ORIENTED_EDGE('',*,*,#763,.T.);
#1033=ORIENTED_EDGE('',*,*,#769,.F.);
#1034=ORIENTED_EDGE('',*,*,#758,.F.);
#1035=ORIENTED_EDGE('',*,*,#775,.T.);
#1036=ORIENTED_EDGE('',*,*,#776,.T.);
#1037=ORIENTED_EDGE('',*,*,#775,.F.);
#1038=ORIENTED_EDGE('',*,*,#776,.F.);
#1039=ORIENTED_EDGE('',*,*,#757,.F.);
#1040=ORIENTED_EDGE('',*,*,#777,.T.);
#1041=ORIENTED_EDGE('',*,*,#778,.T.);
#1042=ORIENTED_EDGE('',*,*,#777,.F.);
#1043=ORIENTED_EDGE('',*,*,#778,.F.);
#1044=ORIENTED_EDGE('',*,*,#751,.T.);
#1045=ORIENTED_EDGE('',*,*,#779,.T.);
#1046=ORIENTED_EDGE('',*,*,#771,.F.);
#1047=ORIENTED_EDGE('',*,*,#774,.F.);
#1048=ORIENTED_EDGE('',*,*,#749,.T.);
#1049=ORIENTED_EDGE('',*,*,#760,.T.);
#1050=ORIENTED_EDGE('',*,*,#773,.F.);
#1051=ORIENTED_EDGE('',*,*,#780,.F.);
#1052=ORIENTED_EDGE('',*,*,#750,.T.);
#1053=ORIENTED_EDGE('',*,*,#780,.T.);
#1054=ORIENTED_EDGE('',*,*,#772,.F.);
#1055=ORIENTED_EDGE('',*,*,#779,.F.);
#1056=ORIENTED_EDGE('',*,*,#735,.T.);
#1057=ORIENTED_EDGE('',*,*,#781,.T.);
#1058=ORIENTED_EDGE('',*,*,#782,.T.);
#1059=ORIENTED_EDGE('',*,*,#783,.F.);
#1060=ORIENTED_EDGE('',*,*,#784,.T.);
#1061=ORIENTED_EDGE('',*,*,#785,.F.);
#1062=ORIENTED_EDGE('',*,*,#782,.F.);
#1063=ORIENTED_EDGE('',*,*,#786,.F.);
#1064=ORIENTED_EDGE('',*,*,#784,.F.);
#1065=ORIENTED_EDGE('',*,*,#787,.F.);
#1066=ORIENTED_EDGE('',*,*,#788,.F.);
#1067=ORIENTED_EDGE('',*,*,#789,.T.);
#1068=ORIENTED_EDGE('',*,*,#790,.F.);
#1069=ORIENTED_EDGE('',*,*,#785,.T.);
#1070=ORIENTED_EDGE('',*,*,#786,.T.);
#1071=ORIENTED_EDGE('',*,*,#791,.T.);
#1072=ORIENTED_EDGE('',*,*,#792,.F.);
#1073=ORIENTED_EDGE('',*,*,#789,.F.);
#1074=ORIENTED_EDGE('',*,*,#793,.F.);
#1075=ORIENTED_EDGE('',*,*,#794,.T.);
#1076=ORIENTED_EDGE('',*,*,#795,.F.);
#1077=ORIENTED_EDGE('',*,*,#796,.F.);
#1078=ORIENTED_EDGE('',*,*,#791,.F.);
#1079=ORIENTED_EDGE('',*,*,#781,.F.);
#1080=ORIENTED_EDGE('',*,*,#794,.F.);
#1081=ORIENTED_EDGE('',*,*,#797,.F.);
#1082=ORIENTED_EDGE('',*,*,#790,.T.);
#1083=ORIENTED_EDGE('',*,*,#792,.T.);
#1084=ORIENTED_EDGE('',*,*,#796,.T.);
#1085=ORIENTED_EDGE('',*,*,#798,.F.);
#1086=ORIENTED_EDGE('',*,*,#799,.F.);
#1087=ORIENTED_EDGE('',*,*,#800,.F.);
#1088=ORIENTED_EDGE('',*,*,#801,.F.);
#1089=ORIENTED_EDGE('',*,*,#802,.F.);
#1090=ORIENTED_EDGE('',*,*,#803,.T.);
#1091=ORIENTED_EDGE('',*,*,#804,.T.);
#1092=ORIENTED_EDGE('',*,*,#805,.T.);
#1093=ORIENTED_EDGE('',*,*,#806,.F.);
#1094=ORIENTED_EDGE('',*,*,#807,.T.);
#1095=ORIENTED_EDGE('',*,*,#808,.T.);
#1096=ORIENTED_EDGE('',*,*,#795,.T.);
#1097=ORIENTED_EDGE('',*,*,#809,.F.);
#1098=ORIENTED_EDGE('',*,*,#810,.F.);
#1099=ORIENTED_EDGE('',*,*,#798,.T.);
#1100=ORIENTED_EDGE('',*,*,#787,.T.);
#1101=ORIENTED_EDGE('',*,*,#806,.T.);
#1102=ORIENTED_EDGE('',*,*,#811,.T.);
#1103=ORIENTED_EDGE('',*,*,#812,.F.);
#1104=ORIENTED_EDGE('',*,*,#804,.F.);
#1105=ORIENTED_EDGE('',*,*,#813,.F.);
#1106=ORIENTED_EDGE('',*,*,#814,.F.);
#1107=ORIENTED_EDGE('',*,*,#815,.T.);
#1108=ORIENTED_EDGE('',*,*,#805,.F.);
#1109=ORIENTED_EDGE('',*,*,#815,.F.);
#1110=ORIENTED_EDGE('',*,*,#816,.F.);
#1111=ORIENTED_EDGE('',*,*,#811,.F.);
#1112=ORIENTED_EDGE('',*,*,#803,.F.);
#1113=ORIENTED_EDGE('',*,*,#817,.F.);
#1114=ORIENTED_EDGE('',*,*,#818,.F.);
#1115=ORIENTED_EDGE('',*,*,#813,.T.);
#1116=ORIENTED_EDGE('',*,*,#807,.F.);
#1117=ORIENTED_EDGE('',*,*,#819,.T.);
#1118=ORIENTED_EDGE('',*,*,#820,.T.);
#1119=ORIENTED_EDGE('',*,*,#819,.F.);
#1120=ORIENTED_EDGE('',*,*,#820,.F.);
#1121=ORIENTED_EDGE('',*,*,#808,.F.);
#1122=ORIENTED_EDGE('',*,*,#821,.T.);
#1123=ORIENTED_EDGE('',*,*,#822,.T.);
#1124=ORIENTED_EDGE('',*,*,#821,.F.);
#1125=ORIENTED_EDGE('',*,*,#822,.F.);
#1126=ORIENTED_EDGE('',*,*,#801,.T.);
#1127=ORIENTED_EDGE('',*,*,#823,.T.);
#1128=ORIENTED_EDGE('',*,*,#824,.F.);
#1129=ORIENTED_EDGE('',*,*,#825,.F.);
#1130=ORIENTED_EDGE('',*,*,#817,.T.);
#1131=ORIENTED_EDGE('',*,*,#802,.T.);
#1132=ORIENTED_EDGE('',*,*,#825,.T.);
#1133=ORIENTED_EDGE('',*,*,#826,.F.);
#1134=ORIENTED_EDGE('',*,*,#799,.T.);
#1135=ORIENTED_EDGE('',*,*,#810,.T.);
#1136=ORIENTED_EDGE('',*,*,#827,.F.);
#1137=ORIENTED_EDGE('',*,*,#828,.F.);
#1138=ORIENTED_EDGE('',*,*,#800,.T.);
#1139=ORIENTED_EDGE('',*,*,#828,.T.);
#1140=ORIENTED_EDGE('',*,*,#829,.F.);
#1141=ORIENTED_EDGE('',*,*,#823,.F.);
#1142=ORIENTED_EDGE('',*,*,#783,.T.);
#1143=ORIENTED_EDGE('',*,*,#788,.T.);
#1144=ORIENTED_EDGE('',*,*,#812,.T.);
#1145=ORIENTED_EDGE('',*,*,#816,.T.);
#1146=ORIENTED_EDGE('',*,*,#814,.T.);
#1147=ORIENTED_EDGE('',*,*,#818,.T.);
#1148=ORIENTED_EDGE('',*,*,#826,.T.);
#1149=ORIENTED_EDGE('',*,*,#824,.T.);
#1150=ORIENTED_EDGE('',*,*,#829,.T.);
#1151=ORIENTED_EDGE('',*,*,#827,.T.);
#1152=ORIENTED_EDGE('',*,*,#809,.T.);
#1153=ORIENTED_EDGE('',*,*,#797,.T.);
#1154=ORIENTED_EDGE('',*,*,#793,.T.);
#1155=ORIENTED_EDGE('',*,*,#830,.T.);
#1156=ORIENTED_EDGE('',*,*,#831,.T.);
#1157=ORIENTED_EDGE('',*,*,#832,.T.);
#1158=ORIENTED_EDGE('',*,*,#833,.T.);
#1159=ORIENTED_EDGE('',*,*,#831,.F.);
#1160=ORIENTED_EDGE('',*,*,#834,.T.);
#1161=ORIENTED_EDGE('',*,*,#835,.F.);
#1162=ORIENTED_EDGE('',*,*,#836,.T.);
#1163=ORIENTED_EDGE('',*,*,#830,.F.);
#1164=ORIENTED_EDGE('',*,*,#837,.F.);
#1165=ORIENTED_EDGE('',*,*,#838,.F.);
#1166=ORIENTED_EDGE('',*,*,#839,.T.);
#1167=ORIENTED_EDGE('',*,*,#840,.F.);
#1168=ORIENTED_EDGE('',*,*,#841,.F.);
#1169=ORIENTED_EDGE('',*,*,#842,.F.);
#1170=ORIENTED_EDGE('',*,*,#843,.T.);
#1171=ORIENTED_EDGE('',*,*,#844,.F.);
#1172=ORIENTED_EDGE('',*,*,#834,.F.);
#1173=ORIENTED_EDGE('',*,*,#845,.T.);
#1174=ORIENTED_EDGE('',*,*,#835,.T.);
#1175=ORIENTED_EDGE('',*,*,#844,.T.);
#1176=ORIENTED_EDGE('',*,*,#846,.T.);
#1177=ORIENTED_EDGE('',*,*,#847,.F.);
#1178=ORIENTED_EDGE('',*,*,#848,.T.);
#1179=ORIENTED_EDGE('',*,*,#849,.F.);
#1180=ORIENTED_EDGE('',*,*,#848,.F.);
#1181=ORIENTED_EDGE('',*,*,#850,.F.);
#1182=ORIENTED_EDGE('',*,*,#851,.F.);
#1183=ORIENTED_EDGE('',*,*,#852,.T.);
#1184=ORIENTED_EDGE('',*,*,#853,.T.);
#1185=ORIENTED_EDGE('',*,*,#849,.T.);
#1186=ORIENTED_EDGE('',*,*,#854,.F.);
#1187=ORIENTED_EDGE('',*,*,#839,.F.);
#1188=ORIENTED_EDGE('',*,*,#855,.T.);
#1189=ORIENTED_EDGE('',*,*,#851,.T.);
#1190=ORIENTED_EDGE('',*,*,#833,.F.);
#1191=ORIENTED_EDGE('',*,*,#856,.F.);
#1192=ORIENTED_EDGE('',*,*,#857,.F.);
#1193=ORIENTED_EDGE('',*,*,#837,.T.);
#1194=ORIENTED_EDGE('',*,*,#832,.F.);
#1195=ORIENTED_EDGE('',*,*,#836,.F.);
#1196=ORIENTED_EDGE('',*,*,#845,.F.);
#1197=ORIENTED_EDGE('',*,*,#858,.F.);
#1198=ORIENTED_EDGE('',*,*,#859,.F.);
#1199=ORIENTED_EDGE('',*,*,#856,.T.);
#1200=ORIENTED_EDGE('',*,*,#847,.T.);
#1201=ORIENTED_EDGE('',*,*,#846,.F.);
#1202=ORIENTED_EDGE('',*,*,#843,.F.);
#1203=ORIENTED_EDGE('',*,*,#860,.F.);
#1204=ORIENTED_EDGE('',*,*,#858,.T.);
#1205=ORIENTED_EDGE('',*,*,#861,.F.);
#1206=ORIENTED_EDGE('',*,*,#853,.F.);
#1207=ORIENTED_EDGE('',*,*,#862,.T.);
#1208=ORIENTED_EDGE('',*,*,#841,.T.);
#1209=ORIENTED_EDGE('',*,*,#838,.T.);
#1210=ORIENTED_EDGE('',*,*,#857,.T.);
#1211=ORIENTED_EDGE('',*,*,#859,.T.);
#1212=ORIENTED_EDGE('',*,*,#860,.T.);
#1213=ORIENTED_EDGE('',*,*,#842,.T.);
#1214=ORIENTED_EDGE('',*,*,#862,.F.);
#1215=ORIENTED_EDGE('',*,*,#852,.F.);
#1216=ORIENTED_EDGE('',*,*,#855,.F.);
#1217=ORIENTED_EDGE('',*,*,#840,.T.);
#1218=ORIENTED_EDGE('',*,*,#854,.T.);
#1219=ORIENTED_EDGE('',*,*,#850,.T.);
#1220=ORIENTED_EDGE('',*,*,#861,.T.);
#1221=PLANE('',#1394);
#1222=PLANE('',#1395);
#1223=PLANE('',#1396);
#1224=PLANE('',#1397);
#1225=PLANE('',#1398);
#1226=PLANE('',#1399);
#1227=PLANE('',#1400);
#1228=PLANE('',#1401);
#1229=PLANE('',#1402);
#1230=PLANE('',#1403);
#1231=PLANE('',#1416);
#1232=PLANE('',#1417);
#1233=PLANE('',#1418);
#1234=PLANE('',#1419);
#1235=PLANE('',#1420);
#1236=PLANE('',#1421);
#1237=PLANE('',#1423);
#1238=PLANE('',#1429);
#1239=PLANE('',#1430);
#1240=PLANE('',#1431);
#1241=PLANE('',#1432);
#1242=PLANE('',#1435);
#1243=PLANE('',#1436);
#1244=PLANE('',#1437);
#1245=PLANE('',#1438);
#1246=PLANE('',#1439);
#1247=PLANE('',#1440);
#1248=PLANE('',#1441);
#1249=PLANE('',#1444);
#1250=PLANE('',#1447);
#1251=PLANE('',#1448);
#1252=PLANE('',#1449);
#1253=PLANE('',#1450);
#1254=PLANE('',#1452);
#1255=PLANE('',#1458);
#1256=PLANE('',#1459);
#1257=PLANE('',#1460);
#1258=PLANE('',#1461);
#1259=PLANE('',#1464);
#1260=PLANE('',#1465);
#1261=PLANE('',#1466);
#1262=PLANE('',#1467);
#1263=PLANE('',#1468);
#1264=PLANE('',#1471);
#1265=PLANE('',#1474);
#1266=PLANE('',#1475);
#1267=PLANE('',#1476);
#1268=PLANE('',#1477);
#1269=PLANE('',#1478);
#1270=PLANE('',#1479);
#1271=PLANE('',#1484);
#1272=PLANE('',#1485);
#1273=PLANE('',#1492);
#1274=PLANE('',#1493);
#1275=PLANE('',#1494);
#1276=PLANE('',#1495);
#1277=PLANE('',#1496);
#1278=PLANE('',#1497);
#1279=PLANE('',#1498);
#1280=PLANE('',#1499);
#1281=ADVANCED_FACE('',(#104),#1221,.F.);
#1282=ADVANCED_FACE('',(#105),#1222,.F.);
#1283=ADVANCED_FACE('',(#106),#1223,.F.);
#1284=ADVANCED_FACE('',(#107),#1224,.F.);
#1285=ADVANCED_FACE('',(#108),#1225,.T.);
#1286=ADVANCED_FACE('',(#109),#1226,.T.);
#1287=ADVANCED_FACE('',(#110),#1227,.F.);
#1288=ADVANCED_FACE('',(#111),#1228,.F.);
#1289=ADVANCED_FACE('',(#112),#1229,.F.);
#1290=ADVANCED_FACE('',(#113),#1230,.T.);
#1291=ADVANCED_FACE('',(#114),#91,.F.);
#1292=ADVANCED_FACE('',(#115),#92,.F.);
#1293=ADVANCED_FACE('',(#116),#93,.F.);
#1294=ADVANCED_FACE('',(#117),#94,.F.);
#1295=ADVANCED_FACE('',(#118),#1231,.T.);
#1296=ADVANCED_FACE('',(#119),#1232,.T.);
#1297=ADVANCED_FACE('',(#120),#1233,.T.);
#1298=ADVANCED_FACE('',(#121),#1234,.T.);
#1299=ADVANCED_FACE('',(#122,#43,#44,#45,#46,#47,#48),#1235,.T.);
#1300=ADVANCED_FACE('',(#123,#49,#50,#51,#52),#1236,.F.);
#1301=ADVANCED_FACE('',(#124),#1237,.F.);
#1302=ADVANCED_FACE('',(#125),#95,.F.);
#1303=ADVANCED_FACE('',(#126),#1238,.T.);
#1304=ADVANCED_FACE('',(#127),#1239,.T.);
#1305=ADVANCED_FACE('',(#128),#1240,.T.);
#1306=ADVANCED_FACE('',(#129,#53,#54),#1241,.F.);
#1307=ADVANCED_FACE('',(#130),#1242,.T.);
#1308=ADVANCED_FACE('',(#131),#1243,.F.);
#1309=ADVANCED_FACE('',(#132),#1244,.F.);
#1310=ADVANCED_FACE('',(#133),#1245,.F.);
#1311=ADVANCED_FACE('',(#134),#1246,.T.);
#1312=ADVANCED_FACE('',(#135),#1247,.T.);
#1313=ADVANCED_FACE('',(#136),#1248,.T.);
#1314=ADVANCED_FACE('',(#137),#96,.F.);
#1315=ADVANCED_FACE('',(#138),#1249,.T.);
#1316=ADVANCED_FACE('',(#139),#97,.F.);
#1317=ADVANCED_FACE('',(#140),#1250,.T.);
#1318=ADVANCED_FACE('',(#141),#1251,.T.);
#1319=ADVANCED_FACE('',(#142),#1252,.T.);
#1320=ADVANCED_FACE('',(#143,#55),#1253,.T.);
#1321=ADVANCED_FACE('',(#144),#1254,.F.);
#1322=ADVANCED_FACE('',(#145),#98,.F.);
#1323=ADVANCED_FACE('',(#146),#1255,.T.);
#1324=ADVANCED_FACE('',(#147),#1256,.T.);
#1325=ADVANCED_FACE('',(#148),#1257,.T.);
#1326=ADVANCED_FACE('',(#149,#56,#57),#1258,.F.);
#1327=ADVANCED_FACE('',(#150),#1259,.T.);
#1328=ADVANCED_FACE('',(#151),#1260,.T.);
#1329=ADVANCED_FACE('',(#152),#1261,.F.);
#1330=ADVANCED_FACE('',(#153),#1262,.F.);
#1331=ADVANCED_FACE('',(#154),#1263,.F.);
#1332=ADVANCED_FACE('',(#155),#99,.F.);
#1333=ADVANCED_FACE('',(#156),#1264,.T.);
#1334=ADVANCED_FACE('',(#157),#100,.F.);
#1335=ADVANCED_FACE('',(#158),#1265,.T.);
#1336=ADVANCED_FACE('',(#159),#1266,.T.);
#1337=ADVANCED_FACE('',(#160),#1267,.T.);
#1338=ADVANCED_FACE('',(#161),#1268,.T.);
#1339=ADVANCED_FACE('',(#162,#58),#1269,.T.);
#1340=ADVANCED_FACE('',(#163),#1270,.T.);
#1341=ADVANCED_FACE('',(#164),#101,.T.);
#1342=ADVANCED_FACE('',(#165),#1271,.T.);
#1343=ADVANCED_FACE('',(#166),#1272,.T.);
#1344=ADVANCED_FACE('',(#167),#102,.T.);
#1345=ADVANCED_FACE('',(#168),#103,.F.);
#1346=ADVANCED_FACE('',(#169,#59),#1273,.T.);
#1347=ADVANCED_FACE('',(#170),#1274,.T.);
#1348=ADVANCED_FACE('',(#171),#1275,.T.);
#1349=ADVANCED_FACE('',(#172,#60),#1276,.T.);
#1350=ADVANCED_FACE('',(#173),#1277,.T.);
#1351=ADVANCED_FACE('',(#174),#1278,.T.);
#1352=ADVANCED_FACE('',(#175),#1279,.T.);
#1353=ADVANCED_FACE('',(#176),#1280,.F.);
#1354=CLOSED_SHELL('',(#1281,#1282,#1283,#1284,#1285,#1286,#1287,#1288,
#1289,#1290,#1291,#1292,#1293,#1294,#1295,#1296,#1297,#1298,#1299,#1300));
#1355=CLOSED_SHELL('',(#1301,#1302,#1303,#1304,#1305,#1306,#1307,#1308,
#1309,#1310,#1311,#1312,#1313,#1314,#1315,#1316,#1317,#1318,#1319,#1320));
#1356=CLOSED_SHELL('',(#1321,#1322,#1323,#1324,#1325,#1326,#1327,#1328,
#1329,#1330,#1331,#1332,#1333,#1334,#1335,#1336,#1337,#1338,#1339,#1340));
#1357=CLOSED_SHELL('',(#1341,#1342,#1343,#1344,#1345,#1346,#1347,#1348,
#1349,#1350,#1351,#1352,#1353));
#1358=DERIVED_UNIT_ELEMENT(#1364,1.);
#1359=DERIVED_UNIT_ELEMENT(#2269,-3.);
#1360=DERIVED_UNIT_ELEMENT(#1364,1.);
#1361=DERIVED_UNIT_ELEMENT(#2269,-3.);
#1362=DERIVED_UNIT_ELEMENT(#1364,1.);
#1363=DERIVED_UNIT_ELEMENT(#2269,-3.);
#1364=(
MASS_UNIT()
NAMED_UNIT(*)
SI_UNIT(.KILO.,.GRAM.)
);
#1365=DERIVED_UNIT((#1358,#1359));
#1366=DERIVED_UNIT((#1360,#1361));
#1367=DERIVED_UNIT((#1362,#1363));
#1368=MEASURE_REPRESENTATION_ITEM('density measure',
POSITIVE_RATIO_MEASURE(7850.),#1365);
#1369=MEASURE_REPRESENTATION_ITEM('density measure',
POSITIVE_RATIO_MEASURE(7850.),#1366);
#1370=MEASURE_REPRESENTATION_ITEM('density measure',
POSITIVE_RATIO_MEASURE(7850.),#1367);
#1371=PROPERTY_DEFINITION_REPRESENTATION(#1386,#1377);
#1372=PROPERTY_DEFINITION_REPRESENTATION(#1387,#1378);
#1373=PROPERTY_DEFINITION_REPRESENTATION(#1388,#1379);
#1374=PROPERTY_DEFINITION_REPRESENTATION(#1389,#1380);
#1375=PROPERTY_DEFINITION_REPRESENTATION(#1390,#1381);
#1376=PROPERTY_DEFINITION_REPRESENTATION(#1391,#1382);
#1377=REPRESENTATION('material name',(#1383),#2263);
#1378=REPRESENTATION('density',(#1368),#2263);
#1379=REPRESENTATION('material name',(#1384),#2264);
#1380=REPRESENTATION('density',(#1369),#2264);
#1381=REPRESENTATION('material name',(#1385),#2265);
#1382=REPRESENTATION('density',(#1370),#2265);
#1383=DESCRIPTIVE_REPRESENTATION_ITEM('Steel','Steel');
#1384=DESCRIPTIVE_REPRESENTATION_ITEM('Steel','Steel');
#1385=DESCRIPTIVE_REPRESENTATION_ITEM('Steel','Steel');
#1386=PROPERTY_DEFINITION('material property','material name',#2293);
#1387=PROPERTY_DEFINITION('material property','density of part',#2293);
#1388=PROPERTY_DEFINITION('material property','material name',#2294);
#1389=PROPERTY_DEFINITION('material property','density of part',#2294);
#1390=PROPERTY_DEFINITION('material property','material name',#2295);
#1391=PROPERTY_DEFINITION('material property','density of part',#2295);
#1392=AXIS2_PLACEMENT_3D('',#1877,#1504,#1505);
#1393=AXIS2_PLACEMENT_3D('',#1878,#1506,#1507);
#1394=AXIS2_PLACEMENT_3D('',#1879,#1508,#1509);
#1395=AXIS2_PLACEMENT_3D('',#1888,#1514,#1515);
#1396=AXIS2_PLACEMENT_3D('',#1897,#1520,#1521);
#1397=AXIS2_PLACEMENT_3D('',#1906,#1526,#1527);
#1398=AXIS2_PLACEMENT_3D('',#1915,#1532,#1533);
#1399=AXIS2_PLACEMENT_3D('',#1918,#1536,#1537);
#1400=AXIS2_PLACEMENT_3D('',#1921,#1540,#1541);
#1401=AXIS2_PLACEMENT_3D('',#1922,#1542,#1543);
#1402=AXIS2_PLACEMENT_3D('',#1925,#1546,#1547);
#1403=AXIS2_PLACEMENT_3D('',#1928,#1550,#1551);
#1404=AXIS2_PLACEMENT_3D('',#1929,#1552,#1553);
#1405=AXIS2_PLACEMENT_3D('',#1931,#1554,#1555);
#1406=AXIS2_PLACEMENT_3D('',#1934,#1557,#1558);
#1407=AXIS2_PLACEMENT_3D('',#1935,#1559,#1560);
#1408=AXIS2_PLACEMENT_3D('',#1937,#1561,#1562);
#1409=AXIS2_PLACEMENT_3D('',#1940,#1564,#1565);
#1410=AXIS2_PLACEMENT_3D('',#1941,#1566,#1567);
#1411=AXIS2_PLACEMENT_3D('',#1943,#1568,#1569);
#1412=AXIS2_PLACEMENT_3D('',#1946,#1571,#1572);
#1413=AXIS2_PLACEMENT_3D('',#1947,#1573,#1574);
#1414=AXIS2_PLACEMENT_3D('',#1949,#1575,#1576);
#1415=AXIS2_PLACEMENT_3D('',#1952,#1578,#1579);
#1416=AXIS2_PLACEMENT_3D('',#1953,#1580,#1581);
#1417=AXIS2_PLACEMENT_3D('',#1962,#1586,#1587);
#1418=AXIS2_PLACEMENT_3D('',#1968,#1591,#1592);
#1419=AXIS2_PLACEMENT_3D('',#1974,#1596,#1597);
#1420=AXIS2_PLACEMENT_3D('',#1977,#1600,#1601);
#1421=AXIS2_PLACEMENT_3D('',#1978,#1602,#1603);
#1422=AXIS2_PLACEMENT_3D('',#1979,#1604,#1605);
#1423=AXIS2_PLACEMENT_3D('',#1980,#1606,#1607);
#1424=AXIS2_PLACEMENT_3D('',#1985,#1609,#1610);
#1425=AXIS2_PLACEMENT_3D('',#1986,#1611,#1612);
#1426=AXIS2_PLACEMENT_3D('',#1987,#1613,#1614);
#1427=AXIS2_PLACEMENT_3D('',#1989,#1615,#1616);
#1428=AXIS2_PLACEMENT_3D('',#1991,#1618,#1619);
#1429=AXIS2_PLACEMENT_3D('',#1992,#1620,#1621);
#1430=AXIS2_PLACEMENT_3D('',#2001,#1626,#1627);
#1431=AXIS2_PLACEMENT_3D('',#2007,#1631,#1632);
#1432=AXIS2_PLACEMENT_3D('',#2013,#1636,#1637);
#1433=AXIS2_PLACEMENT_3D('',#2032,#1647,#1648);
#1434=AXIS2_PLACEMENT_3D('',#2034,#1649,#1650);
#1435=AXIS2_PLACEMENT_3D('',#2035,#1651,#1652);
#1436=AXIS2_PLACEMENT_3D('',#2039,#1655,#1656);
#1437=AXIS2_PLACEMENT_3D('',#2045,#1660,#1661);
#1438=AXIS2_PLACEMENT_3D('',#2052,#1666,#1667);
#1439=AXIS2_PLACEMENT_3D('',#2054,#1669,#1670);
#1440=AXIS2_PLACEMENT_3D('',#2063,#1676,#1677);
#1441=AXIS2_PLACEMENT_3D('',#2065,#1679,#1680);
#1442=AXIS2_PLACEMENT_3D('',#2066,#1681,#1682);
#1443=AXIS2_PLACEMENT_3D('',#2069,#1684,#1685);
#1444=AXIS2_PLACEMENT_3D('',#2070,#1686,#1687);
#1445=AXIS2_PLACEMENT_3D('',#2071,#1688,#1689);
#1446=AXIS2_PLACEMENT_3D('',#2074,#1691,#1692);
#1447=AXIS2_PLACEMENT_3D('',#2075,#1693,#1694);
#1448=AXIS2_PLACEMENT_3D('',#2076,#1695,#1696);
#1449=AXIS2_PLACEMENT_3D('',#2078,#1698,#1699);
#1450=AXIS2_PLACEMENT_3D('',#2080,#1701,#1702);
#1451=AXIS2_PLACEMENT_3D('',#2081,#1703,#1704);
#1452=AXIS2_PLACEMENT_3D('',#2082,#1705,#1706);
#1453=AXIS2_PLACEMENT_3D('',#2086,#1708,#1709);
#1454=AXIS2_PLACEMENT_3D('',#2087,#1710,#1711);
#1455=AXIS2_PLACEMENT_3D('',#2089,#1712,#1713);
#1456=AXIS2_PLACEMENT_3D('',#2092,#1715,#1716);
#1457=AXIS2_PLACEMENT_3D('',#2093,#1717,#1718);
#1458=AXIS2_PLACEMENT_3D('',#2094,#1719,#1720);
#1459=AXIS2_PLACEMENT_3D('',#2103,#1725,#1726);
#1460=AXIS2_PLACEMENT_3D('',#2110,#1731,#1732);
#1461=AXIS2_PLACEMENT_3D('',#2116,#1736,#1737);
#1462=AXIS2_PLACEMENT_3D('',#2135,#1747,#1748);
#1463=AXIS2_PLACEMENT_3D('',#2137,#1749,#1750);
#1464=AXIS2_PLACEMENT_3D('',#2138,#1751,#1752);
#1465=AXIS2_PLACEMENT_3D('',#2142,#1755,#1756);
#1466=AXIS2_PLACEMENT_3D('',#2146,#1759,#1760);
#1467=AXIS2_PLACEMENT_3D('',#2152,#1764,#1765);
#1468=AXIS2_PLACEMENT_3D('',#2154,#1767,#1768);
#1469=AXIS2_PLACEMENT_3D('',#2158,#1771,#1772);
#1470=AXIS2_PLACEMENT_3D('',#2161,#1774,#1775);
#1471=AXIS2_PLACEMENT_3D('',#2162,#1776,#1777);
#1472=AXIS2_PLACEMENT_3D('',#2163,#1778,#1779);
#1473=AXIS2_PLACEMENT_3D('',#2166,#1781,#1782);
#1474=AXIS2_PLACEMENT_3D('',#2167,#1783,#1784);
#1475=AXIS2_PLACEMENT_3D('',#2168,#1785,#1786);
#1476=AXIS2_PLACEMENT_3D('',#2174,#1790,#1791);
#1477=AXIS2_PLACEMENT_3D('',#2176,#1793,#1794);
#1478=AXIS2_PLACEMENT_3D('',#2180,#1797,#1798);
#1479=AXIS2_PLACEMENT_3D('',#2182,#1800,#1801);
#1480=AXIS2_PLACEMENT_3D('',#2183,#1802,#1803);
#1481=AXIS2_PLACEMENT_3D('',#2184,#1804,#1805);
#1482=AXIS2_PLACEMENT_3D('',#2187,#1806,#1807);
#1483=AXIS2_PLACEMENT_3D('',#2191,#1809,#1810);
#1484=AXIS2_PLACEMENT_3D('',#2193,#1812,#1813);
#1485=AXIS2_PLACEMENT_3D('',#2199,#1817,#1818);
#1486=AXIS2_PLACEMENT_3D('',#2214,#1826,#1827);
#1487=AXIS2_PLACEMENT_3D('',#2215,#1828,#1829);
#1488=AXIS2_PLACEMENT_3D('',#2217,#1830,#1831);
#1489=AXIS2_PLACEMENT_3D('',#2219,#1833,#1834);
#1490=AXIS2_PLACEMENT_3D('',#2221,#1835,#1836);
#1491=AXIS2_PLACEMENT_3D('',#2224,#1838,#1839);
#1492=AXIS2_PLACEMENT_3D('',#2225,#1840,#1841);
#1493=AXIS2_PLACEMENT_3D('',#2234,#1846,#1847);
#1494=AXIS2_PLACEMENT_3D('',#2237,#1850,#1851);
#1495=AXIS2_PLACEMENT_3D('',#2241,#1854,#1855);
#1496=AXIS2_PLACEMENT_3D('',#2245,#1858,#1859);
#1497=AXIS2_PLACEMENT_3D('',#2247,#1861,#1862);
#1498=AXIS2_PLACEMENT_3D('',#2250,#1865,#1866);
#1499=AXIS2_PLACEMENT_3D('',#2251,#1867,#1868);
#1500=AXIS2_PLACEMENT_3D('',#2252,#1869,#1870);
#1501=AXIS2_PLACEMENT_3D('',#2253,#1871,#1872);
#1502=AXIS2_PLACEMENT_3D('',#2254,#1873,#1874);
#1503=AXIS2_PLACEMENT_3D('',#2255,#1875,#1876);
#1504=DIRECTION('axis',(0.,0.,1.));
#1505=DIRECTION('refdir',(1.,0.,0.));
#1506=DIRECTION('axis',(0.,0.,1.));
#1507=DIRECTION('refdir',(1.,0.,0.));
#1508=DIRECTION('center_axis',(-1.,0.,0.));
#1509=DIRECTION('ref_axis',(0.,0.,1.));
#1510=DIRECTION('',(0.,1.,0.));
#1511=DIRECTION('',(0.,0.,1.));
#1512=DIRECTION('',(0.,-1.,0.));
#1513=DIRECTION('',(0.,0.,-1.));
#1514=DIRECTION('center_axis',(1.,0.,0.));
#1515=DIRECTION('ref_axis',(0.,0.,-1.));
#1516=DIRECTION('',(0.,-1.,0.));
#1517=DIRECTION('',(0.,0.,1.));
#1518=DIRECTION('',(0.,1.,0.));
#1519=DIRECTION('',(0.,0.,-1.));
#1520=DIRECTION('center_axis',(1.,0.,0.));
#1521=DIRECTION('ref_axis',(0.,0.,-1.));
#1522=DIRECTION('',(0.,-1.,0.));
#1523=DIRECTION('',(0.,0.,1.));
#1524=DIRECTION('',(0.,1.,0.));
#1525=DIRECTION('',(0.,0.,-1.));
#1526=DIRECTION('center_axis',(-1.,0.,0.));
#1527=DIRECTION('ref_axis',(0.,0.,1.));
#1528=DIRECTION('',(0.,1.,0.));
#1529=DIRECTION('',(0.,0.,1.));
#1530=DIRECTION('',(0.,-1.,0.));
#1531=DIRECTION('',(0.,0.,-1.));
#1532=DIRECTION('center_axis',(0.,1.,0.));
#1533=DIRECTION('ref_axis',(1.,0.,0.));
#1534=DIRECTION('',(-1.,0.,0.));
#1535=DIRECTION('',(1.,0.,0.));
#1536=DIRECTION('center_axis',(0.,-1.,0.));
#1537=DIRECTION('ref_axis',(-1.,0.,0.));
#1538=DIRECTION('',(1.,0.,0.));
#1539=DIRECTION('',(-1.,0.,0.));
#1540=DIRECTION('center_axis',(0.,0.,-1.));
#1541=DIRECTION('ref_axis',(1.,0.,0.));
#1542=DIRECTION('center_axis',(0.,1.,0.));
#1543=DIRECTION('ref_axis',(1.,0.,0.));
#1544=DIRECTION('',(1.,0.,0.));
#1545=DIRECTION('',(-1.,0.,0.));
#1546=DIRECTION('center_axis',(0.,-1.,0.));
#1547=DIRECTION('ref_axis',(-1.,0.,0.));
#1548=DIRECTION('',(-1.,0.,0.));
#1549=DIRECTION('',(1.,0.,0.));
#1550=DIRECTION('center_axis',(0.,0.,1.));
#1551=DIRECTION('ref_axis',(1.,0.,0.));
#1552=DIRECTION('center_axis',(0.,0.,1.));
#1553=DIRECTION('ref_axis',(1.,0.,0.));
#1554=DIRECTION('center_axis',(0.,0.,1.));
#1555=DIRECTION('ref_axis',(1.,0.,0.));
#1556=DIRECTION('',(0.,0.,1.));
#1557=DIRECTION('center_axis',(0.,0.,-1.));
#1558=DIRECTION('ref_axis',(1.,0.,0.));
#1559=DIRECTION('center_axis',(0.,0.,1.));
#1560=DIRECTION('ref_axis',(1.,0.,0.));
#1561=DIRECTION('center_axis',(0.,0.,1.));
#1562=DIRECTION('ref_axis',(1.,0.,0.));
#1563=DIRECTION('',(0.,0.,1.));
#1564=DIRECTION('center_axis',(0.,0.,-1.));
#1565=DIRECTION('ref_axis',(1.,0.,0.));
#1566=DIRECTION('center_axis',(0.,0.,1.));
#1567=DIRECTION('ref_axis',(1.,0.,0.));
#1568=DIRECTION('center_axis',(0.,0.,1.));
#1569=DIRECTION('ref_axis',(1.,0.,0.));
#1570=DIRECTION('',(0.,0.,1.));
#1571=DIRECTION('center_axis',(0.,0.,-1.));
#1572=DIRECTION('ref_axis',(1.,0.,0.));
#1573=DIRECTION('center_axis',(0.,0.,1.));
#1574=DIRECTION('ref_axis',(1.,0.,0.));
#1575=DIRECTION('center_axis',(0.,0.,1.));
#1576=DIRECTION('ref_axis',(1.,0.,0.));
#1577=DIRECTION('',(0.,0.,1.));
#1578=DIRECTION('center_axis',(0.,0.,-1.));
#1579=DIRECTION('ref_axis',(1.,0.,0.));
#1580=DIRECTION('center_axis',(-1.,-8.7076315656875E-17,0.));
#1581=DIRECTION('ref_axis',(8.7076315656875E-17,-1.,0.));
#1582=DIRECTION('',(-8.7076315656875E-17,1.,0.));
#1583=DIRECTION('',(0.,0.,1.));
#1584=DIRECTION('',(8.7076315656875E-17,-1.,0.));
#1585=DIRECTION('',(0.,0.,1.));
#1586=DIRECTION('center_axis',(-7.79103876929934E-17,1.,0.));
#1587=DIRECTION('ref_axis',(-1.,-7.79103876929934E-17,0.));
#1588=DIRECTION('',(1.,7.79103876929934E-17,0.));
#1589=DIRECTION('',(-1.,-7.79103876929934E-17,0.));
#1590=DIRECTION('',(0.,0.,1.));
#1591=DIRECTION('center_axis',(1.,8.7076315656875E-17,0.));
#1592=DIRECTION('ref_axis',(-8.7076315656875E-17,1.,0.));
#1593=DIRECTION('',(8.7076315656875E-17,-1.,0.));
#1594=DIRECTION('',(-8.7076315656875E-17,1.,0.));
#1595=DIRECTION('',(0.,0.,1.));
#1596=DIRECTION('center_axis',(0.,-1.,0.));
#1597=DIRECTION('ref_axis',(1.,0.,0.));
#1598=DIRECTION('',(-1.,0.,0.));
#1599=DIRECTION('',(1.,0.,0.));
#1600=DIRECTION('center_axis',(0.,0.,1.));
#1601=DIRECTION('ref_axis',(1.,0.,0.));
#1602=DIRECTION('center_axis',(0.,0.,1.));
#1603=DIRECTION('ref_axis',(1.,0.,0.));
#1604=DIRECTION('axis',(0.,0.,1.));
#1605=DIRECTION('refdir',(1.,0.,0.));
#1606=DIRECTION('center_axis',(1.,0.,0.));
#1607=DIRECTION('ref_axis',(0.,0.,-1.));
#1608=DIRECTION('',(0.,0.,-1.));
#1609=DIRECTION('center_axis',(-1.,0.,0.));
#1610=DIRECTION('ref_axis',(0.,-1.,0.));
#1611=DIRECTION('center_axis',(-1.,0.,0.));
#1612=DIRECTION('ref_axis',(0.,-1.,0.));
#1613=DIRECTION('center_axis',(1.,0.,0.));
#1614=DIRECTION('ref_axis',(0.,-1.,0.));
#1615=DIRECTION('center_axis',(1.,0.,0.));
#1616=DIRECTION('ref_axis',(0.,-1.,0.));
#1617=DIRECTION('',(1.,0.,0.));
#1618=DIRECTION('center_axis',(-1.,0.,0.));
#1619=DIRECTION('ref_axis',(0.,-1.,0.));
#1620=DIRECTION('center_axis',(1.,0.,0.));
#1621=DIRECTION('ref_axis',(0.,-1.,0.));
#1622=DIRECTION('',(0.,-1.,0.));
#1623=DIRECTION('',(0.,0.,-1.));
#1624=DIRECTION('',(0.,1.,0.));
#1625=DIRECTION('',(0.,0.,-1.));
#1626=DIRECTION('center_axis',(0.,1.,0.));
#1627=DIRECTION('ref_axis',(1.,0.,0.));
#1628=DIRECTION('',(1.,0.,0.));
#1629=DIRECTION('',(-1.,0.,0.));
#1630=DIRECTION('',(0.,0.,1.));
#1631=DIRECTION('center_axis',(0.,-1.,0.));
#1632=DIRECTION('ref_axis',(-1.,0.,0.));
#1633=DIRECTION('',(-1.,0.,0.));
#1634=DIRECTION('',(0.,0.,-1.));
#1635=DIRECTION('',(1.,0.,0.));
#1636=DIRECTION('center_axis',(0.,0.,1.));
#1637=DIRECTION('ref_axis',(-1.,0.,0.));
#1638=DIRECTION('',(0.,1.,0.));
#1639=DIRECTION('',(1.,0.,0.));
#1640=DIRECTION('',(0.,-1.,0.));
#1641=DIRECTION('',(-1.,0.,0.));
#1642=DIRECTION('',(0.,1.,0.));
#1643=DIRECTION('',(-1.,0.,0.));
#1644=DIRECTION('',(0.,-1.,0.));
#1645=DIRECTION('',(1.,0.,0.));
#1646=DIRECTION('',(0.,1.,0.));
#1647=DIRECTION('center_axis',(0.,0.,1.));
#1648=DIRECTION('ref_axis',(1.,0.,0.));
#1649=DIRECTION('center_axis',(0.,0.,1.));
#1650=DIRECTION('ref_axis',(1.,0.,0.));
#1651=DIRECTION('center_axis',(1.,0.,0.));
#1652=DIRECTION('ref_axis',(0.,1.,0.));
#1653=DIRECTION('',(0.,1.,0.));
#1654=DIRECTION('',(0.,0.,1.));
#1655=DIRECTION('center_axis',(0.,-1.,0.));
#1656=DIRECTION('ref_axis',(-1.,0.,0.));
#1657=DIRECTION('',(0.,0.,-1.));
#1658=DIRECTION('',(-1.,0.,0.));
#1659=DIRECTION('',(0.,0.,1.));
#1660=DIRECTION('center_axis',(0.,1.,0.));
#1661=DIRECTION('ref_axis',(1.,0.,0.));
#1662=DIRECTION('',(0.,0.,-1.));
#1663=DIRECTION('',(1.,0.,0.));
#1664=DIRECTION('',(0.,0.,-1.));
#1665=DIRECTION('',(0.,0.,-1.));
#1666=DIRECTION('center_axis',(-1.,0.,0.));
#1667=DIRECTION('ref_axis',(0.,1.,0.));
#1668=DIRECTION('',(0.,1.,0.));
#1669=DIRECTION('center_axis',(0.,0.,1.));
#1670=DIRECTION('ref_axis',(1.,0.,0.));
#1671=DIRECTION('',(0.,1.,0.));
#1672=DIRECTION('',(0.,1.,0.));
#1673=DIRECTION('',(-1.,0.,0.));
#1674=DIRECTION('',(0.,-1.,0.));
#1675=DIRECTION('',(1.,0.,0.));
#1676=DIRECTION('center_axis',(1.,0.,0.));
#1677=DIRECTION('ref_axis',(0.,1.,0.));
#1678=DIRECTION('',(0.,0.,1.));
#1679=DIRECTION('center_axis',(1.,0.,0.));
#1680=DIRECTION('ref_axis',(0.,1.,0.));
#1681=DIRECTION('center_axis',(0.,0.,1.));
#1682=DIRECTION('ref_axis',(1.,0.,0.));
#1683=DIRECTION('',(0.,0.,1.));
#1684=DIRECTION('center_axis',(0.,0.,1.));
#1685=DIRECTION('ref_axis',(1.,0.,0.));
#1686=DIRECTION('center_axis',(0.,0.,-1.));
#1687=DIRECTION('ref_axis',(1.,0.,0.));
#1688=DIRECTION('center_axis',(0.,0.,1.));
#1689=DIRECTION('ref_axis',(1.,0.,0.));
#1690=DIRECTION('',(0.,0.,1.));
#1691=DIRECTION('center_axis',(0.,0.,1.));
#1692=DIRECTION('ref_axis',(1.,0.,0.));
#1693=DIRECTION('center_axis',(0.,0.,-1.));
#1694=DIRECTION('ref_axis',(1.,0.,0.));
#1695=DIRECTION('center_axis',(0.,1.,0.));
#1696=DIRECTION('ref_axis',(-1.,0.,0.));
#1697=DIRECTION('',(0.,0.,1.));
#1698=DIRECTION('center_axis',(0.,-1.,0.));
#1699=DIRECTION('ref_axis',(1.,0.,0.));
#1700=DIRECTION('',(0.,0.,1.));
#1701=DIRECTION('center_axis',(-1.,0.,0.));
#1702=DIRECTION('ref_axis',(0.,-1.,0.));
#1703=DIRECTION('axis',(0.,0.,1.));
#1704=DIRECTION('refdir',(1.,0.,0.));
#1705=DIRECTION('center_axis',(1.,0.,0.));
#1706=DIRECTION('ref_axis',(0.,0.,-1.));
#1707=DIRECTION('',(0.,0.,-1.));
#1708=DIRECTION('center_axis',(-1.,0.,0.));
#1709=DIRECTION('ref_axis',(0.,-1.,0.));
#1710=DIRECTION('center_axis',(1.,0.,0.));
#1711=DIRECTION('ref_axis',(0.,-1.,0.));
#1712=DIRECTION('center_axis',(1.,0.,0.));
#1713=DIRECTION('ref_axis',(0.,-1.,0.));
#1714=DIRECTION('',(1.,0.,0.));
#1715=DIRECTION('center_axis',(-1.,0.,0.));
#1716=DIRECTION('ref_axis',(0.,-1.,0.));
#1717=DIRECTION('center_axis',(-1.,0.,0.));
#1718=DIRECTION('ref_axis',(0.,-1.,0.));
#1719=DIRECTION('center_axis',(0.,-1.,0.));
#1720=DIRECTION('ref_axis',(-1.,0.,0.));
#1721=DIRECTION('',(0.,0.,-1.));
#1722=DIRECTION('',(1.,0.,0.));
#1723=DIRECTION('',(0.,0.,-1.));
#1724=DIRECTION('',(-1.,0.,0.));
#1725=DIRECTION('center_axis',(1.,0.,0.));
#1726=DIRECTION('ref_axis',(0.,-1.,0.));
#1727=DIRECTION('',(0.,0.,-1.));
#1728=DIRECTION('',(0.,-1.,0.));
#1729=DIRECTION('',(0.,1.,0.));
#1730=DIRECTION('',(0.,0.,-1.));
#1731=DIRECTION('center_axis',(0.,1.,0.));
#1732=DIRECTION('ref_axis',(1.,0.,0.));
#1733=DIRECTION('',(0.,0.,1.));
#1734=DIRECTION('',(1.,0.,0.));
#1735=DIRECTION('',(-1.,0.,0.));
#1736=DIRECTION('center_axis',(0.,0.,1.));
#1737=DIRECTION('ref_axis',(-1.,0.,0.));
#1738=DIRECTION('',(0.,1.,0.));
#1739=DIRECTION('',(1.,0.,0.));
#1740=DIRECTION('',(0.,-1.,0.));
#1741=DIRECTION('',(-1.,0.,0.));
#1742=DIRECTION('',(0.,1.,0.));
#1743=DIRECTION('',(-1.,0.,0.));
#1744=DIRECTION('',(0.,-1.,0.));
#1745=DIRECTION('',(1.,0.,0.));
#1746=DIRECTION('',(0.,1.,0.));
#1747=DIRECTION('center_axis',(0.,0.,1.));
#1748=DIRECTION('ref_axis',(1.,0.,0.));
#1749=DIRECTION('center_axis',(0.,0.,1.));
#1750=DIRECTION('ref_axis',(1.,0.,0.));
#1751=DIRECTION('center_axis',(1.,0.,0.));
#1752=DIRECTION('ref_axis',(0.,1.,0.));
#1753=DIRECTION('',(0.,1.,0.));
#1754=DIRECTION('',(0.,0.,1.));
#1755=DIRECTION('center_axis',(1.,0.,0.));
#1756=DIRECTION('ref_axis',(0.,1.,0.));
#1757=DIRECTION('',(0.,0.,1.));
#1758=DIRECTION('',(0.,1.,0.));
#1759=DIRECTION('center_axis',(-1.,0.,0.));
#1760=DIRECTION('ref_axis',(0.,1.,0.));
#1761=DIRECTION('',(0.,0.,-1.));
#1762=DIRECTION('',(0.,1.,0.));
#1763=DIRECTION('',(0.,0.,-1.));
#1764=DIRECTION('center_axis',(0.,-1.,0.));
#1765=DIRECTION('ref_axis',(-1.,0.,0.));
#1766=DIRECTION('',(-1.,0.,0.));
#1767=DIRECTION('center_axis',(0.,1.,0.));
#1768=DIRECTION('ref_axis',(1.,0.,0.));
#1769=DIRECTION('',(0.,0.,-1.));
#1770=DIRECTION('',(1.,0.,0.));
#1771=DIRECTION('center_axis',(0.,0.,1.));
#1772=DIRECTION('ref_axis',(1.,0.,0.));
#1773=DIRECTION('',(0.,0.,1.));
#1774=DIRECTION('center_axis',(0.,0.,1.));
#1775=DIRECTION('ref_axis',(1.,0.,0.));
#1776=DIRECTION('center_axis',(0.,0.,-1.));
#1777=DIRECTION('ref_axis',(1.,0.,0.));
#1778=DIRECTION('center_axis',(0.,0.,1.));
#1779=DIRECTION('ref_axis',(1.,0.,0.));
#1780=DIRECTION('',(0.,0.,1.));
#1781=DIRECTION('center_axis',(0.,0.,1.));
#1782=DIRECTION('ref_axis',(1.,0.,0.));
#1783=DIRECTION('center_axis',(0.,0.,-1.));
#1784=DIRECTION('ref_axis',(1.,0.,0.));
#1785=DIRECTION('center_axis',(0.,1.,0.));
#1786=DIRECTION('ref_axis',(-1.,0.,0.));
#1787=DIRECTION('',(0.,0.,1.));
#1788=DIRECTION('',(-1.,0.,0.));
#1789=DIRECTION('',(0.,0.,1.));
#1790=DIRECTION('center_axis',(1.,0.,0.));
#1791=DIRECTION('ref_axis',(0.,1.,0.));
#1792=DIRECTION('',(0.,1.,0.));
#1793=DIRECTION('center_axis',(0.,-1.,0.));
#1794=DIRECTION('ref_axis',(1.,0.,0.));
#1795=DIRECTION('',(1.,0.,0.));
#1796=DIRECTION('',(0.,0.,1.));
#1797=DIRECTION('center_axis',(-1.,0.,0.));
#1798=DIRECTION('ref_axis',(0.,-1.,0.));
#1799=DIRECTION('',(0.,-1.,0.));
#1800=DIRECTION('center_axis',(0.,0.,1.));
#1801=DIRECTION('ref_axis',(1.,0.,0.));
#1802=DIRECTION('axis',(0.,0.,1.));
#1803=DIRECTION('refdir',(1.,0.,0.));
#1804=DIRECTION('center_axis',(0.,1.,0.));
#1805=DIRECTION('ref_axis',(-0.707106781186548,0.,-0.707106781186547));
#1806=DIRECTION('center_axis',(-1.36642833800019E-15,-1.,0.));
#1807=DIRECTION('ref_axis',(-0.707106781186548,0.,-0.707106781186547));
#1808=DIRECTION('',(0.,-1.,0.));
#1809=DIRECTION('center_axis',(0.,1.,0.));
#1810=DIRECTION('ref_axis',(-0.707106781186548,0.,-0.707106781186547));
#1811=DIRECTION('',(0.,1.,0.));
#1812=DIRECTION('center_axis',(0.,0.,-1.));
#1813=DIRECTION('ref_axis',(-1.,0.,0.));
#1814=DIRECTION('',(1.,0.,0.));
#1815=DIRECTION('',(1.52259157662879E-14,1.,0.));
#1816=DIRECTION('',(-1.,0.,0.));
#1817=DIRECTION('center_axis',(1.36642833800019E-15,1.,0.));
#1818=DIRECTION('ref_axis',(1.,-1.36642833800019E-15,0.));
#1819=DIRECTION('',(0.,0.,-1.));
#1820=DIRECTION('',(-1.,1.36642833800019E-15,0.));
#1821=DIRECTION('',(0.,0.,-1.));
#1822=DIRECTION('',(-1.,0.,0.));
#1823=DIRECTION('',(0.,0.,-1.));
#1824=DIRECTION('',(-1.,1.50307117180021E-14,0.));
#1825=DIRECTION('',(0.,0.,-1.));
#1826=DIRECTION('center_axis',(-1.36642833800019E-15,-1.,0.));
#1827=DIRECTION('ref_axis',(0.707106781186548,-1.07663482881173E-14,-0.707106781186548));
#1828=DIRECTION('center_axis',(-1.52259157662879E-14,-1.,0.));
#1829=DIRECTION('ref_axis',(0.707106781186548,-1.07663482881173E-14,-0.707106781186548));
#1830=DIRECTION('center_axis',(0.,1.,0.));
#1831=DIRECTION('ref_axis',(0.707106781186548,-1.07663482881173E-14,-0.707106781186548));
#1832=DIRECTION('',(-1.52259157662879E-14,-1.,0.));
#1833=DIRECTION('center_axis',(0.,1.,0.));
#1834=DIRECTION('ref_axis',(1.,0.,0.));
#1835=DIRECTION('center_axis',(0.,1.,0.));
#1836=DIRECTION('ref_axis',(1.,0.,0.));
#1837=DIRECTION('',(0.,1.,0.));
#1838=DIRECTION('center_axis',(4.3422056074228E-15,-1.,0.));
#1839=DIRECTION('ref_axis',(1.,0.,0.));
#1840=DIRECTION('center_axis',(-4.3422056074228E-15,1.,0.));
#1841=DIRECTION('ref_axis',(1.,4.3422056074228E-15,0.));
#1842=DIRECTION('',(1.,4.3422056074228E-15,0.));
#1843=DIRECTION('',(0.,0.,-1.));
#1844=DIRECTION('',(1.,4.3422056074228E-15,0.));
#1845=DIRECTION('',(0.,0.,-1.));
#1846=DIRECTION('center_axis',(-1.,0.,0.));
#1847=DIRECTION('ref_axis',(0.,1.,0.));
#1848=DIRECTION('',(0.,1.,0.));
#1849=DIRECTION('',(0.,1.,0.));
#1850=DIRECTION('center_axis',(-1.,0.,0.));
#1851=DIRECTION('ref_axis',(0.,1.,0.));
#1852=DIRECTION('',(0.,0.,-1.));
#1853=DIRECTION('',(0.,-1.,0.));
#1854=DIRECTION('center_axis',(0.,-1.,0.));
#1855=DIRECTION('ref_axis',(-1.,0.,0.));
#1856=DIRECTION('',(0.,0.,-1.));
#1857=DIRECTION('',(1.,0.,0.));
#1858=DIRECTION('center_axis',(1.,-1.52259157662879E-14,0.));
#1859=DIRECTION('ref_axis',(-1.52259157662879E-14,-1.,0.));
#1860=DIRECTION('',(1.52259157662879E-14,1.,0.));
#1861=DIRECTION('center_axis',(1.,-1.4210854715202E-14,0.));
#1862=DIRECTION('ref_axis',(-1.4210854715202E-14,-1.,0.));
#1863=DIRECTION('',(-1.4210854715202E-14,-1.,0.));
#1864=DIRECTION('',(-1.4210854715202E-14,-1.,0.));
#1865=DIRECTION('center_axis',(0.,0.,1.));
#1866=DIRECTION('ref_axis',(-1.,0.,0.));
#1867=DIRECTION('center_axis',(0.,0.,1.));
#1868=DIRECTION('ref_axis',(1.,0.,0.));
#1869=DIRECTION('',(0.,0.,1.));
#1870=DIRECTION('',(1.,0.,0.));
#1871=DIRECTION('',(0.,0.,1.));
#1872=DIRECTION('',(1.,0.,0.));
#1873=DIRECTION('',(0.,0.,1.));
#1874=DIRECTION('',(-1.,1.49741330446318E-14,0.));
#1875=DIRECTION('',(0.,0.,1.));
#1876=DIRECTION('',(1.,0.,0.));
#1877=CARTESIAN_POINT('',(0.,0.,0.));
#1878=CARTESIAN_POINT('',(0.,0.,0.));
#1879=CARTESIAN_POINT('Origin',(-53.5,39.,102.));
#1880=CARTESIAN_POINT('',(-53.5,39.,12.));
#1881=CARTESIAN_POINT('',(-53.5,46.,12.));
#1882=CARTESIAN_POINT('',(-53.5,19.5,12.));
#1883=CARTESIAN_POINT('',(-53.5,39.,5.99999999999999));
#1884=CARTESIAN_POINT('',(-53.5,39.,102.));
#1885=CARTESIAN_POINT('',(-53.5,46.,5.99999999999999));
#1886=CARTESIAN_POINT('',(-53.5,40.75,6.));
#1887=CARTESIAN_POINT('',(-53.5,46.,102.));
#1888=CARTESIAN_POINT('Origin',(53.5,46.,102.));
#1889=CARTESIAN_POINT('',(53.5,46.,12.));
#1890=CARTESIAN_POINT('',(53.5,39.,12.));
#1891=CARTESIAN_POINT('',(53.5,23.,12.));
#1892=CARTESIAN_POINT('',(53.5,46.,5.99999999999999));
#1893=CARTESIAN_POINT('',(53.5,46.,102.));
#1894=CARTESIAN_POINT('',(53.5,39.,5.99999999999999));
#1895=CARTESIAN_POINT('',(53.5,44.25,6.));
#1896=CARTESIAN_POINT('',(53.5,39.,102.));
#1897=CARTESIAN_POINT('Origin',(53.5,-46.,102.));
#1898=CARTESIAN_POINT('',(53.5,-39.,12.));
#1899=CARTESIAN_POINT('',(53.5,-46.,12.));
#1900=CARTESIAN_POINT('',(53.5,-23.,12.));
#1901=CARTESIAN_POINT('',(53.5,-39.,5.99999999999999));
#1902=CARTESIAN_POINT('',(53.5,-39.,102.));
#1903=CARTESIAN_POINT('',(53.5,-46.,5.99999999999999));
#1904=CARTESIAN_POINT('',(53.5,-44.25,6.));
#1905=CARTESIAN_POINT('',(53.5,-46.,102.));
#1906=CARTESIAN_POINT('Origin',(-53.5,-39.,102.));
#1907=CARTESIAN_POINT('',(-53.5,-46.,12.));
#1908=CARTESIAN_POINT('',(-53.5,-39.,12.));
#1909=CARTESIAN_POINT('',(-53.5,-19.5,12.));
#1910=CARTESIAN_POINT('',(-53.5,-46.,5.99999999999999));
#1911=CARTESIAN_POINT('',(-53.5,-46.,102.));
#1912=CARTESIAN_POINT('',(-53.5,-39.,5.99999999999999));
#1913=CARTESIAN_POINT('',(-53.5,-40.75,6.));
#1914=CARTESIAN_POINT('',(-53.5,-39.,102.));
#1915=CARTESIAN_POINT('Origin',(-51.5,-46.,102.));
#1916=CARTESIAN_POINT('',(25.75,-46.,12.));
#1917=CARTESIAN_POINT('',(51.5,-46.,5.99999999999999));
#1918=CARTESIAN_POINT('Origin',(51.5,-39.,102.));
#1919=CARTESIAN_POINT('',(25.75,-39.,12.));
#1920=CARTESIAN_POINT('',(-51.5,-39.,5.99999999999999));
#1921=CARTESIAN_POINT('Origin',(0.,-42.5,5.99999999999999));
#1922=CARTESIAN_POINT('Origin',(-51.5,46.,102.));
#1923=CARTESIAN_POINT('',(25.75,46.,12.));
#1924=CARTESIAN_POINT('',(-25.75,46.,6.));
#1925=CARTESIAN_POINT('Origin',(51.5,39.,102.));
#1926=CARTESIAN_POINT('',(25.75,39.,12.));
#1927=CARTESIAN_POINT('',(51.5,39.,5.99999999999999));
#1928=CARTESIAN_POINT('Origin',(0.,42.5,5.99999999999999));
#1929=CARTESIAN_POINT('Origin',(-51.,35.,0.));
#1930=CARTESIAN_POINT('',(-52.5875,35.,0.));
#1931=CARTESIAN_POINT('Origin',(-51.,35.,0.));
#1932=CARTESIAN_POINT('',(-52.5875,35.,12.));
#1933=CARTESIAN_POINT('',(-52.5875,35.,0.));
#1934=CARTESIAN_POINT('Origin',(-51.,35.,12.));
#1935=CARTESIAN_POINT('Origin',(51.,35.,0.));
#1936=CARTESIAN_POINT('',(49.4125,35.,0.));
#1937=CARTESIAN_POINT('Origin',(51.,35.,0.));
#1938=CARTESIAN_POINT('',(49.4125,35.,12.));
#1939=CARTESIAN_POINT('',(49.4125,35.,0.));
#1940=CARTESIAN_POINT('Origin',(51.,35.,12.));
#1941=CARTESIAN_POINT('Origin',(-51.,-35.,0.));
#1942=CARTESIAN_POINT('',(-52.5875,-35.,0.));
#1943=CARTESIAN_POINT('Origin',(-51.,-35.,0.));
#1944=CARTESIAN_POINT('',(-52.5875,-35.,12.));
#1945=CARTESIAN_POINT('',(-52.5875,-35.,0.));
#1946=CARTESIAN_POINT('Origin',(-51.,-35.,12.));
#1947=CARTESIAN_POINT('Origin',(51.,-35.,0.));
#1948=CARTESIAN_POINT('',(49.4125,-35.,0.));
#1949=CARTESIAN_POINT('Origin',(51.,-35.,0.));
#1950=CARTESIAN_POINT('',(49.4125,-35.,12.));
#1951=CARTESIAN_POINT('',(49.4125,-35.,0.));
#1952=CARTESIAN_POINT('Origin',(51.,-35.,12.));
#1953=CARTESIAN_POINT('Origin',(-57.,51.,0.));
#1954=CARTESIAN_POINT('',(-57.,-51.,0.));
#1955=CARTESIAN_POINT('',(-57.,51.,0.));
#1956=CARTESIAN_POINT('',(-57.,-51.,0.));
#1957=CARTESIAN_POINT('',(-57.,-51.,12.));
#1958=CARTESIAN_POINT('',(-57.,-51.,0.));
#1959=CARTESIAN_POINT('',(-57.,51.,12.));
#1960=CARTESIAN_POINT('',(-57.,-51.,12.));
#1961=CARTESIAN_POINT('',(-57.,51.,0.));
#1962=CARTESIAN_POINT('Origin',(57.,51.,0.));
#1963=CARTESIAN_POINT('',(57.,51.,0.));
#1964=CARTESIAN_POINT('',(-57.,51.,0.));
#1965=CARTESIAN_POINT('',(57.,51.,12.));
#1966=CARTESIAN_POINT('',(-57.,51.,12.));
#1967=CARTESIAN_POINT('',(57.,51.,0.));
#1968=CARTESIAN_POINT('Origin',(57.,-51.,0.));
#1969=CARTESIAN_POINT('',(57.,-51.,0.));
#1970=CARTESIAN_POINT('',(57.,51.,0.));
#1971=CARTESIAN_POINT('',(57.,-51.,12.));
#1972=CARTESIAN_POINT('',(57.,51.,12.));
#1973=CARTESIAN_POINT('',(57.,-51.,0.));
#1974=CARTESIAN_POINT('Origin',(-57.,-51.,0.));
#1975=CARTESIAN_POINT('',(57.,-51.,0.));
#1976=CARTESIAN_POINT('',(57.,-51.,12.));
#1977=CARTESIAN_POINT('Origin',(8.88178419700125E-15,0.,12.));
#1978=CARTESIAN_POINT('Origin',(8.88178419700125E-15,0.,0.));
#1979=CARTESIAN_POINT('',(0.,0.,0.));
#1980=CARTESIAN_POINT('Origin',(-51.5,45.0000000000003,57.));
#1981=CARTESIAN_POINT('',(-51.5,46.,58.2329461667082));
#1982=CARTESIAN_POINT('',(-51.5,46.,55.7670538332917));
#1983=CARTESIAN_POINT('',(-51.5,46.,102.));
#1984=CARTESIAN_POINT('',(-51.5,46.5875000000003,57.));
#1985=CARTESIAN_POINT('Origin',(-51.5,45.0000000000003,57.));
#1986=CARTESIAN_POINT('Origin',(-51.5,45.0000000000003,57.));
#1987=CARTESIAN_POINT('Origin',(-57.,45.0000000000003,57.));
#1988=CARTESIAN_POINT('',(-57.,46.5875000000003,57.));
#1989=CARTESIAN_POINT('Origin',(-57.,45.0000000000003,57.));
#1990=CARTESIAN_POINT('',(-57.,46.5875000000003,57.));
#1991=CARTESIAN_POINT('Origin',(-51.5,45.0000000000003,57.));
#1992=CARTESIAN_POINT('Origin',(-51.5,-39.,102.));
#1993=CARTESIAN_POINT('',(-51.5,-39.,12.));
#1994=CARTESIAN_POINT('',(-51.5,-46.,12.));
#1995=CARTESIAN_POINT('',(-51.5,-19.5,12.));
#1996=CARTESIAN_POINT('',(-51.5,-39.,102.));
#1997=CARTESIAN_POINT('',(-51.5,-39.,102.));
#1998=CARTESIAN_POINT('',(-51.5,-46.,102.));
#1999=CARTESIAN_POINT('',(-51.5,-19.5,102.));
#2000=CARTESIAN_POINT('',(-51.5,-46.,102.));
#2001=CARTESIAN_POINT('Origin',(-51.5,-46.,102.));
#2002=CARTESIAN_POINT('',(-45.,-46.,12.));
#2003=CARTESIAN_POINT('',(-51.25,-46.,12.));
#2004=CARTESIAN_POINT('',(-45.,-46.,102.));
#2005=CARTESIAN_POINT('',(-51.25,-46.,102.));
#2006=CARTESIAN_POINT('',(-45.,-46.,57.));
#2007=CARTESIAN_POINT('Origin',(51.5,-39.,102.));
#2008=CARTESIAN_POINT('',(-45.,-39.,12.));
#2009=CARTESIAN_POINT('',(0.250000000000004,-39.,12.));
#2010=CARTESIAN_POINT('',(-45.,-39.,102.));
#2011=CARTESIAN_POINT('',(-45.,-39.,57.));
#2012=CARTESIAN_POINT('',(0.250000000000004,-39.,102.));
#2013=CARTESIAN_POINT('Origin',(-51.,-8.88178419700125E-15,12.));
#2014=CARTESIAN_POINT('',(-45.,-51.,12.));
#2015=CARTESIAN_POINT('',(-45.,-51.,12.));
#2016=CARTESIAN_POINT('',(-57.,-51.,12.));
#2017=CARTESIAN_POINT('',(-57.,-51.,12.));
#2018=CARTESIAN_POINT('',(-57.,51.,12.));
#2019=CARTESIAN_POINT('',(-57.,51.,12.));
#2020=CARTESIAN_POINT('',(-45.,51.,12.));
#2021=CARTESIAN_POINT('',(-45.,51.,12.));
#2022=CARTESIAN_POINT('',(-45.,46.,12.));
#2023=CARTESIAN_POINT('',(-45.,-51.,12.));
#2024=CARTESIAN_POINT('',(-51.5,46.,12.));
#2025=CARTESIAN_POINT('',(-51.25,46.,12.));
#2026=CARTESIAN_POINT('',(-51.5,39.,12.));
#2027=CARTESIAN_POINT('',(-51.5,19.5,12.));
#2028=CARTESIAN_POINT('',(-45.,39.,12.));
#2029=CARTESIAN_POINT('',(0.250000000000004,39.,12.));
#2030=CARTESIAN_POINT('',(-45.,-51.,12.));
#2031=CARTESIAN_POINT('',(-52.5875,-35.,12.));
#2032=CARTESIAN_POINT('Origin',(-51.,-35.,12.));
#2033=CARTESIAN_POINT('',(-52.5875,35.,12.));
#2034=CARTESIAN_POINT('Origin',(-51.,35.,12.));
#2035=CARTESIAN_POINT('Origin',(-45.,-51.,12.));
#2036=CARTESIAN_POINT('',(-45.,-51.,102.));
#2037=CARTESIAN_POINT('',(-45.,-51.,102.));
#2038=CARTESIAN_POINT('',(-45.,-51.,12.));
#2039=CARTESIAN_POINT('Origin',(51.5,39.,102.));
#2040=CARTESIAN_POINT('',(-51.5,39.,102.));
#2041=CARTESIAN_POINT('',(-51.5,39.,102.));
#2042=CARTESIAN_POINT('',(-45.,39.,102.));
#2043=CARTESIAN_POINT('',(0.250000000000004,39.,102.));
#2044=CARTESIAN_POINT('',(-45.,39.,57.));
#2045=CARTESIAN_POINT('Origin',(-51.5,46.,102.));
#2046=CARTESIAN_POINT('',(-45.,46.,102.));
#2047=CARTESIAN_POINT('',(-45.,46.,57.));
#2048=CARTESIAN_POINT('',(-51.5,46.,102.));
#2049=CARTESIAN_POINT('',(-51.25,46.,102.));
#2050=CARTESIAN_POINT('',(-51.5,46.,102.));
#2051=CARTESIAN_POINT('',(-51.5,46.,102.));
#2052=CARTESIAN_POINT('Origin',(-51.5,39.,102.));
#2053=CARTESIAN_POINT('',(-51.5,19.5,102.));
#2054=CARTESIAN_POINT('Origin',(-51.,-8.88178419700125E-15,102.));
#2055=CARTESIAN_POINT('',(-45.,-51.,102.));
#2056=CARTESIAN_POINT('',(-45.,51.,102.));
#2057=CARTESIAN_POINT('',(-45.,-51.,102.));
#2058=CARTESIAN_POINT('',(-57.,51.,102.));
#2059=CARTESIAN_POINT('',(-45.,51.,102.));
#2060=CARTESIAN_POINT('',(-57.,-51.,102.));
#2061=CARTESIAN_POINT('',(-57.,51.,102.));
#2062=CARTESIAN_POINT('',(-57.,-51.,102.));
#2063=CARTESIAN_POINT('Origin',(-45.,-51.,12.));
#2064=CARTESIAN_POINT('',(-45.,51.,12.));
#2065=CARTESIAN_POINT('Origin',(-45.,-51.,12.));
#2066=CARTESIAN_POINT('Origin',(-51.,35.,0.));
#2067=CARTESIAN_POINT('',(-52.5875,35.,31.75));
#2068=CARTESIAN_POINT('',(-52.5875,35.,0.));
#2069=CARTESIAN_POINT('Origin',(-51.,35.,31.75));
#2070=CARTESIAN_POINT('Origin',(-51.,35.,31.75));
#2071=CARTESIAN_POINT('Origin',(-51.,-35.,0.));
#2072=CARTESIAN_POINT('',(-52.5875,-35.,31.75));
#2073=CARTESIAN_POINT('',(-52.5875,-35.,0.));
#2074=CARTESIAN_POINT('Origin',(-51.,-35.,31.75));
#2075=CARTESIAN_POINT('Origin',(-51.,-35.,31.75));
#2076=CARTESIAN_POINT('Origin',(-45.,51.,12.));
#2077=CARTESIAN_POINT('',(-57.,51.,12.));
#2078=CARTESIAN_POINT('Origin',(-57.,-51.,12.));
#2079=CARTESIAN_POINT('',(-57.,-51.,12.));
#2080=CARTESIAN_POINT('Origin',(-57.,51.,12.));
#2081=CARTESIAN_POINT('',(0.,0.,0.));
#2082=CARTESIAN_POINT('Origin',(-51.5,-45.0000000000001,57.));
#2083=CARTESIAN_POINT('',(-51.5,-46.,58.232946166708));
#2084=CARTESIAN_POINT('',(-51.5,-46.,55.7670538332919));
#2085=CARTESIAN_POINT('',(-51.5,-46.,102.));
#2086=CARTESIAN_POINT('Origin',(-51.5,-45.0000000000001,57.));
#2087=CARTESIAN_POINT('Origin',(-57.,-45.0000000000001,57.));
#2088=CARTESIAN_POINT('',(-57.,-43.4125000000001,57.));
#2089=CARTESIAN_POINT('Origin',(-57.,-45.0000000000001,57.));
#2090=CARTESIAN_POINT('',(-51.5,-43.4125000000001,57.));
#2091=CARTESIAN_POINT('',(-57.,-43.4125000000001,57.));
#2092=CARTESIAN_POINT('Origin',(-51.5,-45.0000000000001,57.));
#2093=CARTESIAN_POINT('Origin',(-51.5,-45.0000000000001,57.));
#2094=CARTESIAN_POINT('Origin',(51.5,-39.,102.));
#2095=CARTESIAN_POINT('',(-45.,-39.,102.));
#2096=CARTESIAN_POINT('',(-45.,-39.,12.));
#2097=CARTESIAN_POINT('',(-45.,-39.,57.));
#2098=CARTESIAN_POINT('',(-51.5,-39.,102.));
#2099=CARTESIAN_POINT('',(0.250000000000004,-39.,102.));
#2100=CARTESIAN_POINT('',(-51.5,-39.,12.));
#2101=CARTESIAN_POINT('',(-51.5,-39.,102.));
#2102=CARTESIAN_POINT('',(0.250000000000004,-39.,12.));
#2103=CARTESIAN_POINT('Origin',(-51.5,-39.,102.));
#2104=CARTESIAN_POINT('',(-51.5,-46.,12.));
#2105=CARTESIAN_POINT('',(-51.5,-46.,102.));
#2106=CARTESIAN_POINT('',(-51.5,-19.5,12.));
#2107=CARTESIAN_POINT('',(-51.5,-46.,102.));
#2108=CARTESIAN_POINT('',(-51.5,-19.5,102.));
#2109=CARTESIAN_POINT('',(-51.5,-46.,102.));
#2110=CARTESIAN_POINT('Origin',(-51.5,-46.,102.));
#2111=CARTESIAN_POINT('',(-45.,-46.,12.));
#2112=CARTESIAN_POINT('',(-45.,-46.,102.));
#2113=CARTESIAN_POINT('',(-45.,-46.,57.));
#2114=CARTESIAN_POINT('',(-51.25,-46.,12.));
#2115=CARTESIAN_POINT('',(-51.25,-46.,102.));
#2116=CARTESIAN_POINT('Origin',(-51.,-8.88178419700125E-15,12.));
#2117=CARTESIAN_POINT('',(-45.,-51.,12.));
#2118=CARTESIAN_POINT('',(-45.,-51.,12.));
#2119=CARTESIAN_POINT('',(-57.,-51.,12.));
#2120=CARTESIAN_POINT('',(-57.,-51.,12.));
#2121=CARTESIAN_POINT('',(-57.,51.,12.));
#2122=CARTESIAN_POINT('',(-57.,51.,12.));
#2123=CARTESIAN_POINT('',(-45.,51.,12.));
#2124=CARTESIAN_POINT('',(-45.,51.,12.));
#2125=CARTESIAN_POINT('',(-45.,46.,12.));
#2126=CARTESIAN_POINT('',(-45.,-51.,12.));
#2127=CARTESIAN_POINT('',(-51.5,46.,12.));
#2128=CARTESIAN_POINT('',(-51.25,46.,12.));
#2129=CARTESIAN_POINT('',(-51.5,39.,12.));
#2130=CARTESIAN_POINT('',(-51.5,19.5,12.));
#2131=CARTESIAN_POINT('',(-45.,39.,12.));
#2132=CARTESIAN_POINT('',(0.250000000000004,39.,12.));
#2133=CARTESIAN_POINT('',(-45.,-51.,12.));
#2134=CARTESIAN_POINT('',(-52.5875,35.,12.));
#2135=CARTESIAN_POINT('Origin',(-51.,35.,12.));
#2136=CARTESIAN_POINT('',(-52.5875,-35.,12.));
#2137=CARTESIAN_POINT('Origin',(-51.,-35.,12.));
#2138=CARTESIAN_POINT('Origin',(-45.,-51.,12.));
#2139=CARTESIAN_POINT('',(-45.,-51.,102.));
#2140=CARTESIAN_POINT('',(-45.,-51.,102.));
#2141=CARTESIAN_POINT('',(-45.,-51.,12.));
#2142=CARTESIAN_POINT('Origin',(-45.,-51.,12.));
#2143=CARTESIAN_POINT('',(-45.,39.,102.));
#2144=CARTESIAN_POINT('',(-45.,39.,57.));
#2145=CARTESIAN_POINT('',(-45.,-51.,102.));
#2146=CARTESIAN_POINT('Origin',(-51.5,39.,102.));
#2147=CARTESIAN_POINT('',(-51.5,46.,102.));
#2148=CARTESIAN_POINT('',(-51.5,46.,102.));
#2149=CARTESIAN_POINT('',(-51.5,39.,102.));
#2150=CARTESIAN_POINT('',(-51.5,19.5,102.));
#2151=CARTESIAN_POINT('',(-51.5,39.,102.));
#2152=CARTESIAN_POINT('Origin',(51.5,39.,102.));
#2153=CARTESIAN_POINT('',(0.250000000000004,39.,102.));
#2154=CARTESIAN_POINT('Origin',(-51.5,46.,102.));
#2155=CARTESIAN_POINT('',(-45.,46.,102.));
#2156=CARTESIAN_POINT('',(-45.,46.,57.));
#2157=CARTESIAN_POINT('',(-51.25,46.,102.));
#2158=CARTESIAN_POINT('Origin',(-51.,35.,0.));
#2159=CARTESIAN_POINT('',(-52.5875,35.,31.75));
#2160=CARTESIAN_POINT('',(-52.5875,35.,0.));
#2161=CARTESIAN_POINT('Origin',(-51.,35.,31.75));
#2162=CARTESIAN_POINT('Origin',(-51.,35.,31.75));
#2163=CARTESIAN_POINT('Origin',(-51.,-35.,0.));
#2164=CARTESIAN_POINT('',(-52.5875,-35.,31.75));
#2165=CARTESIAN_POINT('',(-52.5875,-35.,0.));
#2166=CARTESIAN_POINT('Origin',(-51.,-35.,31.75));
#2167=CARTESIAN_POINT('Origin',(-51.,-35.,31.75));
#2168=CARTESIAN_POINT('Origin',(-45.,51.,12.));
#2169=CARTESIAN_POINT('',(-57.,51.,102.));
#2170=CARTESIAN_POINT('',(-57.,51.,12.));
#2171=CARTESIAN_POINT('',(-45.,51.,102.));
#2172=CARTESIAN_POINT('',(-45.,51.,102.));
#2173=CARTESIAN_POINT('',(-45.,51.,12.));
#2174=CARTESIAN_POINT('Origin',(-45.,-51.,12.));
#2175=CARTESIAN_POINT('',(-45.,-51.,102.));
#2176=CARTESIAN_POINT('Origin',(-57.,-51.,12.));
#2177=CARTESIAN_POINT('',(-57.,-51.,102.));
#2178=CARTESIAN_POINT('',(-57.,-51.,102.));
#2179=CARTESIAN_POINT('',(-57.,-51.,12.));
#2180=CARTESIAN_POINT('Origin',(-57.,51.,12.));
#2181=CARTESIAN_POINT('',(-57.,51.,102.));
#2182=CARTESIAN_POINT('Origin',(-51.,-8.88178419700125E-15,102.));
#2183=CARTESIAN_POINT('',(0.,0.,0.));
#2184=CARTESIAN_POINT('Origin',(-44.5,40.7500000000001,14.));
#2185=CARTESIAN_POINT('',(-51.5,46.0000000000003,14.));
#2186=CARTESIAN_POINT('',(-44.5,46.0000000000003,6.99999999999999));
#2187=CARTESIAN_POINT('Origin',(-44.5,46.,14.));
#2188=CARTESIAN_POINT('',(-44.5,39.,6.99999999999999));
#2189=CARTESIAN_POINT('',(-44.5,40.7500000000001,6.99999999999999));
#2190=CARTESIAN_POINT('',(-51.5,39.,14.));
#2191=CARTESIAN_POINT('Origin',(-44.5,39.,14.));
#2192=CARTESIAN_POINT('',(-51.5,40.7500000000001,14.));
#2193=CARTESIAN_POINT('Origin',(3.19744231092045E-13,42.5000000000001,6.99999999999999));
#2194=CARTESIAN_POINT('',(44.5000000000006,46.0000000000003,6.99999999999999));
#2195=CARTESIAN_POINT('',(51.5000000000006,46.0000000000003,6.99999999999999));
#2196=CARTESIAN_POINT('',(44.5000000000005,39.,6.99999999999999));
#2197=CARTESIAN_POINT('',(44.5000000000006,44.2499999999999,6.99999999999999));
#2198=CARTESIAN_POINT('',(-51.5,39.,6.99999999999999));
#2199=CARTESIAN_POINT('Origin',(-51.5,46.,102.));
#2200=CARTESIAN_POINT('',(-51.5,46.,102.));
#2201=CARTESIAN_POINT('',(-51.5,46.0000000000003,12.));
#2202=CARTESIAN_POINT('',(-45.,46.,102.));
#2203=CARTESIAN_POINT('',(-45.,46.,102.));
#2204=CARTESIAN_POINT('',(-45.,46.,12.));
#2205=CARTESIAN_POINT('',(-45.,46.,102.));
#2206=CARTESIAN_POINT('',(45.0000000000006,46.0000000000004,12.));
#2207=CARTESIAN_POINT('',(-25.7499999999998,46.0000000000003,12.));
#2208=CARTESIAN_POINT('',(45.0000000000006,46.0000000000004,102.));
#2209=CARTESIAN_POINT('',(45.0000000000006,46.0000000000004,102.));
#2210=CARTESIAN_POINT('',(51.5000000000006,46.0000000000003,102.));
#2211=CARTESIAN_POINT('',(51.5000000000006,46.0000000000003,102.));
#2212=CARTESIAN_POINT('',(51.5000000000006,46.0000000000003,14.));
#2213=CARTESIAN_POINT('',(51.5000000000006,46.0000000000003,102.));
#2214=CARTESIAN_POINT('Origin',(44.5000000000006,45.9999999999985,14.));
#2215=CARTESIAN_POINT('Origin',(44.5000000000006,44.2499999999999,14.));
#2216=CARTESIAN_POINT('',(51.5000000000005,39.0000000000003,14.));
#2217=CARTESIAN_POINT('Origin',(44.5000000000005,39.0000000000001,14.));
#2218=CARTESIAN_POINT('',(51.5000000000006,44.2499999999998,14.));
#2219=CARTESIAN_POINT('Origin',(2.66453525910038E-13,39.,57.));
#2220=CARTESIAN_POINT('',(-13.2499999999997,39.,57.));
#2221=CARTESIAN_POINT('Origin',(2.66453525910038E-13,39.,57.));
#2222=CARTESIAN_POINT('',(-13.2499999999997,51.0000000000002,57.));
#2223=CARTESIAN_POINT('',(-13.2499999999997,39.,57.));
#2224=CARTESIAN_POINT('Origin',(2.66453525910038E-13,51.,57.));
#2225=CARTESIAN_POINT('Origin',(-45.,51.,102.));
#2226=CARTESIAN_POINT('',(-45.,51.,12.));
#2227=CARTESIAN_POINT('',(45.0000000000007,51.0000000000004,12.));
#2228=CARTESIAN_POINT('',(-22.4999999999999,51.0000000000001,12.));
#2229=CARTESIAN_POINT('',(-45.,51.,102.));
#2230=CARTESIAN_POINT('',(-45.,51.,102.));
#2231=CARTESIAN_POINT('',(45.0000000000007,51.0000000000004,102.));
#2232=CARTESIAN_POINT('',(-45.,51.,102.));
#2233=CARTESIAN_POINT('',(45.0000000000007,51.0000000000004,102.));
#2234=CARTESIAN_POINT('Origin',(-45.,46.,102.));
#2235=CARTESIAN_POINT('',(-45.,45.5000000000001,12.));
#2236=CARTESIAN_POINT('',(-45.,46.,102.));
#2237=CARTESIAN_POINT('Origin',(-51.5,39.,102.));
#2238=CARTESIAN_POINT('',(-51.5,39.,102.));
#2239=CARTESIAN_POINT('',(-51.5,39.,102.));
#2240=CARTESIAN_POINT('',(-51.5,46.,102.));
#2241=CARTESIAN_POINT('Origin',(51.5000000000005,39.,102.));
#2242=CARTESIAN_POINT('',(51.5000000000005,39.0000000000003,102.));
#2243=CARTESIAN_POINT('',(51.5000000000005,39.0000000000003,102.));
#2244=CARTESIAN_POINT('',(-51.5,39.,102.));
#2245=CARTESIAN_POINT('Origin',(51.5000000000006,46.0000000000003,102.));
#2246=CARTESIAN_POINT('',(51.5000000000005,39.0000000000003,102.));
#2247=CARTESIAN_POINT('Origin',(45.0000000000007,51.0000000000004,102.));
#2248=CARTESIAN_POINT('',(45.0000000000007,48.,12.));
#2249=CARTESIAN_POINT('',(45.0000000000007,51.0000000000004,102.));
#2250=CARTESIAN_POINT('Origin',(3.19744231092045E-13,45.0000000000002,102.));
#2251=CARTESIAN_POINT('Origin',(3.19744231092045E-13,45.0000000000002,12.));
#2252=CARTESIAN_POINT('',(0.,0.,0.));
#2253=CARTESIAN_POINT('',(0.,0.,0.));
#2254=CARTESIAN_POINT('',(-5.32907051820075E-14,1.05152294593665E-12,0.));
#2255=CARTESIAN_POINT('',(0.,0.,0.));
#2256=UNCERTAINTY_MEASURE_WITH_UNIT(LENGTH_MEASURE(0.01),#2268,
'DISTANCE_ACCURACY_VALUE',
'Maximum model space distance between geometric entities at asserted c
onnectivities');
#2257=UNCERTAINTY_MEASURE_WITH_UNIT(LENGTH_MEASURE(0.01),#2268,
'DISTANCE_ACCURACY_VALUE',
'Maximum model space distance between geometric entities at asserted c
onnectivities');
#2258=UNCERTAINTY_MEASURE_WITH_UNIT(LENGTH_MEASURE(0.01),#2268,
'DISTANCE_ACCURACY_VALUE',
'Maximum model space distance between geometric entities at asserted c
onnectivities');
#2259=UNCERTAINTY_MEASURE_WITH_UNIT(LENGTH_MEASURE(0.01),#2268,
'DISTANCE_ACCURACY_VALUE',
'Maximum model space distance between geometric entities at asserted c
onnectivities');
#2260=UNCERTAINTY_MEASURE_WITH_UNIT(LENGTH_MEASURE(0.01),#2268,
'DISTANCE_ACCURACY_VALUE',
'Maximum model space distance between geometric entities at asserted c
onnectivities');
#2261=UNCERTAINTY_MEASURE_WITH_UNIT(LENGTH_MEASURE(0.01),#2268,
'DISTANCE_ACCURACY_VALUE',
'Maximum model space distance between geometric entities at asserted c
onnectivities');
#2262=(
GEOMETRIC_REPRESENTATION_CONTEXT(3)
GLOBAL_UNCERTAINTY_ASSIGNED_CONTEXT((#2256))
GLOBAL_UNIT_ASSIGNED_CONTEXT((#2268,#2270,#2271))
REPRESENTATION_CONTEXT('','3D')
);
#2263=(
GEOMETRIC_REPRESENTATION_CONTEXT(3)
GLOBAL_UNCERTAINTY_ASSIGNED_CONTEXT((#2257))
GLOBAL_UNIT_ASSIGNED_CONTEXT((#2268,#2270,#2271))
REPRESENTATION_CONTEXT('','3D')
);
#2264=(
GEOMETRIC_REPRESENTATION_CONTEXT(3)
GLOBAL_UNCERTAINTY_ASSIGNED_CONTEXT((#2258))
GLOBAL_UNIT_ASSIGNED_CONTEXT((#2268,#2270,#2271))
REPRESENTATION_CONTEXT('','3D')
);
#2265=(
GEOMETRIC_REPRESENTATION_CONTEXT(3)
GLOBAL_UNCERTAINTY_ASSIGNED_CONTEXT((#2259))
GLOBAL_UNIT_ASSIGNED_CONTEXT((#2268,#2270,#2271))
REPRESENTATION_CONTEXT('','3D')
);
#2266=(
GEOMETRIC_REPRESENTATION_CONTEXT(3)
GLOBAL_UNCERTAINTY_ASSIGNED_CONTEXT((#2260))
GLOBAL_UNIT_ASSIGNED_CONTEXT((#2268,#2270,#2271))
REPRESENTATION_CONTEXT('','3D')
);
#2267=(
GEOMETRIC_REPRESENTATION_CONTEXT(3)
GLOBAL_UNCERTAINTY_ASSIGNED_CONTEXT((#2261))
GLOBAL_UNIT_ASSIGNED_CONTEXT((#2268,#2270,#2271))
REPRESENTATION_CONTEXT('','3D')
);
#2268=(
LENGTH_UNIT()
NAMED_UNIT(*)
SI_UNIT(.MILLI.,.METRE.)
);
#2269=(
LENGTH_UNIT()
NAMED_UNIT(*)
SI_UNIT($,.METRE.)
);
#2270=(
NAMED_UNIT(*)
PLANE_ANGLE_UNIT()
SI_UNIT($,.RADIAN.)
);
#2271=(
NAMED_UNIT(*)
SI_UNIT($,.STERADIAN.)
SOLID_ANGLE_UNIT()
);
#2272=SHAPE_DEFINITION_REPRESENTATION(#2277,#2286);
#2273=SHAPE_DEFINITION_REPRESENTATION(#2278,#2287);
#2274=SHAPE_DEFINITION_REPRESENTATION(#2279,#2288);
#2275=SHAPE_DEFINITION_REPRESENTATION(#2280,#2289);
#2276=SHAPE_DEFINITION_REPRESENTATION(#2281,#2290);
#2277=PRODUCT_DEFINITION_SHAPE('',$,#2292);
#2278=PRODUCT_DEFINITION_SHAPE('',$,#2293);
#2279=PRODUCT_DEFINITION_SHAPE('',$,#2294);
#2280=PRODUCT_DEFINITION_SHAPE('',$,#2295);
#2281=PRODUCT_DEFINITION_SHAPE('',$,#2296);
#2282=PRODUCT_DEFINITION_SHAPE($,$,#23);
#2283=PRODUCT_DEFINITION_SHAPE($,$,#24);
#2284=PRODUCT_DEFINITION_SHAPE($,$,#25);
#2285=PRODUCT_DEFINITION_SHAPE($,$,#26);
#2286=SHAPE_REPRESENTATION('',(#1392,#1500,#1501,#1502,#1503),#2262);
#2287=SHAPE_REPRESENTATION('',(#1393),#2263);
#2288=SHAPE_REPRESENTATION('',(#1422),#2264);
#2289=SHAPE_REPRESENTATION('',(#1451),#2265);
#2290=SHAPE_REPRESENTATION('',(#1480),#2266);
#2291=PRODUCT_DEFINITION_CONTEXT('part definition',#2308,'design');
#2292=PRODUCT_DEFINITION('2026-06-06-23-29-37-047','Q Mod Block 1a',#2297,
#2291);
#2293=PRODUCT_DEFINITION('2026-06-06-23-30-19-354','Floor',#2298,#2291);
#2294=PRODUCT_DEFINITION('2026-06-06-23-32-07-030','LeftWall',#2299,#2291);
#2295=PRODUCT_DEFINITION('2026-06-07-19-28-51-365','RightWall',#2300,#2291);
#2296=PRODUCT_DEFINITION('2026-06-11-11-58-53-981','BackWall',#2301,#2291);
#2297=PRODUCT_DEFINITION_FORMATION('',$,#2310);
#2298=PRODUCT_DEFINITION_FORMATION('',$,#2311);
#2299=PRODUCT_DEFINITION_FORMATION('',$,#2312);
#2300=PRODUCT_DEFINITION_FORMATION('',$,#2313);
#2301=PRODUCT_DEFINITION_FORMATION('',$,#2314);
#2302=PRODUCT_RELATED_PRODUCT_CATEGORY('Q Mod Block 1a',
'Q Mod Block 1a',(#2310));
#2303=PRODUCT_RELATED_PRODUCT_CATEGORY('Floor','Floor',(#2311));
#2304=PRODUCT_RELATED_PRODUCT_CATEGORY('LeftWall','LeftWall',(#2312));
#2305=PRODUCT_RELATED_PRODUCT_CATEGORY('RightWall','RightWall',(#2313));
#2306=PRODUCT_RELATED_PRODUCT_CATEGORY('BackWall','BackWall',(#2314));
#2307=APPLICATION_PROTOCOL_DEFINITION('international standard',
'automotive_design',2009,#2308);
#2308=APPLICATION_CONTEXT(
'Core Data for Automotive Mechanical Design Process');
#2309=PRODUCT_CONTEXT('part definition',#2308,'mechanical');
#2310=PRODUCT('2026-06-06-23-29-37-047','Q Mod Block 1a',$,(#2309));
#2311=PRODUCT('2026-06-06-23-30-19-354','Floor',$,(#2309));
#2312=PRODUCT('2026-06-06-23-32-07-030','LeftWall',$,(#2309));
#2313=PRODUCT('2026-06-07-19-28-51-365','RightWall',$,(#2309));
#2314=PRODUCT('2026-06-11-11-58-53-981','BackWall',$,(#2309));
#2315=PRESENTATION_STYLE_ASSIGNMENT((#2320));
#2316=PRESENTATION_STYLE_ASSIGNMENT((#2321));
#2317=PRESENTATION_STYLE_ASSIGNMENT((#2322));
#2318=PRESENTATION_STYLE_ASSIGNMENT((#2323));
#2319=PRESENTATION_STYLE_ASSIGNMENT((#2324));
#2320=SURFACE_STYLE_USAGE(.BOTH.,#2325);
#2321=SURFACE_STYLE_USAGE(.BOTH.,#2326);
#2322=SURFACE_STYLE_USAGE(.BOTH.,#2327);
#2323=SURFACE_STYLE_USAGE(.BOTH.,#2328);
#2324=SURFACE_STYLE_USAGE(.BOTH.,#2329);
#2325=SURFACE_SIDE_STYLE('',(#2330));
#2326=SURFACE_SIDE_STYLE('',(#2331));
#2327=SURFACE_SIDE_STYLE('',(#2332));
#2328=SURFACE_SIDE_STYLE('',(#2333));
#2329=SURFACE_SIDE_STYLE('',(#2334));
#2330=SURFACE_STYLE_FILL_AREA(#2335);
#2331=SURFACE_STYLE_FILL_AREA(#2336);
#2332=SURFACE_STYLE_FILL_AREA(#2337);
#2333=SURFACE_STYLE_FILL_AREA(#2338);
#2334=SURFACE_STYLE_FILL_AREA(#2339);
#2335=FILL_AREA_STYLE(
'EPX 150 - Air Baked (with Carbon M2 M3 L1 3D Printers)',(#2340));
#2336=FILL_AREA_STYLE('Steel - Satin',(#2341));
#2337=FILL_AREA_STYLE('Steel - Satin',(#2342));
#2338=FILL_AREA_STYLE('3D Ash - Glossy',(#2343));
#2339=FILL_AREA_STYLE('Bamboo Light - Semigloss',(#2344));
#2340=FILL_AREA_STYLE_COLOUR(
'EPX 150 - Air Baked (with Carbon M2 M3 L1 3D Printers)',#2345);
#2341=FILL_AREA_STYLE_COLOUR('Steel - Satin',#2346);
#2342=FILL_AREA_STYLE_COLOUR('Steel - Satin',#2347);
#2343=FILL_AREA_STYLE_COLOUR('3D Ash - Glossy',#2348);
#2344=FILL_AREA_STYLE_COLOUR('Bamboo Light - Semigloss',#2349);
#2345=COLOUR_RGB(
'EPX 150 - Air Baked (with Carbon M2 M3 L1 3D Printers)',0.247058823529412,
0.247058823529412,0.247058823529412);
#2346=COLOUR_RGB('Steel - Satin',1.,1.,1.);
#2347=COLOUR_RGB('Steel - Satin',0.627450980392157,0.627450980392157,0.627450980392157);
#2348=COLOUR_RGB('3D Ash - Glossy',0.862745098039216,0.745098039215686,
0.580392156862745);
#2349=COLOUR_RGB('Bamboo Light - Semigloss',0.,0.,0.);
ENDSEC;
END-ISO-10303-21;
